<svg xmlns="http://www.w3.org/2000/svg" width="52" height="52" viewBox="0 0 52 52">
                <path d="M27.8579 1.82812C26.9337 2.02109 26.1822 2.55937 25.7556 3.37187C25.5931 3.6664 25.4509 3.92031 25.4407 3.94062C25.4306 3.95078 25.1564 3.83906 24.8314 3.69687C23.3587 3.0164 21.6322 3.59531 20.8806 4.99687C20.7181 5.2914 20.5759 5.54531 20.5657 5.56562C20.5556 5.57578 20.2712 5.46406 19.9462 5.31172C19.0626 4.90547 18.2298 4.92578 17.3361 5.3625C16.2189 5.91094 15.5993 6.9164 15.6095 8.13515C15.6197 9.40469 15.7618 9.60781 19.2657 13.1219L22.3736 16.2297L21.7947 16.3516C19.9361 16.7375 18.3618 18.3117 17.9759 20.1703C17.9048 20.5055 17.8743 22.0086 17.8947 24.3344L17.9251 27.9805L18.1993 28.4984C18.5447 29.1484 19.1947 29.7273 19.804 29.9L20.2611 30.032L20.3118 39.3148C20.3626 48.1305 20.3728 48.618 20.5556 48.9836C20.7993 49.4812 21.5204 50.1008 22.0181 50.2531C22.2923 50.3344 23.5517 50.375 26.0197 50.375C30.204 50.375 30.2853 50.3648 31.0064 49.5625C31.2501 49.2984 31.504 48.8922 31.565 48.6687C31.6564 48.3742 31.6868 45.9062 31.6868 39.1727V30.0727L34.104 30.0422C36.9884 30.0016 36.9072 30.032 38.4001 28.5797L39.365 27.625H44.8697H50.3743V26.8125V26H48.7493H47.1243V19.5V13H48.7493H50.3743V12.1875V11.375H44.8697H39.3548L34.8353 6.85547C30.9657 2.99609 30.2345 2.30547 29.7572 2.09218C29.097 1.80781 28.447 1.7164 27.8579 1.82812ZM28.8736 3.45312C29.0259 3.45312 30.59 4.94609 34.0431 8.39922L38.9993 13.3555V19.5V25.6547L37.6486 26.9852C36.9173 27.7164 36.1962 28.3461 36.054 28.3867C35.9118 28.4172 34.49 28.4375 32.8853 28.4172L29.9603 28.3867L29.6353 28.0516C29.3509 27.7672 29.3001 27.6555 29.3001 27.2187C29.3001 26.782 29.3509 26.6703 29.6353 26.3859L29.9603 26.0508L31.8189 26C33.9517 25.9391 34.3173 25.8273 35.0384 25.0148C36.0337 23.8773 35.9728 22.2523 34.8962 21.1656C34.0329 20.3125 34.0431 20.3125 28.8431 20.3125C23.6431 20.3125 23.6532 20.3125 22.79 21.1656C22.1298 21.8258 21.9368 22.4047 21.9368 23.6844C21.9368 24.4258 21.9064 24.5781 21.7743 24.5781C21.5001 24.5781 20.5657 25.6039 20.4337 26.0609C20.3626 26.2945 20.3118 26.8937 20.3118 27.4117C20.3118 27.9195 20.2712 28.3359 20.2306 28.3359C20.1798 28.3359 20.0173 28.1937 19.8447 28.0211L19.5501 27.7164V23.9891C19.5501 20.3227 19.5501 20.2516 19.7837 19.8047C20.1392 19.0734 20.5556 18.6469 21.2361 18.2812C21.7743 17.9969 21.9876 17.9461 22.79 17.8953C23.2978 17.875 23.8361 17.7836 23.9884 17.7125C24.4962 17.4484 24.7298 16.6461 24.4657 16.118C24.4048 15.9961 22.7798 14.3102 20.8501 12.3805C17.1431 8.66328 17.1228 8.63281 17.2447 7.82031C17.3056 7.37344 17.9353 6.74375 18.3822 6.68281C19.2048 6.56094 19.2048 6.56094 23.2165 10.5727L27.0048 14.3609L27.5532 13.8531C27.8579 13.5789 28.1118 13.3148 28.122 13.2539C28.1322 13.2031 26.8017 11.8219 25.1767 10.1969C22.0587 7.0789 21.9978 6.99765 22.1197 6.19531C22.1806 5.74844 22.8103 5.11875 23.2572 5.05781C24.0595 4.93593 24.1407 4.99687 27.2892 8.14531L30.265 11.1109L30.6915 10.7148C30.9251 10.4914 31.179 10.2578 31.2501 10.1867C31.3212 10.1258 31.3822 10.0344 31.3822 9.98359C31.3822 9.94297 30.4173 8.9375 29.2392 7.75937C26.9845 5.50469 26.8829 5.35234 26.9947 4.57031C27.0861 3.95078 27.9798 3.28047 28.5181 3.42265C28.5993 3.43281 28.7517 3.45312 28.8736 3.45312ZM42.2493 17.4687V21.9375H43.0618H43.8743V17.4687V13H44.6868H45.4993V19.5V26H43.0618H40.6243V19.5V13H41.4368H42.2493V17.4687ZM33.7384 22.3234C34.0228 22.6078 34.0736 22.7195 34.0736 23.1562C34.0736 23.593 34.0228 23.7047 33.7384 23.9891L33.4134 24.3242L28.4775 24.3547L23.5415 24.3852L23.572 23.5219C23.6126 22.7805 23.6431 22.6281 23.8665 22.3945C24.0087 22.2422 24.2118 22.0797 24.3236 22.0289C24.4353 21.9883 26.5275 21.9578 28.965 21.968L33.4134 21.9883L33.7384 22.3234ZM27.7665 26.3758C27.2892 27.7164 28.1525 29.4531 29.5032 29.8797L30.0111 30.032L30.0415 39.1422L30.0618 48.2523L29.8181 48.4961L29.5642 48.75H25.9993H22.4345L22.1907 48.4961L21.9368 48.2523V37.375V26.4977L22.1907 26.2539L22.4345 26H25.1665H27.9087L27.7665 26.3758Z"></path>
                <path d="M16.9914 13.843C16.6359 13.9547 16.3516 14.107 16.3516 14.1578C16.3516 14.4523 17.093 16.4531 17.2047 16.4531C17.4789 16.4531 18.5859 16.0164 18.5859 15.9148C18.5859 15.6203 17.8445 13.6094 17.743 13.6195C17.6719 13.6195 17.3367 13.7211 16.9914 13.843Z"></path>
                <path d="M13.8227 16.2402C13.5891 16.5754 13.4062 16.8699 13.4062 16.9004C13.4062 16.9613 15.4781 18.3629 15.6812 18.4441C15.7727 18.4847 15.9758 18.2816 16.2398 17.8855C16.4734 17.5504 16.6562 17.2558 16.6562 17.2254C16.6562 17.1644 14.5844 15.7629 14.3812 15.6816C14.2898 15.641 14.0867 15.8441 13.8227 16.2402Z"></path>
                <path d="M13 20.3125V21.125H14.625H16.25V20.3125V19.5H14.625H13V20.3125Z"></path>
                <path d="M3.24836 22.0697C2.71007 22.2424 1.89757 23.1057 1.73507 23.6744C1.62336 24.0807 1.69445 25.7057 2.32414 36.1158C2.72023 42.7072 3.09601 48.3135 3.16711 48.5979C3.30929 49.2377 4.10148 50.0604 4.73117 50.2533C5.32023 50.426 12.1452 50.426 12.7343 50.2533C13.3234 50.0807 14.1359 49.2479 14.3085 48.6385C14.4202 48.2221 14.3491 46.6377 13.7194 36.1971C13.3234 29.6057 12.9679 24.0807 12.9374 23.9182C12.7648 23.1057 12.0437 22.283 11.2819 22.0596C10.764 21.8971 3.75617 21.9072 3.24836 22.0697ZM11.1194 23.8166C11.2616 23.9486 11.3734 24.1518 11.3734 24.2736C11.3734 24.3854 11.6984 29.7377 12.0843 36.1666C12.4804 42.5854 12.7952 47.9377 12.7952 48.0494C12.7952 48.1611 12.6835 48.3643 12.5413 48.4963L12.2976 48.7502H8.73273H5.16789L4.92414 48.4963C4.78195 48.3643 4.67023 48.151 4.67023 48.0189C4.67023 47.8869 4.34523 42.5244 3.95929 36.1057C3.57335 29.6768 3.24836 24.3447 3.24836 24.2432C3.24836 24.1416 3.36007 23.9486 3.50226 23.8166L3.74601 23.5627H7.31085H10.8757L11.1194 23.8166Z"></path>
                <path d="M8.85477 38.1877C8.50946 38.2283 8.20477 38.2791 8.18446 38.2994C8.15399 38.3299 8.93602 46.333 8.97665 46.3838C9.00712 46.4143 10.4798 46.2315 10.5204 46.1807C10.5712 46.1299 9.93134 39.4268 9.78915 38.4619C9.75868 38.2588 9.67743 38.0963 9.61649 38.0963C9.5454 38.1065 9.21024 38.1471 8.85477 38.1877Z"></path>
                <path d="M48.7065 29.9813C48.6761 30.3875 48.412 34.582 48.1378 39.3047C47.8534 44.0273 47.5995 47.9883 47.5792 48.1102C47.5487 48.232 47.4268 48.4352 47.305 48.5469C47.0917 48.7398 46.9597 48.75 43.5472 48.75H40.0026L39.7589 48.4961C39.5964 48.3438 39.505 48.1305 39.505 47.9477C39.505 47.775 39.7386 43.8852 40.0128 39.3047C40.2972 34.7242 40.5206 30.7633 40.5206 30.5195V30.0625H39.7284H38.9362L38.3979 39.0406C38.1034 43.9766 37.8901 48.2016 37.9307 48.4352C38.012 48.9023 38.4081 49.5422 38.8143 49.857C39.4339 50.3445 39.6979 50.375 43.6081 50.375C47.0815 50.375 47.2948 50.3547 47.7315 50.1617C48.5643 49.7859 49.1026 49.075 49.2042 48.2219C49.2347 47.9781 49.4886 43.9664 49.7628 39.3047C50.037 34.643 50.2909 30.4688 50.3315 30.032L50.3925 29.25H49.58H48.7675L48.7065 29.9813Z"></path>
                <path d="M44.9917 38.2992C44.9917 38.3805 44.8089 40.1781 44.5855 42.3008C44.3722 44.4234 44.2199 46.1906 44.2605 46.2211C44.3011 46.2617 44.6566 46.3125 45.0628 46.3531L45.7839 46.4141L45.8449 45.9266C46.0277 44.4844 46.6167 38.3602 46.5761 38.3195C46.5558 38.2992 46.1902 38.2484 45.7636 38.218C45.1441 38.1672 44.9917 38.1875 44.9917 38.2992Z"></path>
              </svg>