<svg xmlns="http://www.w3.org/2000/svg" width="52" height="52" viewBox="0 0 52 52" fill="none"><g clip-path="url(#clip0_1559_904)"><path d="M17.8281 -0.0385767C17.9205 -0.0394338 18.013 -0.040291 18.1082 -0.0411742C18.2094 -0.0405638 18.3106 -0.0399534 18.4148 -0.0393245C18.5226 -0.0398715 18.6304 -0.0404184 18.7414 -0.040982C19.1039 -0.0424391 19.4663 -0.0417091 19.8287 -0.0409874C20.0882 -0.0415663 20.3476 -0.0422735 20.607 -0.0430996C21.2396 -0.044737 21.8721 -0.04493 22.5047 -0.0443983C23.0195 -0.0439877 23.5343 -0.0441345 24.0491 -0.0446774C24.159 -0.0447915 24.159 -0.0447915 24.2712 -0.0449078C24.4201 -0.0450633 24.569 -0.0452196 24.718 -0.0453765C26.1156 -0.0467717 27.5133 -0.0462176 28.911 -0.045053C30.1866 -0.0440468 31.4621 -0.0453538 32.7376 -0.0477885C34.0491 -0.0502728 35.3606 -0.0512396 36.672 -0.0505659C37.4076 -0.0502125 38.1431 -0.0504298 38.8787 -0.0522164C39.5717 -0.0538788 40.2646 -0.0533775 40.9576 -0.0514745C41.2109 -0.0511021 41.4642 -0.0514103 41.7175 -0.0524785C44.6999 -0.0640882 47.2018 0.592472 49.3849 2.7105C51.635 4.99582 52.0646 7.73581 52.0533 10.8181C52.0524 11.1935 52.0538 11.5688 52.0549 11.9442C52.0567 12.6768 52.0563 13.4095 52.0551 14.1421C52.0542 14.7374 52.0541 15.3327 52.0545 15.928C52.0546 16.0131 52.0547 16.0981 52.0547 16.1857C52.0549 16.3585 52.055 16.5312 52.0551 16.704C52.0563 18.3191 52.055 19.9341 52.0528 21.5492C52.051 22.9347 52.0513 24.3201 52.0531 25.7056C52.0553 27.3172 52.0562 28.9287 52.0549 30.5403C52.0548 30.712 52.0547 30.8837 52.0545 31.0555C52.0545 31.1399 52.0544 31.2244 52.0544 31.3115C52.054 31.9066 52.0546 32.5017 52.0556 33.0969C52.0567 33.8213 52.0564 34.5456 52.0542 35.27C52.0532 35.6395 52.0527 36.009 52.0541 36.3785C52.0555 36.7788 52.0538 37.179 52.0518 37.5792C52.0527 37.6963 52.0536 37.8134 52.0545 37.934C52.0468 38.7191 52.0468 38.7191 51.8065 39.1206C51.4304 39.4464 51.1223 39.4204 50.6454 39.4185C50.5288 39.4186 50.5288 39.4186 50.4098 39.4188C50.148 39.4189 49.8862 39.4184 49.6243 39.4178C49.4372 39.4178 49.25 39.4178 49.0629 39.4179C48.5536 39.4179 48.0444 39.4173 47.5351 39.4166C47.0034 39.416 46.4716 39.4159 45.9399 39.4158C44.9324 39.4155 43.9249 39.4146 42.9174 39.4136C41.7706 39.4125 40.6239 39.4119 39.4771 39.4114C37.1176 39.4103 34.7581 39.4085 32.3986 39.4063C32.3986 40.7804 32.3986 42.1546 32.3986 43.5704C32.7226 43.5645 33.0467 43.5586 33.3805 43.5525C33.6948 43.5485 34.0091 43.5455 34.3234 43.5425C34.5416 43.5399 34.7598 43.5365 34.978 43.5321C35.2919 43.5259 35.6056 43.523 35.9196 43.5208C36.0169 43.5182 36.1143 43.5155 36.2146 43.5128C36.6536 43.5126 36.8959 43.5214 37.2668 43.77C37.534 44.1622 37.6786 44.5461 37.8231 44.9958C37.8679 45.129 37.8679 45.129 37.9136 45.265C38.0085 45.5481 38.1013 45.8319 38.194 46.1158C38.2566 46.3038 38.3194 46.4918 38.3823 46.6797C38.5025 47.0397 38.6217 47.4 38.74 47.7607C38.8359 48.0531 38.9331 48.345 39.0331 48.6361C39.0703 48.7448 39.1075 48.8535 39.1458 48.9655C39.1928 49.1011 39.1928 49.1011 39.2408 49.2394C39.3049 49.461 39.3049 49.461 39.3049 49.7657C39.3648 49.7645 39.4248 49.7634 39.4865 49.7623C40.1109 49.751 40.7353 49.7434 41.3598 49.7378C41.5928 49.7352 41.8258 49.7318 42.0587 49.7274C42.3938 49.7212 42.7288 49.7183 43.0639 49.7161C43.1679 49.7135 43.2719 49.7108 43.3791 49.7081C44.1067 49.7079 44.1067 49.7079 44.4972 50.0163C44.56 50.1012 44.6229 50.1861 44.6877 50.2735C44.7212 50.307 44.7547 50.3405 44.7892 50.3751C44.8455 50.8733 44.8645 51.2677 44.5988 51.7017C44.253 52.017 44.0518 52.013 43.5916 52.014C43.4656 52.0145 43.3396 52.015 43.2097 52.0155C43.0685 52.0156 42.9274 52.0156 42.7862 52.0157C42.6373 52.0161 42.4883 52.0165 42.3394 52.017C41.9286 52.0183 41.5178 52.0188 41.107 52.0193C40.6645 52.0199 40.222 52.0211 39.7796 52.0222C38.7103 52.0247 37.6411 52.0261 36.5718 52.0274C36.27 52.0278 35.9681 52.0282 35.6663 52.0286C33.7932 52.0312 31.9201 52.0334 30.0469 52.0347C29.6129 52.035 29.1789 52.0353 28.7448 52.0356C28.6369 52.0357 28.5291 52.0358 28.4179 52.0358C26.6693 52.0371 24.9207 52.0405 23.1721 52.0447C21.3782 52.049 19.5843 52.0514 17.7904 52.052C16.7826 52.0523 15.7748 52.0535 14.7671 52.0568C13.909 52.0597 13.051 52.0608 12.193 52.0597C11.755 52.0591 11.317 52.0594 10.879 52.062C10.4782 52.0642 10.0775 52.0642 9.67676 52.0622C9.53159 52.062 9.38641 52.0625 9.24125 52.0641C8.01952 52.076 8.01952 52.076 7.68654 51.755C7.40895 51.3278 7.34373 50.9834 7.41424 50.4766C7.71893 49.918 7.71893 49.918 8.02362 49.7657C8.18026 49.7565 8.33728 49.7537 8.49419 49.7541C8.59177 49.7542 8.68936 49.7542 8.7899 49.7542C8.89549 49.7547 9.00107 49.7552 9.10986 49.7558C9.21778 49.7559 9.3257 49.756 9.43689 49.7562C9.78253 49.7568 10.1282 49.758 10.4738 49.7593C10.7078 49.7598 10.9417 49.7603 11.1756 49.7607C11.75 49.7618 12.3243 49.7635 12.8986 49.7657C12.9251 49.6369 12.9515 49.5082 12.9788 49.3756C13.0999 48.8317 13.2675 48.3085 13.4441 47.7804C13.4769 47.6815 13.5097 47.5826 13.5435 47.4806C13.6125 47.273 13.6818 47.0654 13.7512 46.8579C13.8572 46.5408 13.962 46.2234 14.0668 45.9059C14.1342 45.7034 14.2017 45.501 14.2693 45.2985C14.3004 45.204 14.3315 45.1095 14.3636 45.0122C14.7378 43.9015 14.7378 43.9015 15.2346 43.5704C15.4447 43.5459 15.4447 43.5459 15.6887 43.5473C15.7802 43.5473 15.8716 43.5473 15.9659 43.5473C16.0643 43.5484 16.1627 43.5494 16.2641 43.5505C16.4156 43.551 16.4156 43.551 16.5702 43.5514C16.893 43.5525 17.2159 43.5551 17.5388 43.5577C17.7576 43.5587 17.9763 43.5596 18.1951 43.5604C18.7317 43.5625 19.2683 43.5665 19.8049 43.5704C19.8049 42.1962 19.8049 40.8221 19.8049 39.4063C19.226 39.4084 18.6472 39.4106 18.0509 39.4127C16.1415 39.4195 14.2322 39.424 12.3229 39.4273C11.1649 39.4294 10.007 39.4323 8.84899 39.4369C7.83983 39.441 6.83067 39.4436 5.82151 39.4445C5.28704 39.4451 4.7526 39.4463 4.21814 39.4493C3.71522 39.452 3.21233 39.4529 2.7094 39.4522C2.52471 39.4524 2.34002 39.4532 2.15533 39.4547C1.9033 39.4567 1.65139 39.4563 1.39935 39.4552C1.32614 39.4563 1.25293 39.4575 1.1775 39.4587C0.690424 39.4529 0.443779 39.3451 0.101742 39.0001C-0.0156407 38.7653 -0.0128453 38.6317 -0.0134536 38.3705C-0.0139063 38.2805 -0.0143586 38.1906 -0.0148251 38.0979C-0.0148064 37.9985 -0.0147871 37.899 -0.0147678 37.7966C-0.0151412 37.6914 -0.0155143 37.5862 -0.0158991 37.4779C-0.0170235 37.1232 -0.0174112 36.7685 -0.0177975 36.4139C-0.0184335 36.1605 -0.0191085 35.9071 -0.0198199 35.6538C-0.0217751 34.8918 -0.0228495 34.1298 -0.023753 33.3679C-0.024198 33.0092 -0.0247442 32.6506 -0.0252764 32.2919C-0.0270043 31.1 -0.0284757 29.908 -0.0292112 28.7161C-0.0294051 28.4067 -0.0295999 28.0973 -0.0297985 27.7879C-0.0298476 27.711 -0.0298967 27.6341 -0.0299473 27.5549C-0.0307906 26.3087 -0.0333644 25.0625 -0.0366622 23.8163C-0.040019 22.5375 -0.0418499 21.2586 -0.0421746 19.9798C-0.0423947 19.2615 -0.0432866 18.5433 -0.0458784 17.825C-0.0483102 17.1495 -0.0486763 16.4741 -0.0476296 15.7986C-0.0475791 15.5504 -0.0482259 15.3021 -0.0496148 15.0539C-0.051402 14.7156 -0.0506987 14.3774 -0.0493575 14.0391C-0.0504716 13.9403 -0.0515866 13.8416 -0.0527344 13.7398C-0.0485454 13.3037 -0.0402425 13.0653 0.193705 12.6876C0.701207 12.2216 1.45154 12.3461 2.10448 12.3734C4.13792 12.5253 5.75101 13.7228 7.03973 15.209C8.13299 16.6439 8.4739 18.2755 8.48184 20.0475C8.48355 20.1938 8.4854 20.3401 8.48736 20.4863C8.49214 20.867 8.4952 21.2477 8.49787 21.6283C8.50092 22.0185 8.50564 22.4087 8.5102 22.7988C8.51889 23.5612 8.52575 24.3236 8.53143 25.086C8.6538 25.0367 8.77617 24.9874 8.90225 24.9366C9.53811 24.726 10.1605 24.7338 10.8249 24.7337C10.956 24.7329 11.0871 24.7321 11.2221 24.7314C11.4984 24.73 11.7747 24.7298 12.051 24.7304C12.4017 24.731 12.7523 24.7279 13.1029 24.7238C13.4417 24.7205 13.7805 24.721 14.1194 24.721C14.3056 24.7185 14.3056 24.7185 14.4955 24.716C15.726 24.7257 16.7879 25.1295 17.6721 26C18.5416 26.9939 18.8315 28.0456 18.8432 29.3484C18.7892 29.7579 18.7892 29.7579 18.383 30.9766C26.6949 30.9766 35.0067 30.9766 43.5705 30.9766C43.5705 25.5806 43.5705 20.1846 43.5705 14.6251C41.4925 14.6251 39.4146 14.6251 37.2736 14.6251C35.1868 14.0686 33.4785 13.253 32.2971 11.375C32.146 11.1141 32.0039 10.8494 31.8654 10.5816C31.8319 10.5179 31.7985 10.4542 31.764 10.3885C31.5586 9.973 31.43 9.56376 31.3208 9.11303C31.2942 9.0039 31.2675 8.89478 31.2401 8.78235C31.2202 8.6995 31.2003 8.61666 31.1799 8.5313C31.1092 8.53124 31.0386 8.53119 30.9659 8.53113C29.2468 8.52961 27.5277 8.5253 25.8087 8.51788C24.9773 8.51437 24.146 8.51179 23.3147 8.51144C22.59 8.51113 21.8654 8.50905 21.1407 8.50484C20.7571 8.50267 20.3735 8.50139 19.9898 8.50224C19.6285 8.503 19.2673 8.50139 18.906 8.49798C18.7106 8.49675 18.5151 8.49802 18.3197 8.49936C17.361 8.48665 17.361 8.48665 16.9855 8.19069C16.6411 7.78376 16.6431 7.48308 16.6401 6.96606C16.6396 6.90046 16.6391 6.83486 16.6385 6.76727C16.6371 6.55045 16.6364 6.33364 16.6358 6.11681C16.6352 5.9659 16.6346 5.81499 16.634 5.66408C16.633 5.34767 16.6324 5.03127 16.632 4.71487C16.6315 4.30994 16.629 3.90505 16.6261 3.50013C16.6243 3.18838 16.6237 2.87664 16.6236 2.56488C16.6233 2.41563 16.6224 2.26638 16.6211 2.11713C16.6194 1.90806 16.6196 1.69908 16.6202 1.49001C16.6197 1.31176 16.6197 1.31176 16.6191 1.1299C16.6708 0.690729 16.8168 0.432761 17.1464 0.140394C17.3997 -0.0205175 17.5309 -0.0381871 17.8281 -0.0385767ZM18.9924 2.23442C18.9924 3.54153 18.9924 4.84864 18.9924 6.19536C23.0142 6.19536 27.0361 6.19536 31.1799 6.19536C31.1799 4.88825 31.1799 3.58114 31.1799 2.23442C27.158 2.23442 23.1361 2.23442 18.9924 2.23442ZM33.5158 2.23442C33.504 3.00613 33.495 3.77782 33.4895 4.5496C33.4869 4.90811 33.4833 5.26656 33.4775 5.62504C33.4708 6.03878 33.4684 6.45245 33.4662 6.86623C33.4636 6.99271 33.461 7.11919 33.4583 7.2495C33.4578 8.68025 33.9947 9.89366 34.9631 10.9371C36.3565 12.2571 38.0007 12.4042 39.8256 12.4047C40.197 12.4051 40.5683 12.4083 40.9396 12.4109C41.4094 12.414 41.8792 12.4163 42.3491 12.4161C42.7316 12.416 43.114 12.4184 43.4965 12.4224C43.6415 12.4235 43.7865 12.4236 43.9315 12.4228C44.1339 12.4219 44.3363 12.4243 44.5386 12.4269C44.6535 12.4272 44.7684 12.4276 44.8868 12.428C45.298 12.5136 45.4479 12.672 45.7033 13C45.8182 13.4097 45.8188 13.8084 45.8209 14.2321C45.8217 14.3398 45.8217 14.3398 45.8225 14.4496C45.824 14.6894 45.8249 14.9293 45.8257 15.1691C45.8267 15.3413 45.8277 15.5134 45.8288 15.6856C45.8315 16.1527 45.8337 16.6197 45.8357 17.0868C45.8379 17.575 45.8407 18.0633 45.8434 18.5515C45.8485 19.4759 45.853 20.4003 45.8574 21.3247C45.8624 22.3772 45.868 23.4296 45.8736 24.4821C45.8852 26.6469 45.896 28.8118 45.9064 30.9766C47.18 30.9766 48.4536 30.9766 49.7658 30.9766C49.7705 28.1841 49.7741 25.3916 49.7763 22.5991C49.7774 21.3024 49.7788 20.0056 49.7811 18.7089C49.7832 17.5782 49.7845 16.4474 49.7849 15.3166C49.7852 14.7184 49.7858 14.1202 49.7873 13.5219C49.7887 12.9577 49.7891 12.3936 49.7888 11.8294C49.7888 11.6234 49.7892 11.4174 49.79 11.2114C49.7998 8.51509 49.5011 6.27499 47.5314 4.26567C47.4639 4.19445 47.3963 4.12323 47.3267 4.04985C45.8409 2.5981 43.7979 2.21406 41.7943 2.22289C41.704 2.22288 41.6137 2.22286 41.5207 2.22285C41.2261 2.22292 40.9316 2.22371 40.6371 2.22451C40.4313 2.2247 40.2256 2.22484 40.0198 2.22494C39.4812 2.22533 38.9426 2.22632 38.4039 2.22745C37.8531 2.22849 37.3023 2.22895 36.7515 2.22947C35.673 2.23055 34.5944 2.23228 33.5158 2.23442ZM2.23455 14.8282C2.23455 20.1572 2.23455 25.4861 2.23455 30.9766C3.50815 30.9766 4.78174 30.9766 6.09393 30.9766C6.10082 29.4051 6.10643 27.8336 6.10972 26.2621C6.11128 25.5323 6.11342 24.8026 6.11692 24.0728C6.11996 23.4364 6.12192 22.7999 6.1226 22.1635C6.12299 21.8269 6.12408 21.4902 6.12614 21.1536C6.12836 20.7768 6.12866 20.4 6.12852 20.0232C6.12961 19.9129 6.13071 19.8026 6.13184 19.6889C6.12597 18.2329 5.59768 17.1312 4.61016 16.0767C4.01047 15.5015 3.09719 14.8282 2.23455 14.8282ZM8.83612 27.8282C8.45684 28.3592 8.44987 28.9251 8.53143 29.5547C8.71032 30.0955 9.07845 30.464 9.54705 30.7735C10.1587 30.9734 10.772 31.0068 11.4105 31.0036C11.4974 31.0038 11.5844 31.004 11.674 31.0042C11.8564 31.0043 12.0387 31.0039 12.2211 31.0031C12.4984 31.002 12.7755 31.0031 13.0527 31.0044C13.2311 31.0042 13.4094 31.004 13.5877 31.0036C13.6695 31.004 13.7513 31.0044 13.8356 31.0048C14.6649 30.9981 15.4395 30.8717 16.0471 30.2657C16.3896 29.8029 16.5213 29.3399 16.4926 28.7664C16.404 28.2537 16.1795 27.8666 15.8249 27.4917C15.1276 27.0733 14.4368 26.9694 13.6349 26.9752C13.4981 26.9748 13.4981 26.9748 13.3585 26.9743C13.167 26.9741 12.9755 26.9747 12.784 26.976C12.4931 26.9776 12.2024 26.976 11.9116 26.974C11.7243 26.9742 11.537 26.9746 11.3498 26.9752C11.2641 26.9746 11.1783 26.974 11.09 26.9733C10.2053 26.9837 9.4631 27.1863 8.83612 27.8282ZM2.23455 33.211C2.23455 34.5181 2.23455 35.8252 2.23455 37.1719C17.9199 37.1719 33.6052 37.1719 49.7658 37.1719C49.7658 35.8648 49.7658 34.5577 49.7658 33.211C34.0805 33.211 18.3952 33.211 2.23455 33.211ZM22.1408 39.4063C22.1408 40.7804 22.1408 42.1546 22.1408 43.5704C24.755 43.5704 27.3692 43.5704 30.0627 43.5704C30.0627 42.1962 30.0627 40.8221 30.0627 39.4063C27.4485 39.4063 24.8342 39.4063 22.1408 39.4063ZM16.6564 45.8047C16.5913 45.9664 16.5264 46.1281 16.4614 46.2898C16.4252 46.3799 16.389 46.4699 16.3517 46.5627C16.2282 46.8762 16.1173 47.1927 16.0106 47.5123C15.9706 47.6318 15.9307 47.7513 15.8896 47.8745C15.8494 47.9958 15.8092 48.1172 15.7678 48.2422C15.726 48.3667 15.6842 48.4912 15.6412 48.6195C15.5821 48.7973 15.5821 48.7973 15.5218 48.9786C15.4861 49.0859 15.4504 49.1933 15.4136 49.3039C15.3264 49.55 15.3264 49.55 15.3361 49.7657C22.4414 49.7657 29.5467 49.7657 36.8674 49.7657C36.6182 48.8477 36.6182 48.8477 36.3365 47.9431C36.2768 47.7636 36.2768 47.7636 36.2159 47.5805C36.1754 47.4595 36.1348 47.3386 36.093 47.2139C36.0309 47.0266 36.0309 47.0266 35.9676 46.8354C35.9281 46.7171 35.8885 46.5987 35.8478 46.4768C35.794 46.3159 35.794 46.3159 35.7392 46.1518C35.6712 45.9147 35.6712 45.9147 35.5471 45.8047C35.303 45.7948 35.0618 45.7915 34.8177 45.7925C34.7405 45.7924 34.6632 45.7924 34.5837 45.7923C34.3229 45.7921 34.0622 45.7927 33.8014 45.7932C33.6153 45.7932 33.4292 45.7932 33.243 45.7932C32.7361 45.7931 32.2291 45.7937 31.7222 45.7944C31.193 45.7951 30.6638 45.7951 30.1347 45.7953C29.1318 45.7956 28.129 45.7964 27.1262 45.7974C25.9848 45.7986 24.8435 45.7991 23.7021 45.7996C21.3535 45.8007 19.005 45.8025 16.6564 45.8047Z" fill="black"></path><path d="M19.9057 16.8593C20.2333 17.0268 20.4686 17.2246 20.744 17.4675C22.1095 18.6458 23.7806 19.3771 25.5932 19.4999C25.6636 19.5052 25.7341 19.5104 25.8066 19.5158C27.8317 19.5971 29.9406 18.849 31.433 17.4877C31.5116 17.4117 31.5901 17.3356 31.6711 17.2572C32.0603 16.911 32.3727 16.8084 32.9021 16.8193C33.2731 16.8912 33.458 17.1006 33.7182 17.3671C33.8996 17.73 33.8928 18.0897 33.8198 18.4843C32.9665 20.043 30.7042 21.0347 29.0904 21.5352C26.2791 22.3219 23.3343 21.9454 20.7967 20.52C18.6792 19.2735 18.6792 19.2735 18.3823 18.3828C18.314 17.6889 18.314 17.6889 18.4886 17.3854C18.9087 16.8738 19.2578 16.776 19.9057 16.8593Z" fill="#1198DE"></path><path d="M24.3755 12.4922C24.6276 12.6278 24.85 12.7831 25.0809 12.952C25.5368 13.2788 25.9449 13.3531 26.4992 13.2658C26.8857 13.1517 27.1985 12.927 27.5239 12.6953C27.9324 12.423 28.2625 12.4096 28.7427 12.4922C29.0547 12.666 29.2916 12.8791 29.4536 13.2031C29.4915 13.6576 29.4988 13.9174 29.3076 14.333C28.5706 15.1599 27.5488 15.6181 26.4575 15.7295C25.2409 15.785 24.1598 15.4233 23.1948 14.6631C22.8494 14.3176 22.7631 14.1543 22.7188 13.6665C22.7604 13.1921 22.9084 12.9606 23.2202 12.6128C23.6068 12.4195 23.9535 12.4063 24.3755 12.4922Z" fill="#1198DE"></path><path d="M38.7969 6.50003C39.0837 6.72248 39.2453 6.88903 39.4063 7.21097C39.4626 7.68142 39.4709 8.02161 39.2158 8.42972C38.8385 8.78481 38.5347 8.76811 38.0336 8.76376C37.6795 8.72256 37.507 8.59184 37.2734 8.32816C37.1363 7.91676 37.1153 7.53956 37.1719 7.10941C37.5836 6.45062 38.0584 6.39321 38.7969 6.50003Z" fill="black"></path></g><defs><clipPath id="clip0_1559_904"><rect width="52" height="52" fill="white"></rect></clipPath></defs></svg>