<svg xmlns="http://www.w3.org/2000/svg" width="52" height="52" viewBox="0 0 52 52" fill="none"><g clip-path="url(#clip0_1559_921)"><path d="M37.6803 0.406265C37.8026 0.459681 37.8026 0.459681 37.9275 0.514176C38.5788 0.839301 39.0942 1.32116 39.61 1.82814C39.6982 1.91435 39.6982 1.91435 39.7881 2.0023C40.8342 3.11938 41.2028 4.66199 41.1616 6.15446C41.0509 7.51272 40.4902 8.83335 39.5374 9.81548C39.3952 9.93381 39.3952 9.93381 39.4069 10.0547C39.498 10.0758 39.5891 10.0969 39.683 10.1186C42.4002 10.7895 44.5246 12.1959 46.0084 14.625C47.0919 16.5174 47.3608 18.4724 47.3566 20.6188C47.3571 20.763 47.3576 20.9072 47.3582 21.0513C47.3595 21.4372 47.3596 21.823 47.3594 22.2088C47.3593 22.5325 47.3598 22.8561 47.3602 23.1797C47.3614 23.9428 47.3614 24.706 47.3608 25.4692C47.3602 26.2546 47.3614 27.04 47.3636 27.8255C47.3654 28.5028 47.366 29.1802 47.3657 29.8576C47.3655 30.2609 47.3657 30.6642 47.3672 31.0675C47.3684 31.4459 47.3682 31.8243 47.3669 32.2027C47.3666 32.4069 47.3677 32.6111 47.3689 32.8154C47.3646 33.5559 47.3521 34.1401 46.859 34.728C46.5927 34.8472 46.4345 34.8471 46.1457 34.8427C46.0217 34.8412 46.0217 34.8412 45.8952 34.8397C45.832 34.8385 45.7688 34.8372 45.7037 34.836C45.7041 34.9208 45.7045 35.0057 45.7049 35.0931C45.7138 37.1571 45.7206 39.221 45.7248 41.285C45.7269 42.2832 45.7297 43.2813 45.7344 44.2794C45.7384 45.1493 45.7411 46.0192 45.742 46.8891C45.7425 47.3498 45.7437 47.8104 45.7467 48.2711C45.7494 48.7047 45.7503 49.1382 45.7497 49.5718C45.7498 49.7309 45.7506 49.89 45.7522 50.0492C45.7542 50.2665 45.7537 50.4837 45.7526 50.7011C45.753 50.8227 45.7533 50.9443 45.7537 51.0696C45.6937 51.4552 45.5679 51.6225 45.2975 51.8985C45.0382 52.0281 44.8548 52.0137 44.5644 52.015C44.452 52.0157 44.3397 52.0164 44.2239 52.0172C44.1001 52.0174 43.9763 52.0177 43.8487 52.018C43.7187 52.0187 43.5888 52.0193 43.4548 52.02C43.0977 52.0218 42.7405 52.0229 42.3834 52.0237C42.1603 52.0242 41.9372 52.0248 41.714 52.0255C41.0161 52.0274 40.3181 52.0289 39.6201 52.0297C38.8143 52.0307 38.0085 52.0334 37.2026 52.0375C36.5799 52.0405 35.9571 52.042 35.3344 52.0424C34.9623 52.0426 34.5904 52.0435 34.2184 52.0461C33.8033 52.0489 33.3883 52.0485 32.9732 52.0477C32.85 52.049 32.7268 52.0504 32.5998 52.0517C31.7669 52.0465 31.7669 52.0465 31.3602 51.8066C31.0509 51.4407 31.0662 51.2121 31.0665 50.7377C31.0664 50.6361 31.0664 50.6361 31.0663 50.5324C31.0661 50.3042 31.0667 50.0761 31.0672 49.8479C31.0672 49.6848 31.0672 49.5217 31.0672 49.3585C31.0671 48.9147 31.0677 48.471 31.0684 48.0272C31.0691 47.5637 31.0691 47.1003 31.0692 46.6369C31.0696 45.7589 31.0704 44.8808 31.0714 44.0028C31.0726 43.0034 31.0731 42.004 31.0736 41.0046C31.0747 38.9484 31.0765 36.8922 31.0787 34.836C30.9849 34.8388 30.9849 34.8388 30.8893 34.8418C30.8071 34.8432 30.725 34.8447 30.6403 34.8463C30.5183 34.8491 30.5183 34.8491 30.3938 34.8521C30.1647 34.836 30.1647 34.836 29.8663 34.6709C29.4838 34.2304 29.4283 33.7605 29.4307 33.1918C29.4307 33.0088 29.4307 33.0088 29.4307 32.8222C29.4318 32.6921 29.4328 32.5619 29.4339 32.4278C29.4343 32.2921 29.4346 32.1563 29.4348 32.0206C29.4355 31.6649 29.4375 31.3093 29.4398 30.9537C29.4419 30.5901 29.4428 30.2265 29.4438 29.863C29.446 29.1508 29.4495 28.4387 29.4537 27.7266C29.396 27.7105 29.3383 27.6944 29.2788 27.6778C28.8727 27.5551 28.5332 27.4388 28.2004 27.1713C27.7387 26.8175 27.2107 26.7034 26.6556 26.557C26.5444 26.5264 26.4332 26.4958 26.3186 26.4643C25.9654 26.3674 25.6117 26.2725 25.2579 26.1778C24.9025 26.0811 24.5472 25.984 24.1919 25.8869C23.9712 25.8267 23.7505 25.7669 23.5296 25.7075C23.4303 25.6807 23.3309 25.6538 23.2285 25.6262C23.0971 25.5909 23.0971 25.5909 22.963 25.555C22.7506 25.4922 22.7506 25.4922 22.5475 25.3906C22.5479 25.4827 22.5482 25.5748 22.5486 25.6697C22.5576 27.91 22.5643 30.1503 22.5685 32.3906C22.5706 33.474 22.5735 34.5574 22.5781 35.6408C22.5822 36.5851 22.5848 37.5293 22.5857 38.4736C22.5862 38.9736 22.5875 39.4736 22.5904 39.9736C22.5932 40.4443 22.594 40.9149 22.5934 41.3855C22.5935 41.5582 22.5944 41.7309 22.5959 41.9036C22.5979 42.1396 22.5974 42.3755 22.5963 42.6115C22.5967 42.7435 22.5971 42.8755 22.5975 43.0115C22.5384 43.4322 22.4071 43.6488 22.1412 43.9766C21.8158 44.1935 21.733 44.2032 21.3605 44.1924C21.2784 44.1906 21.1963 44.1887 21.1117 44.1868C21.018 44.1833 21.018 44.1833 20.9225 44.1797C20.9143 44.2416 20.906 44.3035 20.8975 44.3672C20.8105 45.0215 20.7231 45.6758 20.6355 46.3301C20.603 46.573 20.5706 46.816 20.5383 47.059C20.4459 47.7534 20.3519 48.4475 20.2555 49.1414C20.2271 49.3481 20.1992 49.555 20.1719 49.7619C20.1365 50.0304 20.0991 50.2985 20.0612 50.5666C20.0515 50.6438 20.0418 50.7209 20.0318 50.8004C19.9619 51.2739 19.8375 51.5573 19.5006 51.8985C19.2065 52.0455 18.9491 52.0154 18.6205 52.018C18.5162 52.019 18.5162 52.019 18.4098 52.02C18.1792 52.022 17.9487 52.0232 17.7181 52.0242C17.6 52.0248 17.6 52.0248 17.4795 52.0255C17.0627 52.0276 16.646 52.029 16.2292 52.03C15.7989 52.0311 15.3686 52.0346 14.9383 52.0386C14.6073 52.0413 14.2763 52.0422 13.9453 52.0425C13.7867 52.043 13.6281 52.0442 13.4695 52.0461C13.2472 52.0485 13.0251 52.0485 12.8029 52.0477C12.6766 52.0483 12.5502 52.0489 12.42 52.0496C12.0184 51.9899 11.8577 51.8854 11.5787 51.5938C11.3774 51.2162 11.3253 50.8376 11.2686 50.4162C11.2597 50.3511 11.2507 50.2859 11.2415 50.2188C11.2123 50.005 11.1841 49.7911 11.1558 49.5772C11.1357 49.4281 11.1155 49.279 11.0952 49.13C11.053 48.8183 11.0112 48.5067 10.9698 48.1949C10.9166 47.7949 10.8627 47.395 10.8086 46.9951C10.7569 46.6138 10.7056 46.2325 10.6544 45.8511C10.6445 45.7782 10.6347 45.7053 10.6246 45.6302C10.597 45.4245 10.5696 45.2188 10.5422 45.0132C10.5266 44.8961 10.511 44.779 10.4949 44.6583C10.4615 44.3828 10.4615 44.3828 10.4615 44.1797C10.4006 44.1806 10.3396 44.1815 10.2767 44.1824C9.64075 44.1914 9.00481 44.1976 8.3688 44.202C8.13158 44.2041 7.89437 44.2068 7.65717 44.2104C7.31581 44.2153 6.97451 44.2176 6.63311 44.2194C6.47455 44.2225 6.47455 44.2225 6.31278 44.2257C5.72243 44.2259 5.32069 44.206 4.87561 43.7735C4.65276 43.2649 4.64373 42.8043 4.64669 42.2601C4.64637 42.1702 4.64605 42.0802 4.64573 41.9876C4.64492 41.6868 4.64556 41.3861 4.6462 41.0854C4.64592 40.8694 4.64556 40.6535 4.64512 40.4376C4.64419 39.851 4.64455 39.2644 4.6452 38.6778C4.64571 38.0625 4.64523 37.4471 4.64492 36.8317C4.64455 35.7967 4.64503 34.7618 4.646 33.7268C4.6471 32.5346 4.64675 31.3424 4.64563 30.1501C4.6447 29.1241 4.64458 28.0981 4.64511 27.0721C4.64542 26.4605 4.64547 25.8488 4.6448 25.2372C4.6442 24.6605 4.64463 24.0838 4.64579 23.5071C4.64606 23.297 4.64599 23.0869 4.64554 22.8768C4.64354 21.855 4.66302 20.8431 4.7622 19.8255C4.76996 19.7455 4.77772 19.6654 4.78572 19.583C5.09395 16.7484 6.41359 14.1645 8.32873 12.086C8.46011 11.942 8.46011 11.942 8.59414 11.7952C10.1895 10.1241 12.1538 9.07189 14.3209 8.32814C14.3209 7.95611 14.2738 7.73756 14.1686 7.38869C13.7547 5.77252 14.0473 4.22019 14.8347 2.76878C15.6618 1.37915 16.9695 0.557335 18.5112 0.141251C20.2063 -0.100226 21.8509 0.0912945 23.2584 1.1172C24.4745 2.0714 25.3708 3.31008 25.5944 4.87502C25.6994 6.43153 25.5583 7.8088 24.6803 9.14064C24.6316 9.21553 24.5829 9.29041 24.5327 9.36757C24.033 10.0711 23.3232 10.6825 22.5475 11.0703C22.6105 11.5003 22.7613 11.8344 22.9601 12.2193C23.0157 12.3278 23.0714 12.4363 23.1287 12.5481C23.1715 12.6302 23.2143 12.7123 23.2584 12.7969C23.6938 12.7295 24.0749 12.5779 24.4756 12.4021C24.5793 12.3574 24.5793 12.3574 24.6852 12.3117C24.8345 12.2472 24.9836 12.1825 25.1327 12.1176C25.368 12.0152 25.6035 11.9134 25.8391 11.8118C26.1669 11.6704 26.4947 11.5288 26.8224 11.3871C27.5421 11.0762 28.2628 10.7675 28.9841 10.4604C29.2039 10.3667 29.4235 10.2726 29.6431 10.1784C29.7769 10.1214 29.9107 10.0644 30.0445 10.0075C30.1612 9.95762 30.2779 9.90775 30.3982 9.85636C30.6725 9.75002 30.6725 9.75002 30.8756 9.75002C30.7287 9.50245 30.5808 9.25711 30.4221 9.01686C29.5388 7.64851 29.2842 6.08163 29.5771 4.48503C29.9642 2.927 30.8989 1.58345 32.2657 0.736344C33.9261 -0.166123 35.9203 -0.363584 37.6803 0.406265ZM32.8803 3.25438C32.209 3.95543 31.8412 4.75173 31.7802 5.72441C31.8161 6.73443 32.1795 7.57492 32.8727 8.30235C33.6858 9.04675 34.5188 9.28374 35.6038 9.26918C36.5272 9.19799 37.1973 8.82705 37.8596 8.19008C38.5046 7.42784 38.8406 6.53908 38.8257 5.54469C38.7226 4.58099 38.3236 3.69121 37.568 3.07585C36.0372 1.99819 34.3068 1.96586 32.8803 3.25438ZM18.0787 2.84377C18.0082 2.88684 17.9376 2.92991 17.8649 2.97429C17.1314 3.46834 16.6464 4.18558 16.4002 5.03331C16.2243 5.94153 16.3145 6.80102 16.7584 7.6172C17.3995 8.51477 18.2007 9.13575 19.2975 9.34377C20.3653 9.45256 21.3254 9.18888 22.1635 8.50706C22.4928 8.18135 22.7302 7.8179 22.9537 7.41408C23.0058 7.32217 23.0058 7.32217 23.0589 7.22841C23.3966 6.50583 23.3836 5.56487 23.1882 4.80519C23.0929 4.57542 22.9853 4.37409 22.8522 4.16408C22.8079 4.09338 22.7637 4.02268 22.7181 3.94984C22.2204 3.22648 21.5012 2.60272 20.6178 2.43752C19.7127 2.36107 18.8684 2.3358 18.0787 2.84377ZM10.2775 13.438C7.6515 16.1064 6.98983 19.3528 6.99689 22.9693C6.99692 23.1756 6.9969 23.3819 6.99684 23.5881C6.99681 24.1454 6.99741 24.7026 6.99812 25.2599C6.99876 25.8433 6.99882 26.4267 6.99894 27.0101C6.99925 28.1136 7.00008 29.2171 7.0011 30.3206C7.00245 31.8126 7.003 33.3047 7.00359 34.7967C7.00455 37.1457 7.00657 39.4947 7.00842 41.8438C11.3655 41.8438 15.7225 41.8438 20.2115 41.8438C20.2441 38.7351 20.2441 38.7351 20.2661 35.6264C20.2727 34.3582 20.2805 33.0899 20.2958 31.8217C20.307 30.898 20.3142 29.9743 20.3167 29.0504C20.3181 28.5616 20.3215 28.073 20.3297 27.5842C20.3373 27.1233 20.3396 26.6626 20.3379 26.2015C20.3382 26.0332 20.3404 25.8649 20.3447 25.6966C20.37 24.6582 20.2403 24.0338 19.5123 23.2643C19.3742 23.1255 19.2344 22.9885 19.0944 22.8516C18.9893 22.7262 18.8862 22.599 18.7873 22.4687C18.3033 21.8425 17.8116 21.2236 17.3107 20.6109C16.7404 19.912 16.1857 19.2035 15.6412 18.4844C15.5767 18.3994 15.5767 18.3994 15.5109 18.3127C14.5762 17.0806 14.5762 17.0806 14.6256 16.3516C14.753 16.0649 14.8576 15.8983 15.108 15.7105C15.4413 15.6086 15.7004 15.6047 16.0475 15.6406C16.5302 15.9115 16.8459 16.2428 17.171 16.6817C17.2682 16.8091 17.3655 16.9365 17.463 17.0637C17.5135 17.13 17.5641 17.1963 17.6161 17.2646C17.8841 17.6111 18.1628 17.9489 18.4405 18.2876C18.9201 18.8745 19.3855 19.4697 19.845 20.0725C20.2062 20.5421 20.5827 20.9995 20.959 21.4571C21.0375 21.5529 21.0375 21.5529 21.1177 21.6507C21.192 21.7402 21.192 21.7402 21.2678 21.8315C21.4303 22.0391 21.4303 22.0391 21.5564 22.2418C21.9653 22.881 22.3957 23.0396 23.114 23.2197C23.2164 23.2479 23.3187 23.2761 23.4242 23.3051C23.7491 23.3937 24.075 23.4781 24.401 23.5625C24.6217 23.6222 24.8422 23.6821 25.0627 23.7422C25.4645 23.851 25.8665 23.9588 26.2693 24.0636C26.35 24.0846 26.4307 24.1056 26.5139 24.1272C26.7108 24.1793 26.7108 24.1793 26.9147 24.1719C26.9369 24.086 26.9592 24.0001 26.9821 23.9116C27.2738 22.8682 27.6775 22.2828 28.4381 21.5313C28.1717 21.3891 27.9051 21.2474 27.6383 21.106C27.5542 21.0613 27.4701 21.0166 27.3834 20.9706C26.8618 20.6957 26.3368 20.43 25.8066 20.1721C25.6883 20.1142 25.57 20.0564 25.4481 19.9968C25.2142 19.8828 24.9798 19.7699 24.7448 19.658C24.6367 19.6052 24.5286 19.5524 24.4173 19.498C24.321 19.4518 24.2248 19.4057 24.1257 19.3581C23.6053 19.0297 23.3652 18.536 23.1093 17.994C23.077 17.9272 23.0448 17.8604 23.0116 17.7915C22.9071 17.5742 22.8034 17.3565 22.6998 17.1387C22.6274 16.9878 22.555 16.8368 22.4825 16.686C22.3363 16.3815 22.1905 16.0769 22.045 15.7721C21.8565 15.3774 21.6668 14.9832 21.4767 14.5893C21.0429 13.6895 21.0429 13.6895 20.8769 13.3436C20.8333 13.2541 20.7897 13.1647 20.7448 13.0726C20.6557 12.8792 20.5741 12.6824 20.4981 12.4835C20.3856 12.1973 20.2769 11.938 20.11 11.6797C19.7559 11.5208 19.7559 11.5208 19.3546 11.5401C19.2096 11.5326 19.0647 11.5239 18.9198 11.5139C18.8471 11.5093 18.7745 11.5046 18.6996 11.4999C17.8324 11.4057 17.0152 10.9959 16.3288 10.4748C14.8546 9.52783 11.2555 12.4767 10.2775 13.438ZM31.2049 12.0518C31.114 12.0909 31.0231 12.1299 30.9294 12.1701C30.6356 12.2968 30.343 12.4262 30.0504 12.5557C29.8475 12.6437 29.6445 12.7316 29.4414 12.8192C29.0321 12.9961 28.6233 13.174 28.2149 13.3527C27.4404 13.6909 26.6621 14.0199 25.8835 14.3483C25.5376 14.4944 25.1921 14.6412 24.8465 14.7881C24.7352 14.8354 24.6239 14.8826 24.5092 14.9314C24.4316 14.9643 24.354 14.9973 24.274 15.0313C24.4139 15.3601 24.5563 15.6877 24.6993 16.0152C24.7584 16.1541 24.7584 16.1541 24.8186 16.2958C24.8582 16.3858 24.8978 16.4759 24.9386 16.5686C24.9742 16.651 25.0098 16.7335 25.0466 16.8184C25.4169 17.4571 25.9567 17.7361 26.5965 18.0472C26.7281 18.1127 26.7281 18.1127 26.8624 18.1795C27.1459 18.3202 27.4302 18.4595 27.7145 18.5986C27.9087 18.6946 28.1029 18.7907 28.2971 18.8868C28.8511 19.1605 29.4061 19.4323 29.9615 19.7031C30.0347 19.7388 30.1078 19.7745 30.1832 19.8113C31.7047 20.6503 31.7047 20.6503 33.3651 20.8652C33.439 20.8583 33.513 20.8513 33.5892 20.8442C33.8252 20.8221 34.0611 20.799 34.297 20.7759C34.4571 20.7607 34.6172 20.7456 34.7772 20.7305C35.1695 20.6934 35.5616 20.6555 35.9537 20.6172C36.1621 20.0954 36.3344 19.5667 36.4961 19.0287C36.5174 18.9583 36.5387 18.8879 36.5606 18.8153C36.6499 18.5202 36.739 18.225 36.8262 17.9293C36.8906 17.7114 36.9566 17.4941 37.0229 17.2767C37.0421 17.2103 37.0612 17.1439 37.081 17.0754C37.2069 16.6687 37.3506 16.4192 37.6803 16.1485C38.0636 15.9568 38.5358 15.9963 38.9371 16.1231C39.1902 16.3177 39.2893 16.5459 39.3349 16.8599C39.3362 17.4767 39.2114 18.0072 39.0272 18.5935C38.9986 18.6877 38.97 18.7819 38.9406 18.8789C38.8803 19.0767 38.8194 19.2743 38.7579 19.4717C38.6642 19.7728 38.5725 20.0744 38.4811 20.3762C38.422 20.5691 38.3629 20.762 38.3036 20.9548C38.2762 21.0443 38.2489 21.1338 38.2208 21.2261C37.8499 22.4118 37.8499 22.4118 37.5129 22.6802C37.1464 22.7873 36.7761 22.8191 36.3973 22.852C36.3087 22.8602 36.2201 22.8685 36.1289 22.877C35.4049 22.9429 34.68 22.9974 33.955 23.0511C33.8455 23.0593 33.736 23.0674 33.6231 23.0758C33.1717 23.1092 32.7203 23.1426 32.2687 23.174C31.9336 23.1975 31.5986 23.2225 31.2636 23.2479C31.162 23.2546 31.0605 23.2613 30.9559 23.2681C30.334 23.3169 29.8383 23.3999 29.3649 23.8418C29.1716 24.2284 29.1958 24.6019 29.3204 25.0098C29.5398 25.3023 29.7973 25.4616 30.1601 25.5292C30.4032 25.5535 30.6455 25.5689 30.8895 25.5815C30.9809 25.5873 31.0724 25.593 31.1666 25.599C31.4652 25.6176 31.7639 25.6343 32.0626 25.6509C32.2688 25.6633 32.4749 25.6759 32.681 25.6885C33.0978 25.7139 33.5146 25.7384 33.9315 25.7623C34.479 25.7936 35.0263 25.827 35.5737 25.8612C35.8802 25.8801 36.1867 25.8988 36.4933 25.9175C36.5644 25.9218 36.6354 25.9262 36.7086 25.9307C38.7493 26.0889 38.7493 26.0889 40.5268 25.1903C40.8499 24.8583 41.0416 24.4874 41.235 24.0703C41.2957 23.9551 41.3565 23.8399 41.4191 23.7212C41.5539 23.478 41.5539 23.478 41.5397 23.2578C42.0696 23.0326 42.4102 23.0318 42.9615 23.1563C43.2036 23.3487 43.3323 23.4914 43.4694 23.7656C43.5293 24.4493 43.3883 24.894 43.0631 25.4922C43.0138 25.5838 42.9644 25.6755 42.9135 25.7699C42.2512 26.9035 41.2535 27.6413 40.0027 28.0281C38.8996 28.3097 37.8266 28.2413 36.6992 28.1677C36.5905 28.161 36.4817 28.1542 36.3697 28.1472C36.0258 28.1258 35.6819 28.104 35.338 28.082C34.884 28.0531 34.4301 28.0246 33.976 27.9964C33.8737 27.9897 33.7714 27.983 33.6659 27.9762C33.519 27.967 33.519 27.967 33.369 27.9577C33.2844 27.9523 33.1998 27.9468 33.1127 27.9413C32.672 27.9247 32.2307 27.9297 31.7897 27.9297C31.7897 29.4379 31.7897 30.9461 31.7897 32.5C36.1467 32.5 40.5037 32.5 44.9928 32.5C44.997 30.3341 45.0012 28.1681 45.0055 25.9365C45.0073 25.2549 45.0092 24.5732 45.0111 23.8709C45.0118 23.2551 45.0118 23.2551 45.0122 22.6393C45.0125 22.367 45.0131 22.0946 45.0142 21.8222C45.0159 21.4075 45.0159 20.9928 45.0159 20.5781C45.017 20.3988 45.017 20.3988 45.0181 20.2159C45.0123 17.8745 44.3942 16.0062 42.7838 14.2886C41.6539 13.2128 40.2735 12.5724 38.7411 12.343C38.6579 12.3303 38.5746 12.3175 38.4888 12.3043C37.5716 12.1665 36.6515 12.054 35.7302 11.9476C35.4432 11.9143 35.1563 11.8798 34.8695 11.8453C34.6829 11.8235 34.4963 11.8018 34.3097 11.7801C34.226 11.7699 34.1423 11.7598 34.056 11.7493C33.0115 11.6311 32.1756 11.614 31.2049 12.0518ZM33.3131 34.836C33.3131 39.7628 33.3131 44.6895 33.3131 49.7656C34.5867 49.7656 35.8603 49.7656 37.1725 49.7656C37.1745 49.4709 37.1765 49.1762 37.1786 48.8726C37.1854 47.8981 37.1933 46.9235 37.2017 45.949C37.2068 45.3583 37.2115 44.7675 37.2153 44.1768C37.2191 43.6065 37.2238 43.0362 37.2292 42.4659C37.231 42.2485 37.2326 42.0311 37.2338 41.8137C37.2355 41.5088 37.2384 41.204 37.2417 40.8991C37.2419 40.8096 37.2421 40.72 37.2423 40.6277C37.2492 40.116 37.2993 39.6851 37.4772 39.2031C37.7701 38.9361 38.0126 38.8796 38.3976 38.8667C38.9414 38.9099 38.9414 38.9099 39.2037 39.1016C39.4126 39.4149 39.4325 39.4819 39.4351 39.8362C39.4363 39.9238 39.4374 40.0114 39.4386 40.1016C39.4388 40.1974 39.439 40.2931 39.4392 40.3918C39.4403 40.4929 39.4413 40.594 39.4423 40.6981C39.4455 41.0328 39.4472 41.3675 39.4489 41.7021C39.4508 41.934 39.4528 42.1658 39.4549 42.3976C39.4601 43.0082 39.4641 43.6188 39.4679 44.2294C39.4719 44.8523 39.4771 45.4752 39.4822 46.0981C39.4921 47.3206 39.5005 48.5431 39.5084 49.7656C40.782 49.7656 42.0556 49.7656 43.3678 49.7656C43.3678 44.8388 43.3678 39.912 43.3678 34.836C40.0498 34.836 36.7317 34.836 33.3131 34.836ZM12.899 44.1797C12.982 45.3685 12.982 45.3685 13.118 46.5482C13.1289 46.6286 13.1398 46.709 13.151 46.7919C13.1737 46.9586 13.1966 47.1254 13.2197 47.292C13.2549 47.5471 13.2895 47.8022 13.3239 48.0573C13.3462 48.2208 13.3686 48.3842 13.391 48.5477C13.4013 48.6233 13.4115 48.699 13.4221 48.7769C13.469 49.1139 13.5273 49.4349 13.61 49.7656C14.9841 49.7656 16.3583 49.7656 17.774 49.7656C17.8758 49.0844 17.9772 48.4032 18.0778 47.7219C18.1121 47.4903 18.1466 47.2587 18.1812 47.0271C18.2311 46.6936 18.2804 46.3601 18.3295 46.0265C18.345 45.9235 18.3606 45.8205 18.3766 45.7145C18.3979 45.5681 18.3979 45.5681 18.4197 45.4189C18.4324 45.3338 18.445 45.2488 18.458 45.1612C18.4905 44.8355 18.485 44.507 18.485 44.1797C16.6416 44.1797 14.7983 44.1797 12.899 44.1797Z" fill="black"></path><path d="M14.7272 8.42969C14.8974 8.659 14.8974 8.659 15.0636 8.9502C15.3713 9.46101 15.7049 9.86223 16.149 10.2578C15.8706 10.4435 15.6455 10.5276 15.3276 10.6179C12.4869 11.426 10.1065 13.1448 8.62638 15.7287C7.34493 18.0347 7.09693 20.3746 7.08913 22.9693C7.08816 23.1756 7.08714 23.3818 7.08608 23.5881C7.08335 24.1454 7.08121 24.7026 7.07918 25.2599C7.07695 25.8433 7.07417 26.4267 7.07145 27.0101C7.06639 28.1136 7.06182 29.2171 7.05743 30.3206C7.05147 31.8126 7.04474 33.3046 7.03806 34.7967C7.02756 37.1457 7.01807 39.4947 7.00842 41.8438C11.3655 41.8438 15.7225 41.8438 20.2115 41.8438C20.226 38.7351 20.226 38.7351 20.23 35.6264C20.2293 34.3582 20.2297 33.09 20.2377 31.8217C20.2434 30.8979 20.2453 29.9742 20.2424 29.0504C20.2411 28.5616 20.2416 28.073 20.2469 27.5842C20.2518 27.1232 20.2515 26.6625 20.2472 26.2015C20.2465 26.0332 20.2477 25.8649 20.251 25.6966C20.2702 24.6591 20.1371 24.0331 19.4103 23.2643C19.2723 23.1255 19.1326 22.9885 18.9928 22.8516C18.8877 22.7262 18.7847 22.599 18.6857 22.4687C18.2017 21.8424 17.7101 21.2236 17.2091 20.6108C16.6388 19.912 16.0842 19.2035 15.5397 18.4844C15.4751 18.3994 15.4751 18.3994 15.4093 18.3126C14.4644 17.0671 14.4644 17.0671 14.524 16.3516C14.6894 16.0386 14.8318 15.8169 15.1144 15.6025C15.5696 15.4725 15.9172 15.4674 16.3359 15.6978C16.7176 15.9922 16.9901 16.3162 17.2853 16.6943C17.3425 16.7662 17.3997 16.8381 17.4586 16.9121C17.6323 17.1308 17.8048 17.3505 17.9772 17.5703C18.0754 17.6947 18.1736 17.819 18.2719 17.9432C18.5927 18.3496 18.9113 18.7577 19.2298 19.1658C19.3665 19.3407 19.5033 19.5156 19.6403 19.6904C19.6854 19.7481 19.7305 19.8057 19.777 19.8651C20.2024 20.4062 20.637 20.9398 21.0746 21.4711C21.1529 21.5667 21.1529 21.5667 21.2327 21.6642C21.2783 21.7195 21.3238 21.7748 21.3707 21.8318C21.5319 22.0391 21.5319 22.0391 21.6261 22.2083C21.9314 22.7203 22.2375 22.8702 22.8043 23.0292C22.9032 23.0541 23.0022 23.079 23.1041 23.1047C23.2066 23.1327 23.3091 23.1608 23.4147 23.1897C23.7407 23.2784 24.0676 23.3634 24.3947 23.4482C24.6158 23.5075 24.8368 23.567 25.0578 23.6268C25.3681 23.7107 25.6784 23.7942 25.9893 23.8757C26.0811 23.8999 26.173 23.924 26.2677 23.9489C26.3892 23.9805 26.3892 23.9805 26.5132 24.0128C26.7115 24.0703 26.7115 24.0703 26.9147 24.1719C26.9251 24.2997 26.9356 24.4274 26.9464 24.5591C27.012 25.302 27.2832 26.0893 27.8287 26.6094C27.8287 26.6764 27.8287 26.7434 27.8287 26.8125C27.2338 26.7438 26.6759 26.6009 26.1002 26.438C26.0047 26.4113 25.9093 26.3847 25.811 26.3572C25.6104 26.3011 25.4099 26.2447 25.2095 26.1882C24.9018 26.1014 24.594 26.0153 24.2861 25.9294C24.091 25.8747 23.8959 25.8199 23.7008 25.7651C23.5624 25.7264 23.5624 25.7264 23.4212 25.6869C23.2935 25.6508 23.2935 25.6508 23.1633 25.614C23.0883 25.5929 23.0133 25.5717 22.936 25.55C22.7506 25.4922 22.7506 25.4922 22.5475 25.3906C22.5479 25.4827 22.5482 25.5748 22.5486 25.6697C22.5576 27.91 22.5643 30.1503 22.5685 32.3906C22.5706 33.474 22.5735 34.5574 22.5781 35.6408C22.5822 36.5851 22.5848 37.5293 22.5857 38.4736C22.5862 38.9736 22.5875 39.4736 22.5904 39.9736C22.5932 40.4442 22.594 40.9149 22.5934 41.3855C22.5935 41.5582 22.5944 41.7309 22.5959 41.9036C22.5979 42.1396 22.5974 42.3755 22.5963 42.6114C22.5967 42.7435 22.5971 42.8755 22.5975 43.0115C22.5384 43.4322 22.4071 43.6488 22.1412 43.9766C21.8158 44.1935 21.733 44.2032 21.3605 44.1924C21.2784 44.1906 21.1963 44.1887 21.1117 44.1868C21.018 44.1833 21.018 44.1833 20.9225 44.1797C20.9143 44.2416 20.906 44.3034 20.8975 44.3672C20.8105 45.0215 20.7231 45.6758 20.6355 46.3301C20.603 46.573 20.5706 46.816 20.5383 47.059C20.4459 47.7534 20.3519 48.4475 20.2555 49.1414C20.2271 49.3481 20.1992 49.5549 20.1719 49.7619C20.1365 50.0303 20.0991 50.2985 20.0612 50.5666C20.0515 50.6438 20.0418 50.7209 20.0318 50.8004C19.9619 51.2739 19.8375 51.5573 19.5006 51.8984C19.2065 52.0455 18.9491 52.0154 18.6205 52.018C18.551 52.0186 18.4814 52.0193 18.4098 52.02C18.1792 52.022 17.9487 52.0232 17.7181 52.0242C17.6 52.0248 17.6 52.0248 17.4795 52.0255C17.0627 52.0276 16.646 52.029 16.2292 52.03C15.7989 52.0311 15.3686 52.0346 14.9383 52.0386C14.6073 52.0413 14.2763 52.0421 13.9453 52.0425C13.7867 52.043 13.6281 52.0442 13.4695 52.0461C13.2472 52.0485 13.0251 52.0484 12.8029 52.0477C12.6134 52.0486 12.6134 52.0486 12.42 52.0495C12.0184 51.9899 11.8577 51.8854 11.5787 51.5938C11.3774 51.2162 11.3253 50.8376 11.2686 50.4162C11.2597 50.3511 11.2507 50.2859 11.2415 50.2188C11.2123 50.005 11.1841 49.7911 11.1558 49.5772C11.1357 49.4281 11.1155 49.279 11.0952 49.13C11.053 48.8183 11.0112 48.5066 10.9698 48.1949C10.9166 47.7949 10.8627 47.395 10.8086 46.9951C10.7569 46.6138 10.7056 46.2325 10.6544 45.8511C10.6445 45.7782 10.6347 45.7053 10.6246 45.6302C10.597 45.4245 10.5696 45.2188 10.5422 45.0131C10.5266 44.896 10.511 44.7789 10.4949 44.6583C10.4615 44.3828 10.4615 44.3828 10.4615 44.1797C10.4006 44.1806 10.3396 44.1815 10.2767 44.1824C9.64075 44.1914 9.00481 44.1975 8.3688 44.202C8.13158 44.204 7.89437 44.2068 7.65717 44.2103C7.31581 44.2153 6.97451 44.2176 6.63312 44.2194C6.47455 44.2225 6.47455 44.2225 6.31278 44.2257C5.72244 44.2259 5.32069 44.206 4.87561 43.7734C4.65276 43.2649 4.64373 42.8043 4.64669 42.2601C4.64637 42.1701 4.64606 42.0802 4.64573 41.9876C4.64492 41.6868 4.64556 41.3861 4.6462 41.0854C4.64592 40.8694 4.64556 40.6535 4.64512 40.4376C4.64419 39.851 4.64455 39.2644 4.6452 38.6778C4.64571 38.0624 4.64524 37.4471 4.64492 36.8317C4.64455 35.7967 4.64503 34.7618 4.646 33.7268C4.6471 32.5346 4.64675 31.3423 4.64563 30.1501C4.6447 29.1241 4.64458 28.0981 4.64511 27.0721C4.64542 26.4605 4.64547 25.8488 4.6448 25.2372C4.6442 24.6605 4.64463 24.0838 4.64579 23.5071C4.64606 23.297 4.64599 23.0869 4.64554 22.8768C4.64354 21.855 4.66302 20.8431 4.7622 19.8255C4.76996 19.7455 4.77772 19.6654 4.78572 19.5829C5.09395 16.7483 6.41359 14.1645 8.32873 12.0859C8.41632 11.99 8.5039 11.894 8.59414 11.7951C9.99441 10.3285 11.7073 9.2983 13.5909 8.56934C13.6584 8.54292 13.7258 8.5165 13.7952 8.48927C14.4206 8.26072 14.4206 8.26072 14.7272 8.42969ZM12.899 44.1797C12.982 45.3685 12.982 45.3685 13.118 46.5482C13.1289 46.6286 13.1398 46.709 13.151 46.7919C13.1737 46.9586 13.1966 47.1253 13.2197 47.292C13.2549 47.5471 13.2895 47.8022 13.3239 48.0573C13.3462 48.2208 13.3686 48.3842 13.391 48.5477C13.4013 48.6233 13.4115 48.699 13.4221 48.7769C13.469 49.1139 13.5273 49.4349 13.61 49.7656C14.9841 49.7656 16.3583 49.7656 17.774 49.7656C17.8758 49.0844 17.9772 48.4032 18.0778 47.7219C18.1121 47.4902 18.1466 47.2586 18.1812 47.0271C18.2311 46.6936 18.2804 46.36 18.3295 46.0265C18.345 45.9235 18.3606 45.8205 18.3766 45.7144C18.3979 45.5681 18.3979 45.5681 18.4197 45.4188C18.4324 45.3338 18.445 45.2488 18.458 45.1612C18.4905 44.8355 18.485 44.507 18.485 44.1797C16.6416 44.1797 14.7983 44.1797 12.899 44.1797Z" fill="#1198DE"></path><path d="M23.2583 1.11714C24.4744 2.07134 25.3707 3.31002 25.5942 4.87495C25.6993 6.43147 25.5582 7.80873 24.6802 9.14058C24.6315 9.21547 24.5828 9.29035 24.5326 9.36751C23.56 10.7366 22.2256 11.2822 20.6367 11.6098C19.1696 11.8345 17.8266 11.5395 16.5552 10.7656C16.2759 10.5244 16.2759 10.5244 16.0474 10.2578C15.9162 10.135 15.785 10.0123 15.6538 9.8896C14.5538 8.78964 14.0024 7.45031 13.9844 5.90962C13.9951 4.36762 14.5344 2.84918 15.6193 1.7289C17.7102 -0.181296 20.9032 -0.599487 23.2583 1.11714ZM18.0786 2.8437C18.008 2.88678 17.9375 2.92985 17.8648 2.97423C17.1313 3.46828 16.6463 4.18551 16.4001 5.03325C16.2242 5.94147 16.3144 6.80095 16.7583 7.61714C17.3994 8.51471 18.2006 9.13569 19.2974 9.3437C20.3652 9.4525 21.3252 9.18881 22.1633 8.507C22.4927 8.18129 22.7301 7.81784 22.9536 7.41402C23.0057 7.32211 23.0057 7.32211 23.0587 7.22835C23.3965 6.50577 23.3835 5.56481 23.1881 4.80513C23.0927 4.57536 22.9852 4.37403 22.8521 4.16402C22.8078 4.09332 22.7635 4.02262 22.718 3.94978C22.2203 3.22642 21.501 2.60266 20.6177 2.43745C19.7126 2.36101 18.8683 2.33574 18.0786 2.8437Z" fill="black"></path><path d="M10.4609 44.1797C11.2653 44.1797 12.0697 44.1797 12.8984 44.1797C12.9999 44.9099 13.1013 45.6401 13.2022 46.3704C13.2366 46.6188 13.271 46.8673 13.3056 47.1157C13.3553 47.4727 13.4046 47.8296 13.4539 48.1866C13.4694 48.2978 13.485 48.4091 13.501 48.5236C13.5152 48.6273 13.5294 48.731 13.5441 48.8378C13.5567 48.9289 13.5694 49.02 13.5824 49.1139C13.6094 49.3594 13.6094 49.3594 13.6094 49.7656C14.9835 49.7656 16.3577 49.7656 17.7734 49.7656C17.807 49.3634 17.8405 48.9612 17.875 48.5469C17.9199 48.188 17.9669 47.8304 18.0182 47.4725C18.0316 47.3773 18.045 47.2821 18.0588 47.184C18.1009 46.885 18.1434 46.5861 18.186 46.2871C18.215 46.0823 18.2439 45.8774 18.2727 45.6726C18.3429 45.1749 18.4136 44.6773 18.4844 44.1797C19.2888 44.1797 20.0931 44.1797 20.9219 44.1797C20.8264 44.8965 20.7308 45.6133 20.6349 46.3301C20.6024 46.573 20.57 46.816 20.5377 47.059C20.4453 47.7534 20.3513 48.4475 20.2549 49.1414C20.2265 49.3481 20.1986 49.5549 20.1713 49.7618C20.1359 50.0303 20.0985 50.2985 20.0606 50.5666C20.0509 50.6438 20.0412 50.7209 20.0312 50.8004C19.9613 51.2739 19.8369 51.5573 19.5 51.8984C19.2059 52.0455 18.9485 52.0154 18.6199 52.018C18.5504 52.0186 18.4808 52.0193 18.4092 52.02C18.1786 52.022 17.9481 52.0232 17.7175 52.0242C17.5994 52.0248 17.5994 52.0248 17.4789 52.0255C17.0621 52.0276 16.6454 52.029 16.2286 52.03C15.7983 52.0311 15.368 52.0346 14.9377 52.0386C14.6067 52.0413 14.2757 52.0421 13.9447 52.0425C13.7861 52.043 13.6275 52.0442 13.4689 52.0461C13.2466 52.0485 13.0245 52.0484 12.8023 52.0477C12.6128 52.0486 12.6128 52.0486 12.4194 52.0495C12.0178 51.9899 11.8571 51.8854 11.5781 51.5938C11.3768 51.2162 11.3247 50.8376 11.268 50.4162C11.2591 50.3511 11.2501 50.2859 11.2409 50.2188C11.2117 50.005 11.1835 49.7911 11.1552 49.5772C11.1351 49.4281 11.1149 49.279 11.0946 49.13C11.0524 48.8183 11.0106 48.5066 10.9691 48.1949C10.916 47.7949 10.8621 47.395 10.808 46.9951C10.7563 46.6138 10.705 46.2325 10.6537 45.8511C10.6439 45.7782 10.6341 45.7053 10.624 45.6302C10.5964 45.4245 10.569 45.2188 10.5416 45.0131C10.526 44.896 10.5104 44.7789 10.4943 44.6583C10.4609 44.3828 10.4609 44.3828 10.4609 44.1797Z" fill="black"></path><path d="M22.4453 11.0703C22.5727 11.3367 22.6995 11.6034 22.8262 11.8701C22.8615 11.944 22.8969 12.0178 22.9333 12.0939C23.1168 12.4812 23.2874 12.8684 23.4399 13.269C23.7178 13.975 24.0797 14.6398 24.4321 15.3105C24.535 15.5075 24.6378 15.7045 24.7405 15.9015C24.8333 16.0793 24.9264 16.2568 25.0195 16.4344C25.1875 16.7578 25.1875 16.7578 25.3038 17.0724C25.5834 17.5099 25.957 17.6574 26.4174 17.8762C26.5562 17.9448 26.5562 17.9448 26.6979 18.0149C26.9976 18.1626 27.2986 18.3076 27.5996 18.4526C27.8044 18.553 28.0091 18.6534 28.2137 18.7541C29.3627 19.3177 30.5146 19.8775 31.6751 20.4171C31.757 20.4554 31.8388 20.4937 31.9232 20.5331C31.9915 20.5646 32.0599 20.5961 32.1303 20.6286C32.2969 20.7188 32.2969 20.7188 32.5 20.9219C32.2374 21.0532 32.025 21.05 31.7315 21.0671C31.6172 21.0745 31.5028 21.082 31.385 21.0897C31.1451 21.1046 30.9053 21.1189 30.6653 21.1325C30.0528 21.1736 29.5198 21.2327 28.9537 21.4785C28.3124 21.6384 27.7141 21.2522 27.1581 20.9746C27.0654 20.9289 26.9728 20.8831 26.8774 20.836C26.6821 20.7392 26.4871 20.6419 26.2923 20.5443C25.9951 20.3957 25.6968 20.2496 25.3984 20.1036C25.2083 20.009 25.0184 19.9143 24.8285 19.8194C24.7397 19.7762 24.6509 19.733 24.5595 19.6885C23.7579 19.2817 23.3799 18.8023 22.9972 17.9841C22.9651 17.9174 22.933 17.8507 22.9 17.782C22.7963 17.5658 22.6938 17.3491 22.5913 17.1323C22.5195 16.982 22.4476 16.8317 22.3756 16.6814C22.2305 16.3783 22.0859 16.0749 21.9416 15.7713C21.7529 15.3744 21.5625 14.9783 21.3714 14.5826C20.7533 13.3017 20.7533 13.3017 20.5156 12.7969C20.4546 12.6675 20.4546 12.6675 20.3924 12.5354C20.3551 12.4541 20.3177 12.3728 20.2792 12.2891C20.2463 12.2178 20.2134 12.1466 20.1795 12.0732C20.1094 11.8828 20.1094 11.8828 20.1094 11.5781C20.2135 11.5585 20.3175 11.5388 20.4248 11.5186C20.563 11.4919 20.7012 11.4652 20.8394 11.4385C20.942 11.4192 20.942 11.4192 21.0466 11.3996C21.5213 11.307 21.9677 11.0703 22.4453 11.0703Z" fill="#1198DE"></path></g><defs><clipPath id="clip0_1559_921"><rect width="52" height="52" fill="white"></rect></clipPath></defs></svg>