<svg xmlns="http://www.w3.org/2000/svg" width="52" height="52" viewBox="0 0 52 52" fill="none"><g clip-path="url(#clip0_1559_889)"><path d="M27.2199 16.0938C27.5884 16.0949 27.957 16.0939 28.3255 16.0933C28.9439 16.0925 29.5622 16.0935 30.1806 16.0954C30.8907 16.0977 31.6008 16.0969 32.311 16.0947C32.9258 16.0928 33.5407 16.0926 34.1556 16.0937C34.5206 16.0943 34.8855 16.0944 35.2505 16.093C38.9018 16.0813 38.9018 16.0813 40.4717 16.9419C40.5383 16.9767 40.6049 17.0116 40.6736 17.0475C41.2109 17.3365 41.6877 17.6769 42.1475 18.0781C42.2449 18.1548 42.3423 18.2315 42.4426 18.3106C42.7807 18.592 43.0398 18.9144 43.3027 19.2651C43.3713 19.3536 43.3713 19.3536 43.4412 19.4438C43.7725 19.8793 43.7725 19.8793 43.7725 20.1093C43.9347 20.0544 43.9347 20.0544 44.1002 19.9983C45.6627 19.4895 46.9984 19.4119 48.5209 20.1419C49.7055 20.8038 50.3592 21.7126 50.795 22.9888C50.8923 23.4037 50.9169 23.7793 50.9136 24.2036C50.913 24.2796 50.9124 24.3556 50.9119 24.4339C50.8847 25.6769 50.378 26.7393 49.5421 27.6599C48.8113 28.3291 47.9651 28.6804 47.0225 28.9453C47.0518 29.0376 47.0811 29.1299 47.1113 29.225C47.5382 30.67 47.637 32.0348 46.9209 33.414C47.0867 33.4272 47.0867 33.4272 47.2558 33.4406C48.8585 33.5862 50.1626 34.0468 51.2266 35.308C52.0597 36.5282 52.1628 37.9926 51.9522 39.4185C51.7274 40.2451 51.2357 40.9979 50.6787 41.6406C50.7253 41.6972 50.7719 41.7537 50.82 41.812C51.8921 43.1454 52.1434 44.4205 51.999 46.1093C51.7989 47.0701 51.2137 48.1454 50.4197 48.7412C48.9194 49.6707 47.5808 49.7963 45.8523 49.7921C45.6738 49.7924 45.4953 49.7928 45.3168 49.7932C44.829 49.7943 44.3412 49.7941 43.8534 49.7936C43.3263 49.7934 42.7992 49.7943 42.272 49.7951C41.2404 49.7964 40.2087 49.7965 39.1771 49.7963C38.3383 49.7961 37.4995 49.7963 36.6608 49.7967C36.4815 49.7968 36.4815 49.7968 36.2986 49.7969C36.0559 49.797 35.8131 49.7972 35.5703 49.7973C33.2949 49.7984 31.0195 49.7982 28.7441 49.7975C26.6638 49.797 24.5836 49.7982 22.5034 49.8001C20.3657 49.8021 18.228 49.8029 16.0903 49.8025C14.8909 49.8023 13.6914 49.8026 12.4919 49.804C11.4709 49.8052 10.4498 49.8054 9.42876 49.8041C8.90817 49.8035 8.3876 49.8034 7.86701 49.8046C7.38975 49.8058 6.91252 49.8054 6.43526 49.804C6.26331 49.8037 6.09136 49.804 5.91942 49.8048C4.21757 49.8123 2.54298 49.6421 1.23048 48.4326C0.374563 47.513 -0.0419187 46.3559 -0.0327003 45.1128C-0.0321275 45.032 -0.0315548 44.9512 -0.0309646 44.868C-0.00502102 43.6104 0.446782 42.5942 1.33839 41.6977C1.4668 41.5764 1.59581 41.4557 1.7256 41.3359C1.82762 41.2348 1.92935 41.1334 2.03029 41.0312C1.97137 41.0078 1.91246 40.9843 1.85176 40.9602C0.918486 40.4188 0.387732 38.9942 0.0859215 38.0125C-0.320021 36.2821 0.00947484 34.3918 0.90224 32.8772C1.83867 31.4273 3.23527 30.5969 4.87404 30.164C6.59153 29.8096 8.34343 30.1004 9.85377 30.9789C11.407 32.013 12.2644 33.485 12.6432 35.2945C12.8926 37.0193 12.5383 38.5172 11.6787 40.0156C11.5782 40.1497 11.4776 40.2837 11.374 40.4218C12.346 40.3883 13.3179 40.3548 14.3193 40.3203C14.1183 39.7673 14.1183 39.7673 13.9131 39.2031C13.6237 37.9973 13.8892 36.767 14.4717 35.6869C15.1846 34.5563 16.192 33.9233 17.4619 33.5608C17.6881 33.5119 17.9016 33.4944 18.1327 33.4835C18.2613 33.4771 18.2613 33.4771 18.3926 33.4706C18.4812 33.4666 18.5698 33.4626 18.6611 33.4585C18.7965 33.4519 18.7965 33.4519 18.9345 33.4452C19.1565 33.4344 19.3785 33.4241 19.6006 33.414C19.5514 33.3645 19.5021 33.3151 19.4514 33.2641C18.2495 31.9928 17.3656 30.2295 17.3482 28.454C17.3469 28.3369 17.3456 28.2199 17.3443 28.0993C17.3435 27.9734 17.3428 27.8475 17.342 27.7178C17.3412 27.5869 17.3404 27.456 17.3395 27.3211C17.338 27.0436 17.337 26.7661 17.3362 26.4887C17.3354 26.207 17.3332 25.9253 17.33 25.6437C17.2959 22.6203 17.2959 22.6203 17.7725 21.4297C17.8049 21.3468 17.8372 21.2639 17.8706 21.1785C17.9585 20.9726 18.0545 20.7765 18.1597 20.5791C18.1945 20.5116 18.2293 20.4441 18.2651 20.3746C18.5529 19.8318 18.8937 19.355 19.2959 18.8906C19.3577 18.8089 19.4195 18.7272 19.4832 18.643C21.442 16.3151 24.4013 16.0833 27.2199 16.0938ZM21.1058 20.3724C20.0903 21.6658 19.6713 22.8605 19.668 24.4904C19.6674 24.6079 19.6667 24.7253 19.666 24.8463C19.665 25.0941 19.6645 25.3419 19.6645 25.5897C19.6641 25.9653 19.6604 26.3407 19.6565 26.7163C19.6559 26.9582 19.6555 27.2001 19.6553 27.4421C19.6539 27.5527 19.6524 27.6633 19.6509 27.7772C19.6604 29.3955 20.2934 30.6932 21.3871 31.8581C22.6387 33.0631 24.1933 33.5453 25.9006 33.5497C25.9937 33.5504 26.0868 33.5511 26.1827 33.5518C26.378 33.5528 26.5733 33.5533 26.7685 33.5532C27.0647 33.5537 27.3608 33.5574 27.657 33.5612C29.1818 33.5841 29.1818 33.5841 30.5122 32.9098C30.5646 32.8437 30.617 32.7776 30.6709 32.7094C30.7254 32.6436 30.7798 32.5777 30.836 32.5099C31.2208 31.9228 31.266 31.3571 31.1787 30.6718C30.9765 30.0153 30.6484 29.5682 30.0976 29.1643C29.4526 28.8477 28.7997 28.8151 28.0957 28.8159C27.9156 28.8139 27.7354 28.8118 27.5552 28.8096C27.2744 28.8073 26.9936 28.8056 26.7128 28.805C26.4395 28.8041 26.1664 28.8006 25.8931 28.7969C25.8094 28.7974 25.7257 28.7979 25.6395 28.7985C25.2324 28.7915 25.0307 28.7723 24.679 28.5483C24.4048 28.262 24.3613 28.1109 24.3577 27.7262C24.3567 27.6425 24.3557 27.5587 24.3547 27.4724C24.3543 27.3818 24.3539 27.2911 24.3534 27.1977C24.3528 27.1045 24.3522 27.0113 24.3517 26.9153C24.3507 26.7178 24.35 26.5204 24.3496 26.3229C24.3487 26.0213 24.3455 25.7197 24.3423 25.4182C24.3416 25.2263 24.3411 25.0345 24.3407 24.8427C24.3395 24.7527 24.3382 24.6626 24.3369 24.5698C24.3387 24.0832 24.3586 23.7527 24.6787 23.3593C25.0538 23.1236 25.3855 23.135 25.8094 23.2022C26.0937 23.2855 26.2323 23.4288 26.4053 23.664C26.5106 23.98 26.5272 24.2221 26.539 24.5539C26.5432 24.6675 26.5475 24.781 26.5519 24.8981C26.5559 25.0166 26.5599 25.1352 26.564 25.2573C26.5684 25.377 26.5727 25.4967 26.5773 25.6201C26.588 25.916 26.5984 26.2119 26.6084 26.5078C26.6759 26.5098 26.7433 26.5118 26.8128 26.5139C28.3566 26.5623 29.8042 26.6273 31.2803 27.1172C31.3229 26.9699 31.3229 26.9699 31.3664 26.8196C31.7542 25.537 32.327 24.473 33.5043 23.7486C34.4068 23.2766 35.3806 22.9886 36.3457 22.6738C36.5361 22.6111 36.7264 22.5483 36.9168 22.4855C38.4207 21.99 39.9272 21.5023 41.4365 21.0234C41.4365 20.6356 41.2854 20.4879 41.0327 20.2073C39.6942 18.9076 38.2126 18.4534 36.3948 18.4548C36.2692 18.4542 36.1436 18.4535 36.0141 18.4528C35.6718 18.4512 35.3296 18.4505 34.9873 18.4504C34.7726 18.4502 34.558 18.4498 34.3434 18.4493C33.5924 18.4474 32.8413 18.4465 32.0903 18.4467C31.3939 18.4468 30.6975 18.4447 30.0011 18.4415C29.4003 18.4388 28.7994 18.4377 28.1985 18.4379C27.841 18.4379 27.4835 18.4374 27.1259 18.4352C26.7262 18.4328 26.3265 18.4338 25.9268 18.435C25.8108 18.4339 25.6948 18.4327 25.5754 18.4315C23.8974 18.4444 22.2062 19.0649 21.1058 20.3724ZM44.706 22.2618C44.6001 22.2963 44.4943 22.3309 44.3853 22.3664C44.0376 22.4803 43.6906 22.5962 43.3436 22.7123C43.101 22.7926 42.8583 22.8729 42.6156 22.9531C42.1078 23.1213 41.6003 23.2906 41.093 23.4605C40.5088 23.6563 39.9237 23.8496 39.3382 24.0417C38.7724 24.2274 38.2074 24.4154 37.6426 24.6042C37.4034 24.6839 37.1639 24.763 36.9243 24.8414C36.5887 24.9515 36.2541 25.0641 35.9196 25.1774C35.8214 25.209 35.7232 25.2406 35.622 25.2732C34.8697 25.5326 34.341 25.9224 33.832 26.5332C33.4779 27.3989 33.4865 28.3399 33.4948 29.2607C33.4951 29.3831 33.4954 29.5055 33.4957 29.6316C33.4968 30.0186 33.4994 30.4055 33.502 30.7924C33.503 31.0565 33.5039 31.3205 33.5047 31.5845C33.5068 32.2282 33.5108 32.8719 33.5147 33.5156C35.0564 33.5156 36.5981 33.5156 38.1865 33.5156C38.2038 32.3018 38.2038 32.3018 38.2168 31.0879C38.2198 30.9351 38.2229 30.7822 38.2262 30.6294C38.2263 30.5509 38.2264 30.4723 38.2266 30.3914C38.2286 30.3152 38.2306 30.2389 38.2327 30.1604C38.234 30.0619 38.234 30.0619 38.2354 29.9615C38.3182 29.6413 38.4594 29.4824 38.6943 29.25C38.9704 29.126 39.2238 29.0296 39.5107 28.9409C39.5927 28.9141 39.6746 28.8873 39.7591 28.8596C39.9366 28.8018 40.1144 28.7447 40.2924 28.6883C40.5748 28.5987 40.8564 28.5072 41.1379 28.415C41.7362 28.2196 42.3353 28.0269 42.9346 27.8344C43.6279 27.6117 44.3208 27.3878 45.0129 27.1614C45.2893 27.0716 45.5662 26.9837 45.8432 26.8958C46.0144 26.8401 46.1856 26.7843 46.3567 26.7284C46.4329 26.7048 46.5091 26.6812 46.5876 26.6569C47.2369 26.4411 47.8021 26.0972 48.2285 25.5544C48.5727 24.8507 48.6988 24.2052 48.482 23.4379C48.199 22.7805 47.6644 22.3056 47.0288 21.9946C46.1885 21.8402 45.5063 21.9917 44.706 22.2618ZM43.7122 29.9415C43.6246 29.9705 43.5371 29.9996 43.4469 30.0295C43.2615 30.0912 43.076 30.1529 42.8906 30.2147C42.6058 30.3096 42.3209 30.4039 42.036 30.4983C41.8563 30.5581 41.6765 30.6179 41.4968 30.6778C41.411 30.7062 41.3252 30.7345 41.2368 30.7637C40.8498 30.8675 40.8498 30.8675 40.5225 31.0781C40.4602 31.688 40.5873 32.106 40.9287 32.6015C41.4447 33.1816 42.0408 33.4715 42.8076 33.5537C43.4961 33.4799 44.1256 33.244 44.585 32.7031C45.0204 32.0575 45.2278 31.4483 45.0928 30.6718C44.9808 30.321 44.8449 29.9885 44.6865 29.6562C44.3736 29.6562 44.0117 29.8418 43.7122 29.9415ZM3.14708 33.8564C2.36155 34.9141 2.24275 35.8847 2.33497 37.1718C2.48249 38.1592 3.02956 38.9691 3.79493 39.5966C4.79365 40.3193 5.78603 40.519 7.00685 40.4218C8.23126 40.1631 9.12219 39.5 9.8506 38.4922C10.4005 37.4272 10.546 36.2695 10.1934 35.1152C9.82395 34.1266 9.11021 33.2852 8.18117 32.7686C6.40905 31.9612 4.42446 32.3549 3.14708 33.8564ZM16.6045 36.7529C16.2176 37.3392 16.0922 37.8745 16.1947 38.5663C16.3581 39.2595 16.673 39.7111 17.2647 40.1172C17.9043 40.4667 18.4727 40.4651 19.1924 40.4612C19.3147 40.4618 19.437 40.4623 19.563 40.4629C19.9013 40.4641 20.2395 40.4639 20.5777 40.4632C20.943 40.4627 21.3082 40.464 21.6735 40.465C22.3887 40.4667 23.1038 40.4668 23.8189 40.4663C24.4003 40.4659 24.9817 40.466 25.5631 40.4666C25.6459 40.4666 25.7287 40.4667 25.814 40.4668C25.9822 40.467 26.1504 40.4671 26.3186 40.4673C27.8955 40.4687 29.4724 40.4681 31.0493 40.4669C32.4912 40.4659 33.9331 40.4673 35.375 40.4697C36.8563 40.4722 38.3376 40.4731 39.819 40.4725C40.6503 40.4721 41.4816 40.4723 42.313 40.4741C43.0207 40.4756 43.7285 40.4757 44.4362 40.4739C44.7971 40.473 45.158 40.4728 45.5189 40.4744C45.9106 40.476 46.3023 40.4745 46.694 40.4727C46.8074 40.4737 46.9208 40.4747 47.0377 40.4757C47.8851 40.4677 48.5818 40.3153 49.1934 39.6982C49.6498 39.099 49.8204 38.4636 49.7202 37.7177C49.5677 37.071 49.2951 36.5926 48.7393 36.2146C48.0436 35.8414 47.4654 35.7792 46.6838 35.787C46.5613 35.7863 46.4388 35.7855 46.3126 35.7846C45.9752 35.783 45.6379 35.7836 45.3006 35.7851C44.9357 35.7863 44.5709 35.7845 44.206 35.7831C43.4923 35.7809 42.7786 35.7814 42.0649 35.7828C41.4846 35.784 40.9044 35.7841 40.3241 35.7836C40.2414 35.7835 40.1587 35.7834 40.0734 35.7833C39.9054 35.7832 39.7373 35.783 39.5692 35.7828C37.9948 35.7814 36.4204 35.7831 34.846 35.7858C33.4964 35.7881 32.1468 35.7877 30.7971 35.7853C29.2282 35.7826 27.6593 35.7815 26.0903 35.7831C25.9229 35.7833 25.7555 35.7834 25.588 35.7836C25.4645 35.7837 25.4645 35.7837 25.3384 35.7838C24.7591 35.7843 24.1799 35.7835 23.6006 35.7823C22.8942 35.7809 22.1879 35.7813 21.4815 35.784C21.1214 35.7853 20.7613 35.7858 20.4012 35.7842C20.0102 35.7824 19.6193 35.7845 19.2283 35.787C19.1154 35.7859 19.0025 35.7848 18.8861 35.7836C17.9672 35.7951 17.2029 36.0235 16.6045 36.7529ZM2.63966 43.7734C2.26198 44.3753 2.25404 45.0124 2.33497 45.7031C2.51287 46.3374 2.90524 46.7733 3.45216 47.125C4.32778 47.5297 5.28121 47.4724 6.22244 47.4683C6.40071 47.4687 6.57898 47.4692 6.75725 47.4698C7.24533 47.4711 7.7334 47.4704 8.22149 47.4695C8.74855 47.4688 9.27561 47.4699 9.80268 47.4707C10.8345 47.4721 11.8662 47.4718 12.898 47.4709C13.7366 47.4702 14.5752 47.4701 15.4138 47.4704C15.5331 47.4705 15.6525 47.4705 15.7756 47.4706C16.0181 47.4707 16.2607 47.4708 16.5032 47.4709C18.777 47.4717 21.0508 47.4707 23.3246 47.4691C25.2754 47.4677 27.2262 47.468 29.177 47.4694C31.4429 47.471 33.7087 47.4717 35.9746 47.4707C36.2162 47.4706 36.4578 47.4705 36.6995 47.4704C36.8184 47.4704 36.9372 47.4703 37.0597 47.4703C37.8973 47.47 38.7349 47.4705 39.5724 47.4712C40.5931 47.472 41.6138 47.4718 42.6345 47.4702C43.1553 47.4694 43.676 47.4691 44.1967 47.4701C44.6735 47.471 45.1503 47.4705 45.6271 47.4689C45.7995 47.4685 45.9718 47.4687 46.1442 47.4694C47.2911 47.474 48.3022 47.4629 49.1823 46.6251C49.612 46.1101 49.8039 45.5474 49.771 44.8779C49.6489 44.1063 49.224 43.5903 48.6514 43.0855C48.1286 42.771 47.5681 42.7323 46.9712 42.7319C46.8974 42.7316 46.8237 42.7313 46.7477 42.7309C46.501 42.7301 46.2544 42.7307 46.0077 42.7313C45.8288 42.731 45.65 42.7306 45.4712 42.7301C44.9801 42.7291 44.489 42.7293 43.9979 42.7297C43.4681 42.73 42.9384 42.7291 42.4086 42.7283C41.3709 42.727 40.3331 42.7268 39.2954 42.7271C38.452 42.7273 37.6086 42.7271 36.7651 42.7266C36.6451 42.7266 36.5251 42.7265 36.4015 42.7265C36.1577 42.7263 35.9139 42.7262 35.6702 42.7261C33.3836 42.725 31.097 42.7252 28.8105 42.7258C26.7184 42.7263 24.6263 42.7252 22.5342 42.7233C20.3863 42.7213 18.2384 42.7205 16.0905 42.7209C14.8845 42.721 13.6785 42.7208 12.4726 42.7194C11.4459 42.7181 10.4193 42.718 9.39259 42.7192C8.86878 42.7198 8.34498 42.7199 7.82117 42.7187C7.34154 42.7176 6.86193 42.7179 6.38229 42.7194C6.2089 42.7196 6.03552 42.7194 5.86213 42.7186C4.59087 42.713 3.53959 42.7615 2.63966 43.7734Z" fill="black"></path><path d="M2.03189 41.1328C2.12406 41.1852 2.21622 41.2375 2.31118 41.2915C2.40938 41.3467 2.40938 41.3467 2.50955 41.403C2.67807 41.5013 2.8439 41.6043 3.00784 41.7101C3.80781 42.2127 4.57286 42.4556 5.48501 42.6562C5.48501 42.6898 5.48501 42.7233 5.48501 42.7578C5.37713 42.7666 5.26926 42.7754 5.15811 42.7844C4.18664 42.8759 3.50172 42.9906 2.8063 43.7227C2.39197 44.3601 2.36081 44.9589 2.43814 45.7031C2.60311 46.2749 2.93193 46.725 3.45376 47.0234C4.33738 47.4197 5.27793 47.3709 6.22405 47.3668C6.40231 47.3672 6.58058 47.3677 6.75885 47.3683C7.24693 47.3695 7.735 47.3689 8.22309 47.368C8.75015 47.3673 9.27721 47.3683 9.80428 47.3692C10.8361 47.3705 11.8678 47.3702 12.8996 47.3693C13.7382 47.3687 14.5768 47.3686 15.4154 47.3689C15.5348 47.3689 15.6541 47.369 15.7772 47.369C16.0197 47.3691 16.2623 47.3692 16.5048 47.3693C18.7786 47.3702 21.0524 47.3692 23.3262 47.3676C25.277 47.3662 27.2278 47.3664 29.1786 47.3678C31.4445 47.3695 33.7103 47.3701 35.9762 47.3692C36.2178 47.3691 36.4594 47.369 36.7011 47.3689C36.82 47.3688 36.9388 47.3688 37.0613 47.3688C37.8989 47.3685 38.7365 47.3689 39.574 47.3697C40.5947 47.3705 41.6154 47.3703 42.6361 47.3687C43.1569 47.3679 43.6776 47.3675 44.1983 47.3685C44.6751 47.3695 45.1519 47.369 45.6287 47.3673C45.8011 47.367 45.9734 47.3672 46.1458 47.3679C47.7488 47.3818 47.7488 47.3818 49.1049 46.6025C49.5171 46.0966 49.7041 45.5283 49.671 44.8779C49.568 44.2216 49.2482 43.7242 48.7633 43.2783C48.4093 43.0376 48.1489 42.9504 47.735 42.8594C47.735 42.7923 47.735 42.7253 47.735 42.6562C47.8238 42.6431 47.8238 42.6431 47.9143 42.6297C48.6931 42.4962 49.5612 42.2799 50.1828 41.7704C50.3756 41.6406 50.3756 41.6406 50.5851 41.6497C51.181 41.9297 51.5622 42.7779 51.7975 43.3672C52.1792 44.4697 52.1932 45.9236 51.717 46.9973C51.0553 48.2349 50.2214 49.1061 48.8522 49.5625C47.8573 49.7923 46.868 49.7946 45.8539 49.7921C45.6754 49.7924 45.4969 49.7928 45.3184 49.7933C44.8306 49.7943 44.3428 49.7941 43.855 49.7937C43.3279 49.7934 42.8008 49.7943 42.2736 49.7951C41.242 49.7964 40.2103 49.7966 39.1787 49.7963C38.3399 49.7962 37.5011 49.7963 36.6624 49.7968C36.4831 49.7969 36.4831 49.7969 36.3002 49.7969C36.0575 49.7971 35.8147 49.7972 35.5719 49.7973C33.2965 49.7984 31.0211 49.7982 28.7457 49.7976C26.6654 49.7971 24.5852 49.7982 22.505 49.8001C20.3673 49.8021 18.2296 49.8029 16.0919 49.8026C14.8925 49.8024 13.693 49.8026 12.4935 49.804C11.4725 49.8053 10.4514 49.8054 9.43036 49.8042C8.90978 49.8036 8.3892 49.8035 7.86861 49.8047C7.39135 49.8058 6.91412 49.8055 6.43686 49.804C6.26491 49.8038 6.09296 49.804 5.92102 49.8048C4.21917 49.8123 2.54458 49.6421 1.23208 48.4326C0.376165 47.513 -0.0403187 46.356 -0.0311003 45.1128C-0.0305275 45.032 -0.0299547 44.9512 -0.0293646 44.868C-0.000968887 43.4915 0.553576 42.4484 1.54113 41.4978C1.7272 41.3359 1.7272 41.3359 2.03189 41.1328Z" fill="#1198DE"></path><path d="M35.0699 3.88477C36.096 4.85656 36.7553 6.22328 36.9679 7.61719C36.9883 7.7415 36.9883 7.7415 37.0091 7.86832C37.2353 9.61364 36.6971 11.3036 35.6476 12.6953C34.5792 13.9836 33.0588 14.7687 31.4121 15.0055C29.5078 15.1521 27.7295 14.6079 26.2709 13.3638C25.0434 12.1794 24.2996 10.6376 24.2315 8.9285C24.2044 7.1517 24.7287 5.47751 25.9793 4.18152C26.0529 4.10873 26.1264 4.03594 26.2022 3.96094C26.2812 3.87689 26.2812 3.87689 26.3617 3.79114C26.7573 3.4059 27.2316 3.16835 27.7193 2.91992C27.7872 2.88521 27.8551 2.8505 27.9251 2.81474C30.2693 1.66705 33.1242 2.24423 35.0699 3.88477ZM27.3964 6.14414C26.7512 7.06317 26.5092 8.03015 26.6085 9.14063C26.8508 10.3064 27.3385 11.2983 28.3351 11.9844C29.4169 12.6209 30.589 12.7816 31.8159 12.5239C32.8693 12.1699 33.7437 11.4553 34.2812 10.4808C34.762 9.39765 34.8484 8.18519 34.4351 7.06494C33.9386 6.04525 33.092 5.18655 32.0294 4.77066C30.2817 4.23195 28.572 4.73774 27.3964 6.14414Z" fill="black"></path><path d="M12.5745 40.3507C12.7302 40.3474 12.8858 40.3418 13.0414 40.3341C14.3341 40.2697 14.3341 40.2697 14.7944 40.6395C15.0059 40.9098 15.0059 40.9098 15.1701 41.1795C15.6059 41.8573 16.4059 42.2063 17.1411 42.4709C17.3672 42.5546 17.3672 42.5546 17.7734 42.7578C14.2878 42.7578 10.8022 42.7578 7.21094 42.7578C7.54304 42.5917 7.83044 42.4837 8.18213 42.3769C9.91322 41.8027 10.749 40.3795 12.5745 40.3507Z" fill="#1198DE"></path></g><defs><clipPath id="clip0_1559_889"><rect width="52" height="52" fill="white"></rect></clipPath></defs></svg>