<svg xmlns="http://www.w3.org/2000/svg" width="52" height="52" viewBox="0 0 52 52" fill="none"><g clip-path="url(#clip0_1559_928)"><path d="M15.7155 5.5935C16.8514 6.57964 17.6489 7.73017 17.8753 9.24221C17.9068 9.77841 17.9089 10.314 17.9094 10.8509C17.9101 11.0066 17.9107 11.1623 17.9115 11.3179C17.9127 11.6429 17.913 11.9679 17.9129 12.2928C17.9129 12.7068 17.9157 13.1207 17.9192 13.5347C17.9214 13.8558 17.9218 14.1769 17.9217 14.498C17.922 14.6505 17.9229 14.803 17.9244 14.9555C17.9319 15.7439 17.9149 16.4389 17.5662 17.1624C17.4685 17.3684 17.4045 17.5486 17.3675 17.7735C17.7173 18.7074 18.2692 19.3213 19.1639 19.7349C20.082 20.1214 20.86 20.0945 21.785 19.7214C22.8578 19.216 23.3624 18.0886 23.7544 17.0236C23.9063 16.5302 24.0187 16.0293 24.1105 15.5212C24.2137 15.0109 24.3816 14.7518 24.7815 14.4219C25.0928 14.2663 25.352 14.297 25.6956 14.3203C26.1169 14.5023 26.3295 14.7098 26.5081 15.1328C26.5355 15.7054 26.479 16.2091 26.3431 16.7642C26.325 16.8385 26.307 16.9128 26.2884 16.9894C25.8207 18.8288 24.9563 20.5924 23.3418 21.6729C21.8774 22.5054 20.4064 22.6284 18.783 22.2371C18.4608 22.133 18.1763 21.9899 17.8753 21.836C17.8757 21.9087 17.876 21.9814 17.8764 22.0563C17.8854 23.8262 17.8921 25.5961 17.8963 27.3661C17.8984 28.222 17.9013 29.0779 17.9059 29.9338C17.91 30.6799 17.9126 31.426 17.9135 32.1721C17.914 32.5671 17.9153 32.962 17.9182 33.357C17.921 33.729 17.9218 34.1009 17.9212 34.4729C17.9214 34.6741 17.9236 34.8753 17.9258 35.0766C17.9206 36.1947 17.9206 36.1947 17.469 36.6641C17.0585 36.8562 16.8155 36.8672 16.3518 36.8672C16.3518 40.8891 16.3518 44.911 16.3518 49.0547C16.6535 49.1217 16.9551 49.1888 17.2659 49.2578C17.5496 49.3454 17.8255 49.4357 18.1038 49.5371C18.1729 49.5602 18.2421 49.5832 18.3133 49.607C18.8309 49.7955 19.0895 50.018 19.3987 50.4766C19.4879 50.762 19.4723 50.9999 19.3987 51.2891C19.219 51.5951 19.0103 51.8388 18.6878 52C17.863 52.1173 17.131 51.8641 16.3651 51.5884C16.167 51.5173 15.9681 51.4491 15.7689 51.3811C14.6216 50.9796 14.6216 50.9796 14.219 50.5781C13.9339 49.9809 13.9889 49.3434 13.9928 48.6969C13.9928 48.569 13.9928 48.4412 13.9928 48.3094C13.9927 47.9601 13.9939 47.6107 13.9953 47.2614C13.9966 46.8958 13.9967 46.5303 13.9969 46.1647C13.9976 45.473 13.9992 44.7814 14.0013 44.0897C14.0036 43.302 14.0047 42.5143 14.0057 41.7266C14.0078 40.1068 14.0115 38.487 14.0159 36.8672C12.8093 36.8672 11.6028 36.8672 10.3597 36.8672C10.3597 40.8891 10.3597 44.911 10.3597 49.0547C10.6613 49.1217 10.9629 49.1888 11.2737 49.2578C11.5592 49.3499 11.8377 49.4446 12.118 49.5498C12.1879 49.5746 12.2579 49.5993 12.33 49.6248C12.7394 49.7772 13.0388 49.9222 13.305 50.2735C13.4428 50.6944 13.4549 51.0704 13.2859 51.4795C13.0525 51.7532 12.8455 51.9667 12.4864 52.0465C11.7375 52.054 11.0766 51.8438 10.3785 51.594C10.1815 51.5238 9.98371 51.4568 9.78559 51.3901C8.57819 50.9678 8.57819 50.9678 8.12528 50.4766C8.02157 50.1654 8.0112 49.9559 8.01151 49.6302C8.01137 49.5178 8.01123 49.4054 8.01108 49.2897C8.01163 49.1047 8.01163 49.1047 8.01219 48.916C8.01218 48.7862 8.01216 48.6564 8.01215 48.5226C8.01212 48.1665 8.01271 47.8105 8.01342 47.4544C8.01406 47.0823 8.01412 46.7102 8.01424 46.3382C8.01455 45.6335 8.01539 44.9289 8.01641 44.2243C8.01754 43.4221 8.0181 42.6199 8.01861 41.8178C8.01967 40.1676 8.02146 38.5174 8.02372 36.8672C7.89267 36.8707 7.76162 36.8743 7.6266 36.8779C7.45217 36.8808 7.27774 36.8836 7.10331 36.8863C6.97419 36.8901 6.97419 36.8901 6.84246 36.894C6.1935 36.9015 5.68195 36.844 5.18888 36.3796C5.04256 36.0838 5.03899 35.8582 5.03737 35.5283C5.03608 35.4011 5.03479 35.2739 5.03347 35.1428C5.03368 35.0039 5.03398 34.865 5.03437 34.7261C5.03391 34.5823 5.03337 34.4385 5.03276 34.2947C5.03185 33.9928 5.0321 33.6908 5.03311 33.3888C5.03426 33.0062 5.03224 32.6236 5.02926 32.241C5.02737 31.9434 5.02743 31.6458 5.028 31.3482C5.02802 31.2075 5.02742 31.0667 5.02614 30.9259C5.01601 29.624 5.23273 28.4107 5.84647 27.2505C5.90526 27.137 5.96404 27.0235 6.02461 26.9065C6.1956 26.6094 6.1956 26.6094 6.35588 26.4331C6.55939 26.109 6.54091 25.8575 6.5442 25.4764C6.54523 25.4041 6.54627 25.3317 6.54733 25.2571C6.55039 25.0186 6.55133 24.7802 6.55225 24.5416C6.55397 24.376 6.55581 24.2104 6.55778 24.0447C6.5626 23.6093 6.56563 23.1738 6.56828 22.7384C6.57131 22.2938 6.57604 21.8493 6.58062 21.4047C6.58936 20.5328 6.5962 19.661 6.60185 18.7891C6.51176 18.7417 6.42168 18.6943 6.32887 18.6454C6.20919 18.5818 6.08952 18.5182 5.96986 18.4546C5.85254 18.3926 5.73523 18.3305 5.61436 18.2665C4.63618 17.7129 4.0426 16.9268 3.66923 15.8692C3.31714 14.524 3.60102 13.2874 4.28416 12.103C4.40802 11.8998 4.53317 11.6974 4.65946 11.4956C4.72611 11.387 4.79276 11.2784 4.86142 11.1665C4.99978 10.9411 5.13861 10.7159 5.27791 10.4911C5.47805 10.167 5.67564 9.84144 5.87226 9.51516C8.46906 5.20757 8.46906 5.20757 10.8802 4.5386C12.5852 4.21967 14.3217 4.53623 15.7155 5.5935ZM9.75028 7.82034C9.52579 8.11343 9.32765 8.41609 9.14091 8.7344C9.51125 8.91957 9.90282 8.69601 10.2791 8.57531C11.2397 8.22988 12.1668 7.72194 12.8987 7.00784C12.8484 6.90729 12.8484 6.90729 12.7972 6.80471C11.6078 6.73114 10.6211 6.96623 9.75028 7.82034ZM14.93 8.22659C14.8209 8.34191 14.7133 8.45857 14.6062 8.57571C13.1426 10.055 11.0607 10.864 9.03935 11.1719C9.42662 12.1216 9.97831 12.784 10.9056 13.2476C11.8229 13.6043 12.7025 13.5706 13.6097 13.2031C14.446 12.785 15.086 12.1237 15.4314 11.2481C15.7356 10.1483 15.536 9.22652 15.0315 8.22659C14.998 8.22659 14.9645 8.22659 14.93 8.22659ZM6.90653 12.3906C6.74947 12.6362 6.59815 12.8827 6.4495 13.1333C6.40721 13.2034 6.36493 13.2735 6.32136 13.3458C5.98749 13.9049 5.80516 14.3631 5.89091 15.0313C6.09971 15.6588 6.42248 16.0052 6.97672 16.36C7.30431 16.4901 7.61985 16.4839 7.96716 16.4843C8.04268 16.4851 8.1182 16.486 8.19601 16.4868C8.44526 16.4893 8.69448 16.4902 8.94373 16.4908C9.11727 16.4917 9.29081 16.4927 9.46434 16.4936C9.82795 16.4953 10.1916 16.4961 10.5552 16.4964C11.0208 16.4969 11.4863 16.5007 11.9519 16.5054C12.3103 16.5084 12.6687 16.5091 13.027 16.5092C13.1987 16.5097 13.3703 16.5109 13.542 16.513C13.7822 16.5158 14.0222 16.5153 14.2625 16.514C14.3331 16.5155 14.4038 16.517 14.4766 16.5186C14.8649 16.5127 15.0233 16.4597 15.3304 16.2138C15.578 15.8957 15.595 15.7517 15.5711 15.355C15.5665 15.2559 15.5619 15.1568 15.5572 15.0547C15.5513 14.9799 15.5454 14.9052 15.5393 14.8281C15.2806 14.9285 15.0287 15.0326 14.7796 15.1551C13.3881 15.8137 11.8119 15.9106 10.3482 15.4367C8.88293 14.8745 7.88283 13.9414 7.12275 12.5807C7.066 12.4866 7.066 12.4866 7.0081 12.3906C6.97458 12.3906 6.94106 12.3906 6.90653 12.3906ZM9.03935 19.0938C8.90209 19.3683 8.92562 19.5813 8.92625 19.8887C8.92627 20.0144 8.92628 20.1402 8.92629 20.2698C8.92681 20.4025 8.92733 20.5352 8.92787 20.672C8.92797 20.7935 8.92807 20.9151 8.92818 21.0404C8.92871 21.496 8.93013 21.9516 8.93144 22.4073C8.93353 23.4253 8.93563 24.4433 8.93778 25.4922C11.1163 25.4922 13.2948 25.4922 15.5393 25.4922C15.5519 24.4805 15.5645 23.4687 15.5774 22.4263C15.583 22.1075 15.5885 21.7887 15.5942 21.4602C15.596 21.2074 15.5976 20.9545 15.5989 20.7017C15.602 20.5705 15.6051 20.4394 15.6083 20.3042C15.6354 19.5746 15.6354 19.5746 15.3071 18.959C14.8283 18.6685 14.2516 18.7208 13.7108 18.7288C13.5934 18.7288 13.476 18.7288 13.355 18.7288C13.1074 18.7293 12.8597 18.7311 12.6121 18.734C12.2332 18.7383 11.8544 18.7382 11.4755 18.7375C11.2346 18.7386 10.9937 18.7399 10.7528 18.7415C10.583 18.7415 10.583 18.7415 10.4098 18.7415C10.304 18.7432 10.1982 18.7448 10.0893 18.7464C9.95027 18.7477 9.95027 18.7477 9.80848 18.749C9.49199 18.7975 9.29816 18.9081 9.03935 19.0938ZM8.22685 27.8281C7.63382 29.0142 7.38143 29.6198 7.39451 30.8715C7.39471 30.9646 7.39492 31.0577 7.39513 31.1536C7.39619 31.4988 7.39902 31.8439 7.40165 32.189C7.40584 32.9619 7.41003 33.7349 7.41435 34.5313C10.0956 34.5313 12.7768 34.5313 15.5393 34.5313C15.5393 32.3192 15.5393 30.1072 15.5393 27.8281C13.1262 27.8281 10.7131 27.8281 8.22685 27.8281Z" fill="black"></path><path d="M36.3598 25.3637C36.4732 25.3635 36.5866 25.3633 36.7034 25.3631C36.9417 25.3629 37.18 25.3633 37.4183 25.3642C37.7807 25.3653 38.143 25.3642 38.5053 25.3629C38.7381 25.363 38.9708 25.3633 39.2036 25.3637C39.3107 25.3633 39.4178 25.3629 39.5281 25.3624C40.6324 25.3693 41.5655 25.5083 42.4536 26.2032C43.263 27.0433 43.4847 27.9883 43.484 29.1317C43.4843 29.209 43.4846 29.2864 43.485 29.3661C43.486 29.6207 43.4862 29.8754 43.4863 30.13C43.4866 30.3083 43.4869 30.4867 43.4873 30.6651C43.4879 31.0388 43.4881 31.4126 43.488 31.7864C43.488 32.2624 43.4894 32.7383 43.4911 33.2143C43.4923 33.5829 43.4925 33.9515 43.4924 34.3201C43.4926 34.4954 43.493 34.6707 43.4938 34.846C43.5036 37.244 43.5036 37.244 43.0185 38.3335C42.9768 38.4297 42.935 38.526 42.892 38.6251C42.7596 38.8957 42.6127 39.1506 42.4536 39.4063C42.5553 39.4027 42.657 39.3992 42.7618 39.3956C44.2482 39.3592 44.2482 39.3592 44.8784 39.8633C45.0935 40.1501 45.1072 40.4216 45.1085 40.7661C45.109 40.8572 45.1096 40.9484 45.1102 41.0423C45.1103 41.142 45.1105 41.2417 45.1106 41.3444C45.1111 41.4497 45.1116 41.5549 45.1121 41.6633C45.1136 42.012 45.1143 42.3607 45.1148 42.7094C45.1154 42.9514 45.116 43.1934 45.1166 43.4354C45.1177 43.9431 45.1183 44.4507 45.1186 44.9584C45.1192 45.6092 45.1216 46.2601 45.1245 46.9109C45.1264 47.4108 45.1269 47.9108 45.1271 48.4107C45.1274 48.6507 45.1282 48.8906 45.1295 49.1306C45.1313 49.4661 45.1311 49.8016 45.1304 50.1371C45.1313 50.2364 45.1323 50.3358 45.1332 50.4381C45.1301 50.9407 45.1197 51.2886 44.7895 51.6953C44.4162 52.0492 44.1098 52.0569 43.6128 52.0437C43.2401 51.9773 43.0791 51.7892 42.8598 51.4922C42.7337 51.24 42.746 51.0727 42.7467 50.7905C42.7468 50.6854 42.7468 50.5803 42.7468 50.472C42.7473 50.3612 42.7478 50.2504 42.7483 50.1362C42.7485 50.0346 42.7486 49.933 42.7487 49.8283C42.7492 49.4477 42.7506 49.0671 42.7519 48.6865C42.754 47.8361 42.7561 46.9856 42.7583 46.1094C40.01 46.1094 37.2617 46.1094 34.4301 46.1094C34.4422 47.7578 34.4422 47.7578 34.4576 49.4061C34.4585 49.6131 34.4593 49.8201 34.4599 50.0271C34.4622 50.1877 34.4622 50.1877 34.4646 50.3515C34.465 51.2925 34.465 51.2925 34.1255 51.6953C33.7521 52.0492 33.4458 52.0569 32.9488 52.0437C32.5761 51.9773 32.415 51.7892 32.1958 51.4922C32.0251 51.1508 32.0811 50.765 32.0827 50.3897C32.0827 50.2965 32.0826 50.2034 32.0826 50.1074C32.0827 49.7986 32.0835 49.4897 32.0843 49.1809C32.0845 48.9671 32.0846 48.7534 32.0847 48.5396C32.0851 47.9763 32.0861 47.4129 32.0872 46.8496C32.0883 46.275 32.0887 45.7005 32.0892 45.1259C32.0903 43.998 32.0921 42.8701 32.0942 41.7422C31.5244 41.7422 30.9547 41.7422 30.3676 41.7422C30.3708 42.1305 30.3708 42.1305 30.3741 42.5266C30.3808 43.382 30.3853 44.2373 30.3887 45.0926C30.3908 45.6112 30.3937 46.1298 30.3983 46.6484C30.4027 47.1489 30.4051 47.6493 30.4062 48.1498C30.4069 48.3407 30.4084 48.5317 30.4106 48.7226C30.4135 48.99 30.414 49.2574 30.4138 49.5249C30.4152 49.6038 30.4167 49.6827 30.4182 49.764C30.4154 50.1352 30.3809 50.3538 30.183 50.6717C29.895 50.9461 29.5888 51.0638 29.2187 51.1875C29.1117 51.2251 29.1117 51.2251 29.0024 51.2634C28.854 51.3151 28.7054 51.3662 28.5566 51.4165C28.3463 51.4888 28.1382 51.5655 27.9301 51.6438C27.2061 51.9106 26.4722 52.1726 25.6958 52C25.4016 51.7764 25.2496 51.6155 25.0864 51.2891C25.0499 50.7333 25.0424 50.4272 25.3911 49.9688C25.6446 49.8224 25.6446 49.8224 25.9433 49.7085C26.1046 49.6465 26.1046 49.6465 26.269 49.5832C27.7428 49.0547 27.7428 49.0547 28.0317 49.0547C28.0317 46.6416 28.0317 44.2285 28.0317 41.7422C26.3559 41.7422 24.6801 41.7422 22.9536 41.7422C22.9595 42.4243 22.9654 43.1064 22.9714 43.8092C22.974 44.2415 22.9765 44.6738 22.9784 45.1061C22.9814 45.7922 22.985 46.4782 22.9919 47.1643C22.9974 47.7174 23.0004 48.2705 23.0018 48.8237C23.0027 49.0347 23.0045 49.2457 23.0073 49.4566C23.011 49.7523 23.0115 50.0478 23.0112 50.3435C23.0131 50.4306 23.0149 50.5177 23.0168 50.6074C23.0131 51.0355 22.9827 51.3073 22.7088 51.6465C22.324 52.0151 22.0819 52.0403 21.565 52.0361C21.1633 51.9748 20.9928 51.7863 20.7192 51.4922C20.6134 51.1748 20.6051 50.9556 20.6054 50.6227C20.6053 50.5052 20.6052 50.3877 20.605 50.2666C20.6054 50.1376 20.6057 50.0086 20.6061 49.8757C20.6061 49.7385 20.6061 49.6014 20.6061 49.4643C20.606 49.0918 20.6066 48.7194 20.6073 48.347C20.608 47.9578 20.608 47.5687 20.6082 47.1795C20.6085 46.4425 20.6093 45.7055 20.6103 44.9685C20.6115 44.1295 20.612 43.2905 20.6125 42.4514C20.6136 40.7255 20.6154 38.9995 20.6176 37.2735C20.5073 37.277 20.3969 37.2805 20.2832 37.2842C19.8242 37.2711 19.6424 37.1641 19.2973 36.8672C19.1288 36.5243 19.0682 36.244 19.0647 35.8639C19.0634 35.7683 19.0621 35.6727 19.0608 35.5742C19.0605 35.4721 19.0603 35.37 19.0601 35.2648C19.0594 35.1588 19.0587 35.0527 19.058 34.9435C19.057 34.7196 19.0565 34.4957 19.0566 34.2717C19.0561 33.9298 19.0524 33.588 19.0486 33.2461C19.048 33.0282 19.0476 32.8103 19.0474 32.5925C19.0459 32.4906 19.0445 32.3887 19.043 32.2837C19.0469 31.6803 19.0959 31.3329 19.5005 30.875C19.8324 30.6537 19.9244 30.6467 20.3083 30.6475C20.4121 30.6472 20.516 30.6469 20.6229 30.6466C20.7937 30.6477 20.7937 30.6477 20.9678 30.6488C21.0877 30.6488 21.2076 30.6488 21.3312 30.6488C21.66 30.6489 21.9888 30.6499 22.3176 30.6513C22.6612 30.6526 23.0048 30.6527 23.3484 30.6529C23.9991 30.6536 24.6497 30.6552 25.3004 30.6573C26.0412 30.6595 26.782 30.6607 27.5227 30.6617C29.0466 30.6638 30.5704 30.6674 32.0942 30.6719C32.091 30.5553 32.091 30.5553 32.0878 30.4363C32.0792 30.079 32.074 29.7217 32.0688 29.3643C32.0654 29.242 32.062 29.1197 32.0585 28.9937C32.046 27.844 32.2966 27.0307 33.0963 26.194C33.999 25.3856 35.205 25.3592 36.3598 25.3637ZM34.6333 28.0313C34.4191 28.3525 34.4049 28.4264 34.4057 28.7929C34.4054 28.8864 34.4052 28.98 34.4049 29.0764C34.4056 29.1788 34.4063 29.2812 34.4071 29.3868C34.4071 29.4948 34.407 29.6028 34.407 29.7141C34.4071 30.0719 34.4087 30.4296 34.4103 30.7873C34.4107 31.0351 34.411 31.2829 34.4112 31.5306C34.412 32.1833 34.4139 32.836 34.4162 33.4887C34.4183 34.1544 34.4192 34.8202 34.4202 35.486C34.4224 36.7928 34.4258 38.0995 34.4301 39.4063C34.9901 39.4164 35.55 39.4237 36.11 39.4286C36.3001 39.4306 36.4903 39.4334 36.6803 39.4369C38.0691 39.4621 39.1549 39.4359 40.2144 38.4327C40.9386 37.5786 41.1479 36.6633 41.1496 35.5711C41.1501 35.4945 41.1506 35.418 41.1512 35.3391C41.1526 35.0877 41.1533 34.8363 41.1539 34.5848C41.1545 34.4093 41.1551 34.2338 41.1557 34.0583C41.1567 33.6911 41.1573 33.3239 41.1577 32.9567C41.1582 32.4866 41.1607 32.0165 41.1636 31.5463C41.1654 31.1841 41.166 30.8219 41.1661 30.4597C41.1664 30.2864 41.1673 30.113 41.1686 29.9397C41.1703 29.6973 41.1701 29.4551 41.1695 29.2127C41.1704 29.1414 41.1713 29.0701 41.1723 28.9967C41.1686 28.557 41.1126 28.2704 40.8286 27.9297C40.4821 27.7399 40.187 27.7007 39.7957 27.6987C39.6427 27.6972 39.6427 27.6972 39.4865 27.6958C39.3774 27.6959 39.2684 27.6959 39.156 27.696C39.0429 27.6956 38.9299 27.6952 38.8134 27.6947C38.5747 27.6941 38.336 27.6941 38.0974 27.6945C37.7322 27.6948 37.3672 27.6925 37.0021 27.6899C36.77 27.6897 36.538 27.6896 36.3059 27.6897C36.1968 27.6888 36.0877 27.6878 35.9753 27.6869C35.2499 27.681 35.2499 27.681 34.6333 28.0313ZM21.4301 33.0078C21.4301 33.6446 21.4301 34.2814 21.4301 34.9375C24.9493 34.9375 28.4684 34.9375 32.0942 34.9375C32.0942 34.3007 32.0942 33.6639 32.0942 33.0078C28.5751 33.0078 25.0559 33.0078 21.4301 33.0078ZM22.9536 37.2735C22.9536 37.9773 22.9536 38.6811 22.9536 39.4063C25.97 39.4063 28.9864 39.4063 32.0942 39.4063C32.0942 38.7024 32.0942 37.9986 32.0942 37.2735C29.0778 37.2735 26.0614 37.2735 22.9536 37.2735ZM34.4301 41.7422C34.4301 42.446 34.4301 43.1499 34.4301 43.875C37.1784 43.875 39.9267 43.875 42.7583 43.875C42.7583 43.1712 42.7583 42.4674 42.7583 41.7422C40.01 41.7422 37.2617 41.7422 34.4301 41.7422Z" fill="black"></path><path d="M19.9543 -0.0278761C20.0711 -0.0286738 20.0711 -0.0286738 20.1903 -0.0294877C20.452 -0.0310151 20.7138 -0.0310829 20.9755 -0.0311506C21.1628 -0.0319244 21.3502 -0.0327803 21.5375 -0.0337123C22.047 -0.0359445 22.5565 -0.0368352 23.066 -0.0373509C23.3841 -0.0377206 23.7023 -0.0383541 24.0205 -0.0390776C25.13 -0.0415665 26.2395 -0.0428912 27.349 -0.0432508C28.384 -0.0436202 29.4189 -0.046657 30.4538 -0.0509091C31.3418 -0.0544298 32.2298 -0.0560018 33.1177 -0.0560727C33.6483 -0.0561534 34.1789 -0.0570469 34.7095 -0.0599318C35.2085 -0.0625843 35.7075 -0.0628184 36.2065 -0.0611856C36.3897 -0.0610008 36.5729 -0.0616854 36.7562 -0.0633C37.0062 -0.0653693 37.256 -0.0643117 37.5061 -0.0624658C37.5787 -0.0638065 37.6513 -0.0651471 37.7261 -0.0665283C38.1206 -0.0598701 38.2781 -0.00988525 38.5865 0.245081C38.8592 0.584162 38.9121 0.738242 38.915 1.16307C38.9159 1.25818 38.9167 1.35329 38.9176 1.45128C38.9183 1.6083 38.9183 1.6083 38.9189 1.76848C38.9202 1.93348 38.9202 1.93348 38.9215 2.10181C38.924 2.46707 38.9257 2.83233 38.9271 3.1976C38.9277 3.32215 38.9282 3.4467 38.9288 3.57502C38.9312 4.16621 38.9331 4.7574 38.9344 5.3486C38.9358 5.96281 38.9385 6.57698 38.9432 7.19117C38.9482 7.84993 38.9508 8.50865 38.9515 9.16743C38.9522 9.41865 38.9537 9.66987 38.9561 9.92108C38.9594 10.2727 38.9594 10.6241 38.9586 10.9758C38.9603 11.0796 38.9619 11.1835 38.9637 11.2905C38.9596 11.7501 38.9526 12.0841 38.6608 12.4536C38.2706 12.8039 38.007 12.8083 37.5019 12.7945C37.3798 12.7915 37.2577 12.7885 37.1319 12.7855C37.066 12.7836 37.0001 12.7818 36.9322 12.7799C36.5703 12.7699 36.2084 12.7618 35.8464 12.7535C35.7691 12.7517 35.6918 12.7499 35.6122 12.748C34.5296 12.7233 33.4469 12.7135 32.3641 12.7028C31.4844 12.6938 30.6053 12.6796 29.7259 12.6537C25.5769 12.3044 25.5769 12.3044 21.8885 13.6979C21.3772 14.1954 20.9891 14.766 20.6149 15.3698C20.4079 15.6502 20.305 15.7445 19.9738 15.8345C19.5237 15.8457 19.276 15.7727 18.8915 15.539C18.6117 15.1631 18.5487 14.8944 18.5482 14.4299C18.5473 14.3095 18.5464 14.189 18.5456 14.0649C18.5462 13.9336 18.5468 13.8023 18.5474 13.6671C18.547 13.5267 18.5465 13.3864 18.5458 13.2461C18.5444 12.8656 18.545 12.4852 18.5459 12.1048C18.5467 11.7064 18.546 11.308 18.5455 10.9095C18.5449 10.2405 18.5457 9.57152 18.5471 8.90251C18.5488 8.12938 18.5482 7.35627 18.5466 6.58314C18.5452 5.91898 18.545 5.25483 18.5458 4.59067C18.5463 4.19415 18.5463 3.79765 18.5453 3.40114C18.5444 3.02833 18.5451 2.65556 18.5468 2.28275C18.5474 2.08091 18.5465 1.87907 18.5456 1.67723C18.5464 1.55677 18.5473 1.43632 18.5482 1.31221C18.5483 1.1555 18.5483 1.1555 18.5485 0.995618C18.5935 0.661318 18.6922 0.473331 18.8915 0.203093C19.2598 -0.0423938 19.5288 -0.0293046 19.9543 -0.0278761ZM20.9228 2.23434C20.9228 5.3513 20.9228 8.46825 20.9228 11.6797C21.4401 11.2369 21.4401 11.2369 21.947 10.7825C22.476 10.4169 23.1126 10.4913 23.7306 10.4955C23.8708 10.4946 24.011 10.4936 24.1512 10.4923C24.5301 10.4894 24.909 10.4897 25.2879 10.4905C25.6845 10.4908 26.0811 10.4882 26.4778 10.486C27.2281 10.4822 27.9783 10.481 28.7286 10.4807C29.7431 10.4801 30.7574 10.4756 31.7718 10.4712C33.369 10.4646 34.9662 10.4632 36.5634 10.4609C36.5634 7.74614 36.5634 5.03137 36.5634 2.23434C31.402 2.23434 26.2406 2.23434 20.9228 2.23434Z" fill="#1198DE"></path><path d="M47.2266 11.4766C47.9585 12.1414 48.3679 12.8455 48.4835 13.8331C48.5228 14.869 48.2617 15.7696 47.6016 16.5769C46.5998 17.6319 45.3641 17.7757 43.9766 17.875C43.7735 17.878 43.5704 17.8792 43.3673 17.875C43.377 17.9709 43.3866 18.0667 43.3966 18.1654C43.5447 19.8801 43.2613 21.3877 42.1485 22.75C41.0624 24.022 39.7007 24.6601 38.0519 24.8126C36.3597 24.8496 34.8338 24.2272 33.6105 23.0571C32.4297 21.7768 32.0172 20.1897 32.0804 18.4849C32.1755 17.0385 32.9151 15.7356 33.9619 14.7621C35.2159 13.7083 36.7757 13.2869 38.3907 13.4063C39.4631 13.5613 40.3349 13.9169 41.2345 14.5235C41.2579 14.4168 41.2813 14.3101 41.3055 14.2001C41.6001 12.909 41.9441 11.9745 43.0626 11.1719C44.4222 10.4082 45.993 10.4857 47.2266 11.4766ZM44.1798 13.3047C43.8138 13.7709 43.6699 14.1987 43.545 14.7647C43.5275 14.8394 43.5099 14.9142 43.4918 14.9912C43.4492 15.1736 43.4081 15.3563 43.3673 15.5391C44.7846 15.5278 44.7846 15.5278 45.9698 14.8662C46.154 14.4141 46.169 14.0722 46.0079 13.6094C45.7685 13.2817 45.4779 13.128 45.0938 13C44.7002 13 44.5059 13.0849 44.1798 13.3047ZM35.1431 16.9979C34.509 17.8577 34.3212 18.6406 34.4298 19.7031C34.6814 20.6966 35.2433 21.4768 36.1131 22.0133C36.9652 22.4538 37.7709 22.5678 38.6954 22.3311C39.2211 22.158 39.6084 21.9021 40.0157 21.5313C40.0797 21.4739 40.1437 21.4166 40.2097 21.3575C40.8238 20.7395 41.1031 19.9635 41.1488 19.0973C41.1129 18.4581 40.9365 17.9235 40.6251 17.3672C40.5896 17.3034 40.5541 17.2397 40.5176 17.174C40.0428 16.4233 39.2828 16.0076 38.4379 15.7902C37.1835 15.5497 35.9614 16.0194 35.1431 16.9979Z" fill="black"></path><path d="M33.6177 5.07807C33.886 5.30076 34.0713 5.47756 34.2271 5.78901C34.2654 6.29724 34.2384 6.6014 33.9224 7.00776C33.7286 7.22392 33.5914 7.30086 33.3047 7.34498C32.8947 7.36538 32.662 7.34819 32.3037 7.13471C31.9904 6.7929 31.9018 6.61771 31.8594 6.15083C31.8939 5.75674 31.944 5.58336 32.1958 5.2812C32.6664 4.95285 33.0803 4.89342 33.6177 5.07807Z" fill="#1198DE"></path><path d="M29.5928 5.28763C29.8828 5.61206 29.9561 5.77341 29.9785 6.19614C29.9427 6.61125 29.7579 6.89068 29.4913 7.19827C29.1187 7.37478 28.7412 7.36746 28.336 7.31253C27.944 7.15178 27.7934 6.99728 27.6251 6.60159C27.5552 6.1378 27.5603 5.80028 27.7965 5.38919C28.3801 4.86861 28.9288 4.88185 29.5928 5.28763Z" fill="#1198DE"></path><path d="M25.0739 5.27494C25.3641 5.55658 25.412 5.72528 25.4294 6.11918C25.427 6.48007 25.3808 6.67751 25.1501 6.95707C24.7583 7.33018 24.5194 7.34784 23.9956 7.34111C23.6494 7.29798 23.4874 7.16294 23.2585 6.90629C23.0296 6.53174 23.028 6.20472 23.095 5.78236C23.1992 5.4518 23.3956 5.2847 23.6647 5.07817C24.1383 4.85716 24.6583 4.99486 25.0739 5.27494Z" fill="#1198DE"></path></g><defs><clipPath id="clip0_1559_928"><rect width="52" height="52" fill="white"></rect></clipPath></defs></svg>