<svg xmlns="http://www.w3.org/2000/svg" width="52" height="52" viewBox="0 0 52 52" fill="none"><g clip-path="url(#clip0_1559_937)"><path d="M5.36624 -0.0385856C5.46552 -0.0394427 5.56481 -0.0402999 5.6671 -0.0411831C5.77592 -0.0405727 5.88474 -0.0399623 5.99686 -0.0393334C6.17058 -0.0401538 6.17058 -0.0401538 6.34781 -0.0409909C6.7374 -0.0424485 7.12695 -0.0417178 7.51654 -0.0409962C7.7953 -0.0414081 8.07406 -0.0422721 8.35282 -0.0431085C9.03256 -0.0448569 9.71229 -0.0449388 10.392 -0.0444072C10.945 -0.0439968 11.4981 -0.0441433 12.0511 -0.0446863C12.1298 -0.0447623 12.2085 -0.0448383 12.2896 -0.0449167C12.4495 -0.0450722 12.6094 -0.0452284 12.7693 -0.0453854C14.2701 -0.0467806 15.7709 -0.0462264 17.2717 -0.0450619C18.6423 -0.0440551 20.0129 -0.0453637 21.3834 -0.0477974C22.792 -0.0502795 24.2005 -0.0512491 25.6091 -0.0505748C26.3994 -0.050221 27.1896 -0.0504414 27.9799 -0.0522253C28.6534 -0.0537268 29.3268 -0.0537771 30.0003 -0.052015C30.3434 -0.0511551 30.6864 -0.0511447 31.0295 -0.0524874C33.4112 -0.0610921 35.4763 0.19348 37.2655 1.90942C38.6093 3.25163 39.5005 4.88374 39.5422 6.81951C39.5422 7.08383 39.5405 7.34816 39.5374 7.61247C39.5368 7.75418 39.5364 7.89589 39.5361 8.03761C39.5349 8.40627 39.5319 8.7749 39.5285 9.14355C39.5254 9.52146 39.524 9.89937 39.5225 10.2773C39.5192 11.0156 39.5141 11.7539 39.5076 12.4922C39.5907 12.4987 39.6737 12.5053 39.7593 12.512C39.8685 12.5208 39.9778 12.5296 40.0904 12.5386C40.1986 12.5472 40.3068 12.5558 40.4182 12.5647C43.7574 12.8798 46.8903 14.9189 49.0027 17.4467C51.3956 20.4762 52.2425 24.1369 51.8661 27.9507C51.7833 28.5306 51.6523 29.0932 51.492 29.6563C51.4735 29.724 51.455 29.7918 51.436 29.8615C50.5655 32.9834 48.4227 35.7434 45.7029 37.4766C45.534 37.5844 45.534 37.5844 45.3617 37.6944C43.7667 38.6555 41.9522 39.314 40.09 39.4617C39.9807 39.4704 39.8715 39.4792 39.759 39.4882C39.6346 39.4979 39.6346 39.4979 39.5076 39.5079C39.5085 39.6212 39.5094 39.7345 39.5103 39.8512C39.5186 40.9225 39.5247 41.9938 39.5287 43.0651C39.5308 43.6157 39.5336 44.1664 39.5383 44.7171C39.5427 45.2492 39.5451 45.7812 39.5462 46.3133C39.5469 46.5157 39.5484 46.718 39.5506 46.9203C39.5678 48.5688 39.4104 49.7252 38.2222 50.9555C37.5158 51.6102 36.66 52.0119 35.6968 52.0137C35.5821 52.0141 35.4673 52.0146 35.3491 52.015C35.16 52.015 35.16 52.015 34.967 52.015C34.8331 52.0154 34.6992 52.0157 34.5612 52.0161C34.1891 52.0171 33.817 52.0175 33.4448 52.0178C33.0436 52.0182 32.6424 52.0192 32.2412 52.02C31.2721 52.022 30.3029 52.0231 29.3338 52.024C28.8772 52.0244 28.4207 52.025 27.9642 52.0255C26.4464 52.0272 24.9286 52.0287 23.4108 52.0294C23.017 52.0296 22.6231 52.0298 22.2293 52.03C22.1314 52.0301 22.0335 52.0301 21.9326 52.0302C20.3474 52.031 18.7621 52.0336 17.1768 52.0369C15.5488 52.0402 13.9208 52.0421 12.2928 52.0424C11.3789 52.0426 10.4651 52.0435 9.55117 52.0461C8.77277 52.0483 7.99438 52.0491 7.21597 52.0481C6.81904 52.0477 6.42213 52.0479 6.02521 52.0498C5.66125 52.0516 5.29734 52.0515 4.93338 52.0499C4.74056 52.0496 4.54775 52.0512 4.35494 52.053C3.02942 52.043 2.09399 51.6303 1.14595 50.7146C0.530473 50.0506 0.0949791 49.2054 0.0833894 48.2924C0.0820858 48.2026 0.0807822 48.1128 0.0794392 48.0202C0.0786889 47.9239 0.0779387 47.8277 0.0771657 47.7285C0.0763459 47.6288 0.0755261 47.5291 0.0746815 47.4265C0.0732784 47.2159 0.0721883 47.0052 0.0713884 46.7946C0.0696362 46.4728 0.0651762 46.151 0.0607015 45.8291C0.0596733 45.6243 0.0588083 45.4196 0.0581228 45.2148C0.0563446 45.1187 0.0545664 45.0226 0.0527344 44.9237C0.054175 44.4866 0.0602102 44.2463 0.294499 43.8675C0.673333 43.5198 0.995242 43.557 1.48595 43.5604C1.60049 43.5606 1.60049 43.5607 1.71734 43.5609C1.96156 43.5614 2.20578 43.5627 2.45 43.564C2.61543 43.5645 2.78087 43.565 2.94631 43.5654C3.35216 43.5665 3.75801 43.5683 4.16387 43.5704C4.16375 43.4801 4.16363 43.3898 4.16352 43.2968C4.1567 37.9495 4.15147 32.6023 4.14831 27.255C4.14793 26.6134 4.14753 25.9718 4.14713 25.3301C4.14705 25.2024 4.14697 25.0747 4.14689 24.9431C4.14556 22.873 4.14316 20.8029 4.14036 18.7328C4.13751 16.6097 4.13582 14.4867 4.1352 12.3636C4.13478 11.0528 4.13346 9.74212 4.13099 8.43139C4.12938 7.53337 4.12889 6.63534 4.12928 5.73731C4.12948 5.21869 4.12917 4.70009 4.12755 4.18148C4.12607 3.70704 4.12598 3.23262 4.12703 2.75818C4.12716 2.58621 4.12677 2.41424 4.12582 2.24228C4.1246 2.00909 4.12525 1.77598 4.12637 1.54279C4.12626 1.41309 4.12614 1.2834 4.12602 1.14977C4.17775 0.688788 4.32675 0.439285 4.66001 0.12306C4.91594 -0.0235208 5.07242 -0.0382273 5.36624 -0.0385856ZM6.4998 2.23442C6.4998 15.8753 6.4998 29.5161 6.4998 43.5704C15.1004 43.5837 15.1004 43.5837 23.701 43.5915C25.362 43.5956 25.362 43.5956 26.1389 43.5982C26.6831 43.5998 27.2272 43.6001 27.7714 43.5994C28.4649 43.5985 29.1583 43.6003 29.8517 43.6037C30.1066 43.6045 30.3616 43.6045 30.6165 43.6035C30.9601 43.6024 31.3035 43.6043 31.6471 43.607C31.7978 43.6054 31.7978 43.6054 31.9515 43.6037C32.4184 43.6106 32.6349 43.6213 33.0188 43.9068C33.2681 44.2613 33.2814 44.5562 33.2754 44.9748C33.2765 45.0508 33.2775 45.1268 33.2786 45.2051C33.2816 45.4474 33.2813 45.6894 33.2806 45.9317C33.2013 47.7013 33.2013 47.7013 33.9582 49.2134C34.3623 49.5675 34.8099 49.7447 35.3436 49.7657C35.9681 49.6396 36.4231 49.4076 36.867 48.9532C37.1854 48.4442 37.2142 48.0443 37.2063 47.4635C37.2063 47.3341 37.2063 47.3341 37.2064 47.2021C37.2062 46.9185 37.2038 46.635 37.2014 46.3514C37.2009 46.1542 37.2004 45.957 37.2001 45.7597C37.199 45.2418 37.196 44.7239 37.1926 44.2059C37.1895 43.677 37.1881 43.148 37.1866 42.619C37.1833 41.5819 37.1781 40.5449 37.1717 39.5079C37.1021 39.4937 37.0325 39.4795 36.9608 39.465C36.6417 39.3999 36.3227 39.3342 36.0037 39.2686C35.8395 39.2352 35.8395 39.2352 35.672 39.2012C32.9544 38.6404 30.6732 37.357 28.6849 35.4263C28.6347 35.3788 28.5846 35.3314 28.533 35.2824C28.2505 35.0012 28.033 34.7378 27.8301 34.3905C27.3893 33.6344 27.3893 33.6344 26.6698 33.1825C26.2549 33.1364 25.8607 33.1341 25.4445 33.1482C25.288 33.1483 25.1316 33.1477 24.9752 33.1466C24.553 33.1452 24.1314 33.1525 23.7094 33.1612C23.2668 33.1688 22.8242 33.168 22.3816 33.1679C21.544 33.1691 20.7067 33.1771 19.8692 33.1879C18.3684 33.207 16.8674 33.2134 15.3664 33.2187C14.8399 33.2208 14.3135 33.2256 13.787 33.2328C13.4599 33.2369 13.1327 33.2395 12.8056 33.2417C12.654 33.2431 12.5024 33.2452 12.3508 33.2481C12.1438 33.252 11.9367 33.2531 11.7297 33.2541C11.6139 33.2556 11.4981 33.2571 11.3788 33.2586C11.0001 33.2002 10.8328 33.0708 10.5623 32.8047C10.406 32.3846 10.4134 32.0019 10.5877 31.5923C10.8167 31.3224 10.9806 31.1886 11.3376 31.1531C11.4459 31.1526 11.5542 31.152 11.6658 31.1514C11.7902 31.1503 11.9145 31.1492 12.0426 31.148C12.1806 31.1478 12.3186 31.1475 12.4566 31.1473C12.6017 31.1464 12.7468 31.1454 12.892 31.1443C13.2862 31.1415 13.6805 31.1399 14.0747 31.1386C14.4867 31.137 14.8986 31.1343 15.3105 31.1317C16.0907 31.127 16.8708 31.1232 17.651 31.1199C18.5392 31.116 19.4273 31.111 20.3154 31.1059C22.1425 31.0954 23.9696 31.0863 25.7967 31.0782C25.776 31.0099 25.7553 30.9416 25.7339 30.8713C25.7067 30.7809 25.6794 30.6906 25.6513 30.5975C25.6243 30.5083 25.5973 30.419 25.5695 30.3271C25.4614 29.9581 25.3697 29.5864 25.2825 29.212C25.2581 29.1106 25.2581 29.1106 25.2331 29.0072C25.1311 28.5731 25.0504 28.1379 24.9781 27.6978C24.9601 27.5888 24.9421 27.4799 24.9236 27.3676C24.9033 27.2437 24.9033 27.2437 24.8826 27.1172C24.8119 27.1171 24.7412 27.1169 24.6683 27.1168C22.9476 27.113 21.2269 27.107 19.5061 27.0986C18.674 27.0945 17.8419 27.0912 17.0098 27.0897C16.2845 27.0884 15.5592 27.0856 14.8339 27.0812C14.4499 27.0789 14.0659 27.0773 13.6818 27.0774C13.3203 27.0775 12.9588 27.0757 12.5972 27.0724C12.4014 27.0711 12.2056 27.0719 12.0099 27.0727C11.8929 27.0712 11.776 27.0698 11.6556 27.0684C11.5542 27.068 11.4528 27.0676 11.3483 27.0672C10.993 27.0014 10.8204 26.8574 10.5623 26.6094C10.406 26.1893 10.4134 25.8066 10.5877 25.397C10.8106 25.1343 10.9752 24.9944 11.3233 24.9578C11.4757 24.957 11.4757 24.957 11.6311 24.9561C11.7478 24.955 11.8644 24.9539 11.9846 24.9527C12.1126 24.9525 12.2407 24.9523 12.3727 24.952C12.5088 24.9511 12.6449 24.9501 12.781 24.9489C13.1507 24.9462 13.5204 24.9446 13.8902 24.9433C14.2765 24.9417 14.6628 24.939 15.0491 24.9364C15.7807 24.9316 16.5123 24.9279 17.2439 24.9246C18.0768 24.9207 18.9097 24.9157 19.7425 24.9105C21.4559 24.9 23.1693 24.891 24.8826 24.8829C24.8959 24.8123 24.9091 24.7418 24.9228 24.6691C24.9847 24.3424 25.0479 24.016 25.1111 23.6895C25.1424 23.5232 25.1424 23.5232 25.1742 23.3535C25.3078 22.6692 25.4833 22.021 25.7176 21.3642C25.8073 21.1349 25.8073 21.1349 25.7967 20.9219C25.6835 20.9217 25.6835 20.9217 25.5681 20.9215C23.733 20.9177 21.8978 20.9117 20.0627 20.9032C19.1752 20.8992 18.2878 20.8959 17.4003 20.8944C16.6268 20.8931 15.8533 20.8903 15.0798 20.8859C14.6702 20.8836 14.2607 20.882 13.8511 20.8821C13.4655 20.8822 13.08 20.8804 12.6945 20.8771C12.553 20.8762 12.4116 20.8761 12.2701 20.8766C12.0768 20.8773 11.8835 20.8753 11.6903 20.8731C11.5821 20.8727 11.474 20.8723 11.3626 20.8719C10.9973 20.8075 10.826 20.6699 10.5623 20.4141C10.406 19.994 10.4134 19.6113 10.5877 19.2017C10.8244 18.9228 10.9854 18.7961 11.3544 18.7656C11.5287 18.767 11.5287 18.767 11.7066 18.7683C11.9068 18.7691 11.9068 18.7691 12.1109 18.7698C12.2591 18.7713 12.4073 18.7729 12.5555 18.7744C12.7114 18.7753 12.8672 18.7761 13.023 18.7768C13.3588 18.7784 13.6947 18.7805 14.0305 18.783C14.5619 18.7866 15.0933 18.7878 15.6247 18.7884C15.7144 18.7885 15.8041 18.7886 15.8965 18.7887C16.0799 18.7889 16.2633 18.7892 16.4468 18.7894C17.684 18.7909 18.9211 18.7941 20.1583 18.8041C20.9927 18.8108 21.8271 18.8135 22.6616 18.8117C23.1031 18.8109 23.5444 18.8122 23.9858 18.8183C24.4015 18.824 24.8168 18.8245 25.2325 18.821C25.3846 18.8207 25.5368 18.8222 25.6889 18.8258C26.5488 18.8551 26.5488 18.8551 27.2757 18.4482C27.4823 18.1643 27.6529 17.8744 27.8279 17.5704C28.1186 17.2182 28.4285 16.8866 28.742 16.5547C28.8116 16.4785 28.8813 16.4023 28.953 16.3238C31.1623 13.9918 34.105 13.0498 37.1717 12.4922C37.1717 11.1516 37.1717 9.81098 37.1717 8.42973C36.7817 8.42829 36.3917 8.42685 35.9898 8.42536C35.612 8.42225 35.2342 8.41828 34.8564 8.41423C34.5939 8.41188 34.3313 8.41041 34.0688 8.40987C33.6913 8.40892 33.314 8.40476 32.9366 8.39997C32.8193 8.40037 32.7019 8.40077 32.581 8.40118C31.7711 8.38646 31.7711 8.38646 31.3617 8.10151C30.2959 6.45669 31.0156 4.19393 30.9764 2.23442C22.8991 2.23442 14.8218 2.23442 6.4998 2.23442ZM33.3123 2.43754C33.3123 3.67762 33.3123 4.9177 33.3123 6.19535C34.5524 6.19535 35.7925 6.19535 37.0701 6.19535C36.8703 4.9966 36.1574 4.02517 35.2154 3.26869C34.6668 2.88669 33.9965 2.43754 33.3123 2.43754ZM30.1392 18.3703C28.1732 20.4098 27.1734 23.167 27.1868 25.9746C27.1874 26.1005 27.188 26.2264 27.1885 26.356C27.2005 27.2579 27.2617 28.0775 27.5232 28.9454C27.5429 29.0123 27.5625 29.0793 27.5827 29.1483C28.3463 31.6957 30.0072 34.0459 32.2967 35.4454C32.4017 35.5119 32.5067 35.5784 32.6149 35.6469C35.0958 37.1734 38.0799 37.5872 40.9152 36.9874C41.2648 36.8929 41.6037 36.7848 41.9451 36.6641C42.0703 36.6201 42.1954 36.5761 42.3244 36.5308C44.537 35.7166 46.5931 34.1135 47.8357 32.0938C47.8948 32.0014 47.9538 31.9089 48.0147 31.8137C49.5621 29.2961 50.0238 26.2131 49.3571 23.3275C49.0082 22.0035 48.4439 20.7067 47.6326 19.6016C47.5737 19.5203 47.5148 19.439 47.4541 19.3552C45.6421 16.9785 43.0739 15.3224 40.0972 14.8631C40.0032 14.8516 39.9092 14.84 39.8123 14.8282C39.7015 14.8145 39.5908 14.8009 39.4767 14.7869C35.8794 14.4465 32.6536 15.8428 30.1392 18.3703ZM2.4373 45.8047C2.23812 47.9043 2.23812 47.9043 3.12285 49.3404C3.82504 49.813 4.57819 49.7948 5.39646 49.7901C5.56423 49.7904 5.56423 49.7904 5.73538 49.7906C6.10902 49.791 6.48263 49.7898 6.85626 49.7887C7.12455 49.7887 7.39283 49.7887 7.66111 49.7888C8.23812 49.7889 8.81513 49.7883 9.39214 49.7871C10.2264 49.7855 11.0606 49.785 11.8949 49.7847C13.2485 49.7843 14.6022 49.7829 15.9558 49.781C17.2705 49.7791 18.5851 49.7777 19.8997 49.7768C20.0213 49.7767 20.0213 49.7767 20.1454 49.7767C20.5522 49.7764 20.9591 49.7761 21.3659 49.7759C24.7386 49.7738 28.1114 49.7702 31.4842 49.7657C31.4634 49.703 31.4425 49.6402 31.4211 49.5756C31.3937 49.4896 31.3664 49.4036 31.3382 49.315C31.3111 49.2313 31.284 49.1477 31.2561 49.0615C30.9999 48.0195 31.0287 46.8509 30.9764 45.8047C21.5585 45.8047 12.1406 45.8047 2.4373 45.8047Z" fill="black"></path><path d="M38.8982 17.6719C39.1943 17.883 39.4502 18.1299 39.7107 18.3829C40.7735 19.3963 41.843 19.8325 43.3082 19.8218C43.573 19.8045 43.8183 19.7565 44.0779 19.7032C44.6272 19.6543 45.054 19.6431 45.4998 20.0079C45.7055 20.3165 45.7287 20.3797 45.7324 20.7267C45.7337 20.8099 45.735 20.8932 45.7363 20.9789C45.7365 21.069 45.7368 21.1591 45.737 21.252C45.738 21.3933 45.738 21.3933 45.7391 21.5374C45.7401 21.7379 45.7406 21.9383 45.7405 22.1388C45.741 22.4386 45.7446 22.7383 45.7485 23.0381C45.769 26.4657 44.544 29.526 42.1482 31.9922C41.2096 32.9337 39.6668 34.39 38.2507 34.4424C35.6972 33.65 33.6309 31.2312 32.3945 28.9547C31.2424 26.7565 30.9754 24.4328 30.9573 21.982C30.956 21.8768 30.9546 21.7717 30.9533 21.6633C30.9519 20.4741 30.9519 20.4741 31.3826 19.9761C31.6793 19.7257 31.8464 19.6892 32.2268 19.6905C32.3039 19.6902 32.381 19.6899 32.4605 19.6897C32.7188 19.704 32.9573 19.7538 33.2107 19.8047C34.3512 19.8971 35.509 19.6456 36.4607 18.9922C36.7392 18.7418 36.9999 18.4748 37.2531 18.199C37.7637 17.6495 38.1601 17.4593 38.8982 17.6719ZM37.9461 20.7823C36.543 21.8555 35.0157 22.0829 33.3123 22.2422C33.3648 25.6599 34.223 28.2971 36.7027 30.7037C37.4314 31.395 37.4314 31.395 38.2888 31.8907C39.8525 31.4985 41.266 29.6119 42.0466 28.336C42.9493 26.78 43.3877 25.168 43.3733 23.3721C43.3728 23.2634 43.3724 23.1548 43.3719 23.0428C43.3707 22.776 43.3691 22.5091 43.367 22.2422C43.3072 22.2362 43.2475 22.2301 43.186 22.2239C41.4712 22.0423 40.0843 21.7749 38.7026 20.672C38.3559 20.4147 38.2497 20.5325 37.9461 20.7823Z" fill="#1198DE"></path><path d="M11.7025 6.25751C11.8322 6.25651 11.962 6.2555 12.0956 6.25447C12.2391 6.2549 12.3827 6.25536 12.5262 6.25585C12.6775 6.25527 12.8289 6.25456 12.9802 6.25374C13.3911 6.25192 13.8019 6.25204 14.2128 6.25262C14.5558 6.25293 14.8988 6.25231 15.2418 6.2517C16.051 6.25027 16.8602 6.25043 17.6694 6.25159C18.5042 6.25275 19.339 6.25132 20.1738 6.2486C20.8905 6.24635 21.6073 6.24568 22.3241 6.24627C22.7522 6.24662 23.1802 6.24637 23.6083 6.24462C24.0109 6.24305 24.4134 6.24345 24.8159 6.24536C24.9636 6.24574 25.1113 6.24542 25.259 6.24436C25.4607 6.24302 25.6624 6.24443 25.8641 6.24598C25.977 6.24601 26.0898 6.24603 26.2061 6.24605C26.5783 6.30862 26.7476 6.44337 27.0163 6.70314C27.2041 7.07864 27.1662 7.51204 27.1179 7.92189C26.9354 8.2199 26.8189 8.37608 26.5085 8.53126C26.3066 8.54189 26.1043 8.54588 25.9021 8.54689C25.7728 8.54777 25.6435 8.54864 25.5103 8.54954C25.3662 8.54999 25.2221 8.55043 25.078 8.55085C24.9269 8.55165 24.7758 8.55249 24.6246 8.55337C24.1275 8.55603 23.6303 8.55759 23.1332 8.55903C22.9621 8.55958 22.791 8.56012 22.6199 8.56067C21.9083 8.56287 21.1967 8.56477 20.485 8.56592C19.4649 8.56756 18.4448 8.57093 17.4246 8.57672C16.7075 8.58065 15.9904 8.58264 15.2733 8.58317C14.8449 8.58354 14.4166 8.58477 13.9882 8.58806C13.5851 8.59111 13.182 8.59175 12.7788 8.59056C12.631 8.59054 12.4832 8.59138 12.3354 8.59316C11.0798 8.60749 11.0798 8.60749 10.6794 8.28813C10.3611 7.90125 10.3208 7.60034 10.3601 7.10939C10.6282 6.46022 11.0208 6.25901 11.7025 6.25751Z" fill="#1198DE"></path><path d="M11.6827 31.0414C11.8707 31.0408 11.8707 31.0408 12.0625 31.0402C12.2011 31.0412 12.3396 31.0423 12.4782 31.0435C12.6244 31.0436 12.7705 31.0435 12.9167 31.0433C13.3132 31.0433 13.7098 31.0451 14.1064 31.0472C14.5209 31.0491 14.9354 31.0493 15.3499 31.0496C16.1347 31.0506 16.9195 31.0531 17.7044 31.0561C18.5979 31.0595 19.4915 31.0612 20.385 31.0627C22.223 31.0659 24.061 31.0713 25.8991 31.0781C26.0856 31.4312 26.2717 31.7847 26.4577 32.1381C26.5109 32.239 26.5642 32.3399 26.6191 32.4438C26.6695 32.5397 26.7199 32.6356 26.7719 32.7344C26.8421 32.8676 26.8421 32.8676 26.9137 33.0036C27.0162 33.2109 27.0162 33.2109 27.0162 33.3124C24.9478 33.3243 22.8793 33.3333 20.8108 33.3388C19.8503 33.3414 18.8899 33.3449 17.9295 33.3508C17.0923 33.3558 16.2552 33.3591 15.4181 33.3602C14.9748 33.3609 14.5316 33.3624 14.0884 33.3661C13.6711 33.3696 13.2538 33.3706 12.8365 33.3699C12.6834 33.37 12.5304 33.371 12.3773 33.373C11.0767 33.3887 11.0767 33.3887 10.6762 33.0694C10.3618 32.6816 10.3208 32.3801 10.36 31.8906C10.6236 31.2524 11.01 31.0397 11.6827 31.0414Z" fill="#1198DE"></path><path d="M11.7253 18.6509C11.7908 18.6506 11.8562 18.6504 11.9237 18.6501C12.1428 18.6496 12.3618 18.6513 12.581 18.653C12.7381 18.653 12.8953 18.653 13.0524 18.6528C13.479 18.6527 13.9056 18.6545 14.3321 18.6567C14.7779 18.6586 15.2238 18.6587 15.6696 18.6591C16.5138 18.66 17.3579 18.6625 18.2021 18.6656C19.1632 18.669 20.1243 18.6707 21.0854 18.6722C23.0624 18.6754 25.0394 18.6808 27.0164 18.6875C26.644 19.4323 26.2716 20.1771 25.8992 20.9219C23.9764 20.9338 22.0536 20.9427 20.1308 20.9482C19.2379 20.9508 18.3451 20.9544 17.4523 20.9602C16.6741 20.9653 15.8959 20.9686 15.1177 20.9697C14.7057 20.9704 14.2937 20.9719 13.8817 20.9756C13.4937 20.9791 13.1058 20.9801 12.7178 20.9794C12.5755 20.9795 12.4333 20.9805 12.2911 20.9825C11.0829 20.9982 11.0829 20.9982 10.6828 20.6789C10.3605 20.2928 10.3208 19.9926 10.3602 19.5C10.6338 18.8376 11.032 18.6492 11.7253 18.6509Z" fill="#1198DE"></path><path d="M11.6246 37.2334C11.7372 37.2323 11.8498 37.2311 11.9659 37.2299C12.089 37.2302 12.2121 37.2305 12.3389 37.2308C12.5339 37.2295 12.5339 37.2295 12.7329 37.2282C13.0892 37.226 13.4455 37.2257 13.8018 37.2259C14.0993 37.2259 14.3969 37.225 14.6945 37.2242C15.3966 37.2222 16.0986 37.2219 16.8007 37.2226C17.5248 37.2233 18.2487 37.2209 18.9728 37.2172C19.5947 37.2141 20.2166 37.2129 20.8385 37.2133C21.2098 37.2135 21.5811 37.213 21.9524 37.2105C22.3665 37.2078 22.7805 37.2092 23.1946 37.211C23.3175 37.2096 23.4404 37.2083 23.567 37.2069C24.4914 37.2162 24.4914 37.2162 24.8041 37.5186C25.0969 37.9455 25.1419 38.2845 25.0858 38.7969C24.9196 39.1611 24.8126 39.2837 24.4764 39.5079C24.2313 39.5343 24.2313 39.5343 23.9349 39.5357C23.8226 39.5367 23.7103 39.5377 23.5945 39.5388C23.4712 39.5388 23.3479 39.5389 23.2209 39.539C23.091 39.5398 22.9612 39.5407 22.8275 39.5415C22.4711 39.5438 22.1148 39.5447 21.7585 39.5452C21.5358 39.5455 21.3131 39.5462 21.0904 39.5469C20.3133 39.5494 19.5363 39.5507 18.7592 39.5511C18.0352 39.5514 17.3112 39.5545 16.5873 39.5587C15.9655 39.5623 15.3437 39.5638 14.7219 39.5639C14.3506 39.564 13.9794 39.5649 13.6081 39.5678C13.1938 39.5709 12.7795 39.57 12.3652 39.5687C12.1812 39.571 12.1812 39.571 11.9934 39.5733C11.0665 39.5652 11.0665 39.5652 10.6903 39.2646C10.3961 38.9254 10.362 38.7379 10.3418 38.3042C10.3742 37.8985 10.5514 37.6803 10.8439 37.4148C11.1243 37.2396 11.2953 37.2347 11.6246 37.2334Z" fill="black"></path><path d="M11.6246 12.4522C11.7372 12.451 11.8498 12.4499 11.9659 12.4487C12.089 12.449 12.2121 12.4493 12.3389 12.4496C12.5339 12.4483 12.5339 12.4483 12.7329 12.447C13.0892 12.4447 13.4455 12.4444 13.8018 12.4446C14.0993 12.4446 14.3969 12.4438 14.6945 12.4429C15.3966 12.441 16.0986 12.4407 16.8007 12.4413C17.5248 12.442 18.2487 12.4397 18.9728 12.4359C19.5947 12.4328 20.2166 12.4317 20.8385 12.4321C21.2098 12.4323 21.5811 12.4317 21.9524 12.4292C22.3665 12.4265 22.7805 12.4279 23.1946 12.4297C23.3175 12.4284 23.4404 12.427 23.567 12.4257C24.4914 12.435 24.4914 12.435 24.8041 12.7373C25.0969 13.1643 25.1419 13.5032 25.0858 14.0157C24.9196 14.3798 24.8126 14.5025 24.4764 14.7266C24.2313 14.753 24.2313 14.753 23.9349 14.7544C23.8226 14.7555 23.7103 14.7565 23.5945 14.7575C23.4712 14.7576 23.3479 14.7576 23.2209 14.7577C23.091 14.7586 22.9612 14.7594 22.8275 14.7603C22.4711 14.7625 22.1148 14.7634 21.7585 14.7639C21.5358 14.7643 21.3131 14.7649 21.0904 14.7656C20.3133 14.7681 19.5363 14.7695 18.7592 14.7698C18.0352 14.7702 17.3112 14.7732 16.5873 14.7775C15.9655 14.781 15.3437 14.7826 14.7219 14.7826C14.3506 14.7827 13.9794 14.7836 13.6081 14.7865C13.1938 14.7897 12.7795 14.7887 12.3652 14.7875C12.1812 14.7897 12.1812 14.7897 11.9934 14.792C11.0665 14.7839 11.0665 14.7839 10.6903 14.4834C10.3961 14.1442 10.362 13.9566 10.3418 13.5229C10.3742 13.1173 10.5514 12.899 10.8439 12.6336C11.1243 12.4584 11.2953 12.4534 11.6246 12.4522Z" fill="black"></path></g><defs><clipPath id="clip0_1559_937"><rect width="52" height="52" fill="white"></rect></clipPath></defs></svg>