<svg xmlns="http://www.w3.org/2000/svg" width="52" height="52" viewBox="0 0 52 52" fill="none"><g clip-path="url(#clip0_1559_911)"><path d="M28.7123 -0.0539239C28.8921 -0.0541984 29.0718 -0.0545934 29.2515 -0.0551017C29.6257 -0.0556961 29.9998 -0.0548444 30.3739 -0.0529321C30.8506 -0.0506126 31.3272 -0.0519561 31.8039 -0.0543834C32.1741 -0.055859 32.5443 -0.0553808 32.9145 -0.0543315C33.0902 -0.0540628 33.2659 -0.0543846 33.4416 -0.0553388C34.7744 -0.0609947 35.9566 0.045488 36.9695 1.01566C37.0249 1.09145 37.0803 1.16725 37.1375 1.24534C37.4138 1.62241 37.6231 1.88865 38.0866 2.00844C38.4386 2.03159 38.7815 2.031 39.134 2.01859C40.8058 1.99257 42.2369 2.35695 43.5548 3.44284C44.6433 4.50184 45.397 5.88581 45.4222 7.41905C45.4222 7.65544 45.421 7.89183 45.419 8.1282C45.4185 8.31584 45.4185 8.31584 45.4181 8.50727C45.417 8.9046 45.4144 9.30192 45.4118 9.69925C45.4107 9.96955 45.4099 10.2399 45.4091 10.5102C45.4068 11.1709 45.4034 11.8315 45.3991 12.4922C45.5178 12.5137 45.5178 12.5137 45.6388 12.5356C46.3835 12.6971 47.009 13.3013 47.4304 13.9141C48.0073 14.8996 48.0846 15.9614 47.8795 17.0772C47.5539 18.1116 46.7919 18.8754 45.8518 19.3866C45.0456 19.7531 44.2412 19.7275 43.3679 19.7032C43.3732 19.7976 43.3732 19.7976 43.3786 19.894C43.4547 22.3839 42.2987 24.8112 40.6471 26.6205C39.8269 27.4878 38.9205 28.2284 37.8073 28.6851C37.5612 28.7855 37.5612 28.7855 37.3757 28.9453C37.2618 29.2893 37.2504 29.6013 37.2741 29.961C37.3421 29.9747 37.41 29.9885 37.48 30.0026C39.5898 30.4756 41.6018 31.5395 43.2663 32.9063C43.3228 32.9521 43.3793 32.9979 43.4376 33.0451C46.6917 35.6945 48.961 39.5275 49.42 43.7429C49.4433 44.0587 49.4605 44.3709 49.4616 44.6875C49.5951 44.6828 49.7285 44.6781 49.8659 44.6732C50.0422 44.6694 50.2185 44.6657 50.3948 44.6621C50.4825 44.6587 50.5703 44.6553 50.6608 44.6518C51.0929 44.6452 51.3261 44.6471 51.7012 44.8795C52.0145 45.2186 52.0144 45.418 52.0187 45.8713C52.02 45.9916 52.0213 46.112 52.0226 46.236C52.0238 46.432 52.0238 46.432 52.0249 46.6319C52.0257 46.7657 52.0265 46.8994 52.0274 47.0372C52.0289 47.3208 52.0299 47.6043 52.0307 47.8879C52.0318 48.2506 52.0353 48.6132 52.0393 48.9759C52.0426 49.3223 52.0431 49.6688 52.044 50.0152C52.0457 50.1452 52.0475 50.2753 52.0493 50.4092C52.049 50.5306 52.0487 50.6519 52.0484 50.7768C52.049 50.8834 52.0496 50.9899 52.0502 51.0996C51.9881 51.4647 51.8482 51.6339 51.5945 51.8985C51.2731 52.0591 50.9276 52.0143 50.5747 52.0137C50.4889 52.0139 50.403 52.0141 50.3146 52.0144C50.0239 52.0151 49.7332 52.015 49.4425 52.015C49.2332 52.0153 49.0239 52.0157 48.8146 52.0161C48.2371 52.0171 47.6595 52.0175 47.082 52.0178C46.4601 52.0182 45.8382 52.0191 45.2162 52.02C43.7842 52.0219 42.3522 52.023 40.9202 52.0238C40.2129 52.0243 39.5056 52.0248 38.7983 52.0253C36.3781 52.0271 33.958 52.0287 31.5378 52.0294C31.3858 52.0295 31.2338 52.0295 31.0819 52.0296C31.0065 52.0296 30.9311 52.0296 30.8535 52.0296C30.4716 52.0298 30.0897 52.0299 29.7078 52.03C29.5941 52.03 29.5941 52.03 29.4782 52.0301C27.0201 52.0309 24.562 52.0333 22.1039 52.0366C19.5064 52.04 16.9089 52.0421 14.3114 52.0424C14.0264 52.0424 13.7415 52.0425 13.4565 52.0425C13.3863 52.0425 13.3161 52.0426 13.2438 52.0426C12.1132 52.0428 10.9825 52.0444 9.85182 52.0465C8.71594 52.0485 7.58007 52.0491 6.4442 52.0481C5.82849 52.0477 5.21281 52.0479 4.5971 52.0498C4.03396 52.0516 3.47085 52.0515 2.90771 52.0499C2.70349 52.0497 2.49927 52.0501 2.29505 52.0513C2.01835 52.0529 1.74177 52.0519 1.46507 52.0503C1.38499 52.0513 1.30491 52.0524 1.22241 52.0534C0.844269 52.0486 0.630348 52.0131 0.309086 51.8065C-0.01648 51.4717 -0.0129678 51.2735 -0.0172696 50.8163C-0.019225 50.6357 -0.0192265 50.6357 -0.0212214 50.4516C-0.0219716 50.3209 -0.0227203 50.1903 -0.0234933 50.0557C-0.0243131 49.9219 -0.0251344 49.7881 -0.025979 49.6503C-0.0275053 49.3668 -0.0285028 49.0832 -0.0292706 48.7997C-0.0303937 48.437 -0.0338869 48.0744 -0.0379212 47.7117C-0.0412195 47.3652 -0.0416732 47.0188 -0.0425363 46.6724C-0.0443144 46.5423 -0.0460941 46.4123 -0.0479262 46.2783C-0.0476291 46.157 -0.0473304 46.0357 -0.0470243 45.9107C-0.04762 45.8042 -0.0482143 45.6977 -0.0488281 45.5879C0.0133055 45.2229 0.153219 45.0536 0.406957 44.7891C0.692422 44.6464 0.928139 44.6751 1.24757 44.6753C1.34674 44.6752 1.34674 44.6752 1.44792 44.6751C1.67046 44.6749 1.89298 44.6754 2.11552 44.676C2.27464 44.676 2.43377 44.676 2.5929 44.676C3.02577 44.6759 3.45864 44.6765 3.89152 44.6772C4.34357 44.6779 4.79562 44.6779 5.24767 44.678C6.1041 44.6784 6.96052 44.6792 7.81694 44.6802C8.79178 44.6814 9.76662 44.6819 10.7415 44.6824C12.7471 44.6835 14.7528 44.6853 16.7585 44.6875C16.7571 44.4984 16.7571 44.4984 16.7557 44.3054C16.7273 40.4621 19.104 36.6575 21.6462 33.9727C23.2665 32.3987 26.4449 29.961 28.8445 29.961C28.8982 29.5863 28.8869 29.298 28.7429 28.9453C28.3557 28.6495 27.9354 28.4469 27.5012 28.2289C26.0447 27.4525 24.8712 25.987 24.071 24.5782C24.0138 24.4792 23.9566 24.3802 23.8976 24.2782C23.119 22.8353 22.8696 21.3196 22.7507 19.7032C22.6733 19.7055 22.596 19.7079 22.5162 19.7103C21.2692 19.7321 20.4713 19.492 19.4309 18.8145C18.6204 18.0259 18.2405 17.075 18.1744 15.9608C18.1939 14.9119 18.5644 14.0506 19.2932 13.3043C20.1799 12.4922 20.1799 12.4922 20.7195 12.4922C20.719 12.4254 20.7186 12.3586 20.7181 12.2897C20.7136 11.5877 20.7105 10.8858 20.7083 10.1838C20.7073 9.92254 20.7059 9.66133 20.7041 9.40012C20.7016 9.02243 20.7005 8.64476 20.6996 8.26706C20.6986 8.15221 20.6975 8.03737 20.6964 7.91904C20.6961 5.59944 21.3368 3.62871 22.9538 1.92972C24.6636 0.42566 26.4987 -0.0659969 28.7123 -0.0539239ZM24.2825 3.96216C23.2496 5.27112 23.0377 6.70511 23.0455 8.32181C23.0456 8.43563 23.0458 8.54945 23.0459 8.66671C23.0465 9.02782 23.0478 9.38892 23.049 9.75003C23.0496 9.99587 23.05 10.2417 23.0504 10.4875C23.0516 11.0881 23.0532 11.6886 23.0554 12.2891C24.1237 12.2938 25.192 12.2974 26.2603 12.2996C26.7565 12.3007 27.2526 12.3021 27.7487 12.3044C28.2281 12.3066 28.7075 12.3078 29.187 12.3084C29.3692 12.3087 29.5515 12.3095 29.7338 12.3106C31.7432 12.3222 33.2144 12.0504 34.7097 10.6133C34.9382 10.38 35.1254 10.1421 35.3064 9.87064C35.5578 9.53314 35.6479 9.41959 36.0554 9.34378C36.406 9.3204 36.5559 9.31165 36.8679 9.44534C37.2941 9.82669 37.638 10.2708 37.9823 10.7256C38.7502 11.6326 39.9679 12.1676 41.1335 12.2891C41.4671 12.298 41.8004 12.2963 42.1341 12.2939C42.2235 12.2935 42.313 12.2932 42.4052 12.2928C42.6245 12.2919 42.8439 12.2906 43.0632 12.2891C43.0762 11.5738 43.085 10.8585 43.0911 10.143C43.0936 9.90013 43.0971 9.65723 43.1015 9.41435C43.1077 9.06337 43.1106 8.7125 43.1128 8.36148C43.1154 8.25447 43.118 8.14746 43.1207 8.03721C43.1211 7.13193 42.877 6.28134 42.3269 5.54788C41.5121 4.77013 40.6155 4.32112 39.4855 4.32596C39.4092 4.32486 39.3329 4.32376 39.2543 4.32262C38.9317 4.31801 38.609 4.3168 38.2864 4.3153C38.0492 4.3137 37.8121 4.31035 37.5749 4.30692C37.5028 4.30722 37.4307 4.30753 37.3565 4.30785C36.8835 4.30075 36.5591 4.20966 36.157 3.96097C36.0114 3.75269 36.0114 3.75269 35.9094 3.52298C35.6706 3.05605 35.4022 2.69624 34.9382 2.43753C34.2118 2.20418 33.5183 2.20493 32.7598 2.20743C32.6288 2.20723 32.4978 2.20704 32.3629 2.20684C32.0864 2.20654 31.8099 2.20697 31.5334 2.20792C31.1829 2.20908 30.8324 2.20842 30.4819 2.2072C30.143 2.20628 29.8042 2.20693 29.4653 2.20743C29.2794 2.20681 29.2794 2.20681 29.0898 2.20618C27.2055 2.2163 25.6278 2.55104 24.2825 3.96216ZM35.7634 12.7525C34.1027 14.2537 32.1192 14.5465 29.9565 14.5655C29.8149 14.5674 29.6733 14.5694 29.5318 14.5715C29.164 14.5766 28.7962 14.5807 28.4284 14.5845C28.0511 14.5886 27.6739 14.5938 27.2966 14.5988C26.56 14.6086 25.8233 14.6172 25.0866 14.625C25.0814 15.3511 25.0779 16.0772 25.0755 16.8033C25.0745 17.0498 25.0731 17.2962 25.0713 17.5426C25.0527 20.2042 25.2282 22.5553 27.0163 24.6797C27.0938 24.7824 27.1713 24.885 27.2512 24.9908C28.6856 26.5585 30.6756 27.3693 32.7637 27.5457C34.8103 27.6195 36.7752 26.8976 38.3088 25.5557C38.4735 25.4009 38.6365 25.2444 38.7976 25.086C38.8687 25.0162 38.9398 24.9464 39.013 24.8745C40.1951 23.6325 41.0471 21.8213 41.0435 20.0924C41.0435 19.9684 41.0435 19.8444 41.0435 19.7167C41.0429 19.5838 41.0424 19.4509 41.0419 19.314C41.0417 19.1758 41.0415 19.0376 41.0414 18.8994C41.0411 18.537 41.0401 18.1745 41.0389 17.812C41.0379 17.4416 41.0374 17.0713 41.0369 16.7009C41.0358 15.9751 41.0341 15.2493 41.032 14.5235C40.9221 14.5041 40.8122 14.4848 40.699 14.4649C40.5525 14.4384 40.406 14.4119 40.2595 14.3854C40.1513 14.3665 40.1513 14.3665 40.0409 14.3472C38.7658 14.1143 37.6311 13.503 36.6584 12.6509C36.2131 12.2624 36.1497 12.3796 35.7634 12.7525ZM20.9226 15.0313C20.6201 15.3442 20.5334 15.6123 20.5163 16.0469C20.7025 16.6153 20.9253 16.9864 21.4431 17.291C21.8486 17.4099 21.8486 17.4099 22.7507 17.3672C22.7507 16.4623 22.7507 15.5574 22.7507 14.625C21.6607 14.5448 21.6607 14.5448 20.9226 15.0313ZM43.3679 14.625C43.3679 15.53 43.3679 16.4349 43.3679 17.3672C44.5479 17.4026 44.5479 17.4026 45.3864 16.7959C45.6625 16.3575 45.7 16.0442 45.6023 15.5391C45.3519 15.0384 45.1848 14.923 44.6882 14.625C44.2525 14.625 43.8168 14.625 43.3679 14.625ZM31.1804 29.6563C31.1782 29.8344 31.1782 29.8344 31.176 30.0161C31.1713 30.1734 31.1664 30.3306 31.1614 30.4878C31.1608 30.5659 31.1602 30.644 31.1596 30.7245C31.1429 31.1547 31.116 31.3357 30.8408 31.6844C30.5534 31.9041 30.3105 32.0045 29.9616 32.0938C30.3447 33.0091 30.8203 33.6085 31.7136 34.0616C32.757 34.4725 33.7197 34.3611 34.7351 33.9219C35.465 33.5277 35.9958 32.882 36.2585 32.0938C36.1961 32.0715 36.1336 32.0493 36.0693 32.0263C35.9872 31.9941 35.9051 31.9619 35.8205 31.9287C35.7392 31.8981 35.6579 31.8675 35.5742 31.8359C35.2544 31.6294 35.1734 31.4322 35.0398 31.0782C34.9878 30.7076 34.9878 30.7076 34.9699 30.3291C34.9599 30.1394 34.9599 30.1394 34.9497 29.9459C34.944 29.8025 34.944 29.8025 34.9382 29.6563C34.8274 29.6673 34.8274 29.6673 34.7145 29.6785C33.5233 29.7884 32.3711 29.7638 31.1804 29.6563ZM24.5788 34.6328C24.4783 34.6999 24.3777 34.7669 24.2741 34.836C24.4114 35.1336 24.5689 35.3719 24.7788 35.6231C24.8368 35.6933 24.8948 35.7634 24.9545 35.8357C25.0149 35.908 25.0752 35.9803 25.1374 36.0547C25.2573 36.1983 25.3769 36.3422 25.4961 36.4864C25.549 36.5497 25.602 36.6131 25.6565 36.6784C25.9661 37.0929 26.0513 37.419 26.0396 37.9308C25.9656 38.4195 25.7263 38.8303 25.4929 39.2603C25.4445 39.353 25.396 39.4458 25.3461 39.5414C25.2274 39.7681 25.1071 39.9938 24.9851 40.2188C25.6995 40.9422 26.4597 41.6172 27.2274 42.2834C27.3688 42.4064 27.5094 42.5303 27.6495 42.6547C27.7233 42.7202 27.7972 42.7856 27.8733 42.8531C27.9402 42.9126 28.0071 42.9722 28.076 43.0336C28.2139 43.1748 28.2139 43.1748 28.3366 43.1641C28.3508 41.9934 28.3616 40.8227 28.3682 39.6519C28.3714 39.1081 28.3757 38.5644 28.3826 38.0207C28.3893 37.4952 28.3929 36.9697 28.3945 36.4442C28.3956 36.2445 28.3978 36.0448 28.4011 35.8451C28.4196 34.6826 28.4042 33.7958 27.7273 32.8047C26.774 32.8047 25.3018 34.0656 24.5788 34.6328ZM38.3913 32.9063C37.6622 33.9782 37.7015 34.9709 37.7224 36.2213C37.7236 36.4223 37.7245 36.6232 37.7251 36.8241C37.7274 37.3491 37.7333 37.8739 37.7401 38.3989C37.7464 38.9361 37.7491 39.4733 37.7522 40.0105C37.7587 41.0617 37.7691 42.1129 37.782 43.1641C38.1922 42.9261 38.5158 42.6655 38.8611 42.3389C39.3485 41.8824 39.8511 41.4537 40.3746 41.0384C40.7767 40.7025 40.7767 40.7025 41.1335 40.3203C41.1475 39.7933 40.7709 39.3133 40.5122 38.8683C40.2721 38.4389 40.127 38.0812 40.1179 37.5782C40.3075 36.9302 40.7103 36.4832 41.1462 35.9785C41.2759 35.8271 41.4053 35.6753 41.5342 35.5231C41.5913 35.4569 41.6484 35.3907 41.7072 35.3225C41.8647 35.1339 41.8647 35.1339 41.946 34.836C41.1475 34.2651 40.3484 33.7086 39.4831 33.2427C39.4203 33.2083 39.3574 33.174 39.2927 33.1386C38.9564 32.9626 38.7811 32.9063 38.3913 32.9063ZM30.6726 36.1563C30.6726 38.9716 30.6726 41.7869 30.6726 44.6875C32.2478 44.6875 33.8231 44.6875 35.446 44.6875C35.446 41.8722 35.446 39.0569 35.446 36.1563C34.893 36.3071 34.893 36.3071 34.3288 36.461C33.2037 36.6485 32.2865 36.5157 31.1804 36.2578C31.0128 36.2243 30.8452 36.1908 30.6726 36.1563ZM22.446 36.6641C20.494 38.6491 19.0945 41.9028 19.0945 44.6875C21.5076 44.6875 23.9207 44.6875 26.407 44.6875C26.097 44.3001 25.8764 44.0615 25.4992 43.7671C24.9907 43.3599 24.5109 42.9306 24.0354 42.4854C23.7277 42.1976 23.4158 41.9185 23.0935 41.647C22.5753 41.1902 22.5753 41.1902 22.446 40.8282C22.4212 39.9808 22.809 39.3691 23.225 38.6614C23.271 38.5798 23.317 38.4982 23.3644 38.4141C23.4074 38.3412 23.4504 38.2683 23.4946 38.1932C23.5877 37.9825 23.5877 37.9825 23.4846 37.7694C23.3333 37.537 23.174 37.3154 23.0046 37.0957C22.9428 37.0146 22.881 36.9334 22.8174 36.8498C22.7618 36.7885 22.7063 36.7272 22.6491 36.6641C22.5821 36.6641 22.5151 36.6641 22.446 36.6641ZM43.3441 36.8871C43.2176 37.0343 43.2176 37.0343 43.0886 37.1846C43.0032 37.2812 42.9179 37.3778 42.8299 37.4774C42.6243 37.7651 42.6243 37.7651 42.7018 38.0634C42.9513 38.5792 43.2027 39.0937 43.4681 39.6017C43.7241 40.1182 43.8469 40.4537 43.6726 41.0313C43.3159 41.6393 42.6964 42.0725 42.1531 42.5043C41.7501 42.8354 41.3706 43.1883 40.9898 43.5444C40.6941 43.8205 40.396 44.0907 40.0862 44.3511C39.9961 44.4286 39.906 44.5061 39.8132 44.586C39.8132 44.6195 39.8132 44.653 39.8132 44.6875C42.2263 44.6875 44.6395 44.6875 47.1257 44.6875C46.7688 41.8324 45.9543 39.4396 44.1804 37.1719C44.1098 37.078 44.0393 36.9842 43.9666 36.8875C43.9031 36.8137 43.8396 36.74 43.7741 36.6641C43.5421 36.6404 43.5421 36.6404 43.3441 36.8871ZM2.23508 46.9219C2.23508 47.8603 2.23508 48.7988 2.23508 49.7657C17.9204 49.7657 33.6057 49.7657 49.7663 49.7657C49.7663 48.8272 49.7663 47.8888 49.7663 46.9219C34.081 46.9219 18.3957 46.9219 2.23508 46.9219Z" fill="black"></path><path d="M8.4341 17.9602C8.53818 17.9592 8.64225 17.9582 8.74947 17.9572C8.86183 17.9568 8.97419 17.9563 9.08995 17.9559C9.26333 17.955 9.26333 17.955 9.44021 17.9541C9.68489 17.9532 9.92957 17.9525 10.1743 17.9521C10.5485 17.9511 10.9227 17.948 11.2969 17.9448C11.5346 17.9441 11.7722 17.9436 12.0099 17.9432C12.1218 17.942 12.2338 17.9407 12.3491 17.9394C12.5062 17.9399 12.5062 17.9399 12.6664 17.9403C12.7582 17.94 12.85 17.9396 12.9445 17.9392C13.2644 17.9852 13.4524 18.0907 13.7118 18.2812C14.0108 18.8089 14.059 19.2413 14.0463 19.8392C14.0458 19.9171 14.0454 19.995 14.045 20.0752C14.0433 20.3215 14.0395 20.5677 14.0356 20.8139C14.034 20.9819 14.0326 21.15 14.0314 21.318C14.0281 21.7276 14.0228 22.1372 14.0165 22.5468C14.1277 22.5452 14.2389 22.5437 14.3534 22.542C14.767 22.5365 15.1805 22.533 15.5941 22.5301C15.7729 22.5286 15.9517 22.5265 16.1305 22.5239C16.3879 22.5202 16.6453 22.5184 16.9027 22.5171C16.9823 22.5155 17.0619 22.5139 17.1439 22.5123C17.6097 22.5122 17.9289 22.5363 18.2821 22.8515C18.6344 23.4435 18.6314 23.9967 18.6273 24.6733C18.6277 24.8316 18.6277 24.8316 18.6282 24.993C18.6284 25.2153 18.6278 25.4376 18.6266 25.6599C18.6249 25.9989 18.6265 26.3378 18.6285 26.6768C18.6283 26.8934 18.6279 27.11 18.6273 27.3266C18.6279 27.4274 18.6285 27.5281 18.6292 27.6319C18.6233 28.2127 18.5822 28.6442 18.2821 29.1484C17.8698 29.5163 17.4294 29.4933 16.9027 29.4828C16.82 29.4824 16.7373 29.482 16.6521 29.4815C16.3893 29.4798 16.1265 29.476 15.8637 29.4721C15.685 29.4706 15.5062 29.4692 15.3275 29.468C14.8905 29.4646 14.4535 29.4594 14.0165 29.4531C14.0181 29.5571 14.0197 29.661 14.0214 29.7681C14.0269 30.1563 14.0304 30.5445 14.0333 30.9328C14.0348 31.1003 14.0369 31.2679 14.0395 31.4354C14.0432 31.6772 14.0449 31.919 14.0463 32.1608C14.0478 32.2349 14.0494 32.3089 14.051 32.3853C14.0512 32.903 13.969 33.2649 13.7118 33.7187C13.3575 33.9784 13.1061 34.0617 12.6696 34.0628C12.5656 34.0638 12.4615 34.0648 12.3543 34.0657C12.243 34.0651 12.1317 34.0645 12.017 34.0639C11.8441 34.0643 11.8441 34.0643 11.6676 34.0648C11.4241 34.065 11.1807 34.0644 10.9372 34.0631C10.5647 34.0615 10.1924 34.0631 9.81993 34.0651C9.58321 34.0649 9.3465 34.0645 9.10978 34.0639C8.94282 34.0648 8.94282 34.0648 8.77249 34.0657C8.6164 34.0643 8.6164 34.0643 8.45716 34.0628C8.366 34.0626 8.27484 34.0623 8.18092 34.0621C7.7893 34.0034 7.52096 33.8158 7.23274 33.5518C7.04672 33.1883 7.0729 32.8271 7.08052 32.4286C7.08095 32.3435 7.08138 32.2584 7.08182 32.1707C7.08352 31.8996 7.08735 31.6285 7.09123 31.3574C7.09276 31.1733 7.09415 30.9892 7.09539 30.8051C7.09875 30.3544 7.10401 29.9038 7.11027 29.4531C6.99909 29.4547 6.88792 29.4563 6.77337 29.4579C6.35981 29.4635 5.94625 29.4669 5.53265 29.4698C5.35386 29.4714 5.17506 29.4734 4.99628 29.4761C4.73887 29.4798 4.4815 29.4815 4.22407 29.4828C4.14449 29.4844 4.06492 29.486 3.98293 29.4876C3.51475 29.4878 3.21265 29.4447 2.84465 29.1484C2.55809 28.832 2.50114 28.6261 2.49731 28.2023C2.49569 28.0945 2.49408 27.9867 2.49241 27.8756C2.49239 27.7596 2.49237 27.6437 2.49235 27.5242C2.49158 27.4045 2.4908 27.2848 2.49001 27.1614C2.48891 26.9082 2.48862 26.655 2.48908 26.4018C2.48918 26.0148 2.48495 25.628 2.48045 25.241C2.47992 24.9949 2.47965 24.7488 2.47966 24.5027C2.47799 24.3872 2.47632 24.2716 2.47461 24.1526C2.48242 23.2563 2.48242 23.2563 2.77859 22.8816C3.22667 22.4934 3.6401 22.5333 4.20423 22.5369C4.28721 22.5371 4.37019 22.5372 4.45568 22.5374C4.72059 22.5379 4.9855 22.5392 5.25041 22.5405C5.43006 22.541 5.60971 22.5415 5.78936 22.5419C6.22967 22.543 6.66997 22.5448 7.11027 22.5468C7.10761 22.4331 7.10495 22.3194 7.10221 22.2022C7.09299 21.7787 7.08718 21.3551 7.08238 20.9314C7.07983 20.7484 7.07637 20.5653 7.07196 20.3823C7.06577 20.1186 7.06291 19.855 7.06068 19.5912C7.05806 19.5099 7.05544 19.4287 7.05274 19.3449C7.05253 18.9288 7.0852 18.6645 7.34823 18.3326C7.70995 17.9914 7.95588 17.9638 8.4341 17.9602ZM9.44621 20.3125C9.44123 20.5608 9.43626 20.8092 9.43113 21.0651C9.42564 21.3074 9.41982 21.5498 9.41397 21.7921C9.4101 21.9597 9.40656 22.1272 9.40336 22.2948C9.39869 22.5366 9.3928 22.7784 9.3867 23.0201C9.38494 23.1313 9.38494 23.1313 9.38314 23.2446C9.36979 23.7152 9.32404 24.1378 9.14152 24.5781C8.73314 24.8541 8.24068 24.8162 7.7621 24.8233C7.67941 24.8252 7.59671 24.8272 7.51152 24.8292C7.24871 24.8353 6.9859 24.84 6.72306 24.8447C6.54434 24.8486 6.36561 24.8525 6.18688 24.8566C5.7499 24.8665 5.31293 24.8746 4.8759 24.8828C4.8759 25.6201 4.8759 26.3575 4.8759 27.1172C5.14127 27.1221 5.40665 27.1271 5.68006 27.1322C5.93789 27.1377 6.1957 27.1435 6.45351 27.1494C6.6323 27.1533 6.81109 27.1568 6.98989 27.16C7.24732 27.1647 7.5047 27.1705 7.7621 27.1767C7.84167 27.1778 7.92125 27.179 8.00324 27.1802C8.8163 27.202 8.8163 27.202 9.14152 27.4218C9.35392 27.9342 9.37805 28.4337 9.3867 28.9798C9.38867 29.0577 9.39063 29.1356 9.39266 29.2158C9.39868 29.4621 9.40342 29.7083 9.40812 29.9546C9.412 30.1226 9.41597 30.2906 9.42002 30.4586C9.42988 30.8682 9.438 31.2778 9.44621 31.6875C10.1836 31.6875 10.9209 31.6875 11.6806 31.6875C11.6832 31.4148 11.6858 31.1421 11.6885 30.8611C11.6924 30.5962 11.697 30.3313 11.7017 30.0665C11.7045 29.8828 11.7067 29.699 11.7081 29.5153C11.7103 29.2508 11.715 28.9864 11.7203 28.7219C11.7204 28.6401 11.7205 28.5583 11.7206 28.4741C11.731 28.0758 11.7556 27.871 11.9701 27.5247C12.3726 27.1478 12.8233 27.1976 13.3449 27.1866C13.4278 27.1845 13.5108 27.1824 13.5963 27.1802C13.8612 27.1736 14.1261 27.1676 14.391 27.1616C14.5707 27.1572 14.7503 27.1528 14.93 27.1483C15.3703 27.1374 15.8106 27.1273 16.2509 27.1172C16.2509 26.3798 16.2509 25.6425 16.2509 24.8828C15.8528 24.8771 15.8528 24.8771 15.4467 24.8713C15.1889 24.8666 14.9311 24.8614 14.6733 24.8561C14.4945 24.8528 14.3157 24.8499 14.1369 24.8476C13.8795 24.8442 13.6221 24.8389 13.3647 24.8332C13.2851 24.8325 13.2055 24.8319 13.1236 24.8312C12.6606 24.8188 12.3516 24.7669 11.9853 24.4765C11.7242 24.0849 11.7465 23.7526 11.7401 23.2979C11.7381 23.2126 11.7362 23.1274 11.7341 23.0396C11.7281 22.7674 11.7233 22.4953 11.7187 22.2231C11.7148 22.0386 11.7108 21.854 11.7068 21.6695C11.6968 21.2172 11.6888 20.7648 11.6806 20.3125C10.9432 20.3125 10.2059 20.3125 9.44621 20.3125Z" fill="#1198DE"></path><path d="M41.9457 34.9375C42.6396 35.245 43.234 35.8512 43.6723 36.4609C43.4838 36.8859 43.1948 37.1928 42.8867 37.5361C42.7282 37.7771 42.7282 37.7771 42.8094 38.0554C43.0466 38.5788 43.3032 39.0923 43.5693 39.6016C43.8255 40.1184 43.9468 40.4531 43.7738 41.0312C43.3811 41.7263 42.6083 42.2468 42.004 42.7546C41.588 43.105 41.1875 43.4705 40.7877 43.8393C40.7006 43.9181 40.6135 43.9969 40.5238 44.0781C40.4734 44.132 40.423 44.186 40.371 44.2415C40.0277 44.5843 39.7903 44.7266 39.2991 44.747C39.1169 44.743 38.9348 44.7358 38.7528 44.7256C38.6123 44.7215 38.6123 44.7215 38.469 44.7173C38.2396 44.7101 38.0108 44.7001 37.7816 44.6875C37.5716 43.4672 37.5716 43.4672 37.9032 42.9887C38.237 42.6428 38.6245 42.3651 39.0142 42.0858C39.2976 41.8755 39.5487 41.6404 39.8065 41.3994C40.2082 41.031 40.6153 40.6719 41.0316 40.3203C40.9643 39.7708 40.6831 39.3375 40.4104 38.8683C40.1702 38.4388 40.0251 38.0812 40.016 37.5781C40.206 36.9321 40.6062 36.4786 41.038 35.9722C41.1027 35.8947 41.1675 35.8173 41.2342 35.7375C41.6955 35.1877 41.6955 35.1877 41.9457 34.9375Z" fill="#1198DE"></path><path d="M24.0697 34.9375C24.404 35.0803 24.5904 35.2436 24.8195 35.5239C24.8815 35.5993 24.9434 35.6747 25.0072 35.7524C25.0707 35.8312 25.1342 35.91 25.1996 35.9912C25.2639 36.0692 25.3282 36.1473 25.3944 36.2277C25.8544 36.7922 26.157 37.1839 26.1398 37.9308C26.0658 38.4194 25.8266 38.8303 25.5932 39.2603C25.5447 39.353 25.4963 39.4458 25.4464 39.5413C25.3277 39.7681 25.2073 39.9938 25.0853 40.2187C25.4751 40.6179 25.8636 40.9985 26.3041 41.3423C26.4506 41.4628 26.597 41.5834 26.7431 41.7044C26.8653 41.8044 26.9887 41.9029 27.1128 42.0006C28.4448 43.0578 28.4448 43.0578 28.5337 43.6731C28.5323 44.0245 28.5074 44.3436 28.4369 44.6875C26.5908 44.8681 26.5908 44.8681 26.0387 44.4709C25.7274 44.1967 25.461 43.8809 25.1869 43.5703C25.0124 43.4225 24.8347 43.2785 24.6537 43.1387C24.1577 42.7343 23.6713 42.3205 23.1937 41.8945C23.0853 41.8024 23.0853 41.8024 22.9746 41.7084C22.6287 41.3941 22.4029 41.1501 22.3233 40.6801C22.3071 40.178 22.4798 39.8158 22.724 39.3872C22.7607 39.3189 22.7973 39.2507 22.8351 39.1803C23.0009 38.8718 23.1711 38.5673 23.3477 38.2649C23.4875 37.9988 23.4875 37.9988 23.4016 37.7713C23.1743 37.4673 22.9261 37.1837 22.6748 36.8993C22.5463 36.6641 22.5463 36.6641 22.6066 36.4034C22.7459 36.1622 22.8787 35.9925 23.0795 35.8008C23.1419 35.741 23.2044 35.6811 23.2687 35.6195C23.529 35.3829 23.7957 35.158 24.0697 34.9375Z" fill="#1198DE"></path><path d="M31.9925 21.1251C32.2004 21.1977 32.2004 21.1977 32.3988 21.2837C32.855 21.4768 33.2427 21.4369 33.7191 21.3282C33.8029 21.2926 33.8867 21.257 33.973 21.2203C34.3614 21.0746 34.7318 21.0649 35.141 21.1251C35.4579 21.3071 35.6031 21.4544 35.7884 21.7662C35.8986 22.2398 35.8353 22.604 35.5917 23.023C34.9066 23.6729 34.0429 23.8241 33.1288 23.899C32.1779 23.8699 31.3343 23.6316 30.6119 23.019C30.3497 22.7117 30.3558 22.3288 30.3675 21.9376C30.6882 21.1612 31.2106 21.0228 31.9925 21.1251Z" fill="black"></path><path d="M37.579 17.3672C37.9481 17.5322 38.0639 17.6375 38.2899 17.9766C38.3605 18.4609 38.3605 18.8669 38.1185 19.2969C37.7451 19.62 37.5174 19.7082 37.0204 19.6905C36.5393 19.5702 36.2829 19.3868 36.0111 18.9732C35.9248 18.5415 35.9988 18.1816 36.1571 17.7735C36.5444 17.2924 37.0009 17.2791 37.579 17.3672Z" fill="black"></path><path d="M29.454 17.3672C29.8231 17.5322 29.9389 17.6375 30.1649 17.9766C30.2355 18.4609 30.2355 18.8669 29.9935 19.2969C29.6201 19.62 29.3924 19.7082 28.8954 19.6905C28.4143 19.5702 28.1579 19.3868 27.8861 18.9732C27.7998 18.5415 27.8738 18.1816 28.0321 17.7735C28.4194 17.2924 28.8759 17.2791 29.454 17.3672Z" fill="black"></path></g><defs><clipPath id="clip0_1559_911"><rect width="52" height="52" fill="white"></rect></clipPath></defs></svg>