<svg xmlns="http://www.w3.org/2000/svg" width="52" height="52" viewBox="0 0 52 52" fill="none"><g clip-path="url(#clip0_1559_896)"><path d="M17.0812 0.916899C18.5555 1.95095 19.5879 3.38539 19.9059 5.17975C20.0688 7.09672 19.7548 8.80607 18.5621 10.3475C18.3728 10.5621 18.1802 10.7682 17.9762 10.9688C17.9091 11.0358 17.8421 11.1029 17.7731 11.1719C17.8677 11.2238 17.9624 11.2756 18.0599 11.329C20.4482 12.6756 22.0457 14.7186 22.7948 17.3589C23.0872 18.4562 23.0543 19.4624 23.0543 20.6172C26.0707 20.5837 29.0871 20.5502 32.1949 20.5157C32.396 19.3091 32.5971 18.1026 32.8043 16.8594C32.265 16.8555 32.265 16.8555 31.7149 16.8515C31.366 16.8476 31.0171 16.843 30.6682 16.8384C30.426 16.8355 30.1839 16.8333 29.9418 16.8319C29.5933 16.8297 29.245 16.825 28.8965 16.8198C28.7886 16.8196 28.6807 16.8195 28.5695 16.8194C27.9569 16.8073 27.5756 16.7736 27.1168 16.3516C26.914 16.0291 26.8877 15.777 26.8858 15.3994C26.8848 15.2886 26.8838 15.1778 26.8828 15.0637C26.8827 14.9427 26.8826 14.8216 26.8826 14.6969C26.8817 14.5691 26.8809 14.4412 26.88 14.3095C26.8778 13.959 26.8769 13.6086 26.8764 13.2582C26.876 13.0391 26.8754 12.82 26.8746 12.601C26.8721 11.8364 26.8708 11.0718 26.8705 10.3072C26.8701 9.59506 26.8671 8.88295 26.8628 8.1708C26.8593 7.55891 26.8577 6.94704 26.8576 6.33514C26.8576 5.96988 26.8567 5.60467 26.8538 5.23942C26.8506 4.83191 26.8515 4.42451 26.8528 4.01699C26.8505 3.83604 26.8505 3.83604 26.8482 3.65144C26.8564 2.73978 26.8564 2.73978 27.1587 2.36424C27.5688 2.00318 27.8561 2.01623 28.3814 2.01636C28.4603 2.01599 28.5393 2.01562 28.6206 2.01523C28.8867 2.01411 29.1527 2.01372 29.4187 2.01333C29.6089 2.0127 29.799 2.01202 29.9892 2.01131C30.5069 2.00954 31.0246 2.00847 31.5423 2.00763C31.8655 2.00711 32.1888 2.00649 32.5121 2.00585C33.5231 2.00392 34.5341 2.00247 35.5452 2.00163C36.7131 2.00064 37.8809 1.99796 39.0488 1.99386C39.9509 1.9908 40.853 1.98929 41.7552 1.98896C42.2942 1.98872 42.8333 1.9878 43.3723 1.98525C43.8795 1.98289 44.3866 1.98246 44.8938 1.9835C45.0799 1.98355 45.2661 1.98291 45.4522 1.98152C45.7064 1.97972 45.9605 1.98044 46.2147 1.98177C46.2883 1.98066 46.3618 1.97954 46.4376 1.9784C46.9489 1.98489 47.2433 2.1089 47.6324 2.43756C47.8513 2.74662 47.8612 3.00875 47.862 3.38209C47.8628 3.49115 47.8635 3.60022 47.8642 3.71258C47.864 3.83172 47.8637 3.95087 47.8635 4.07362C47.8642 4.26243 47.8642 4.26243 47.865 4.45506C47.8662 4.80005 47.8664 5.14502 47.8662 5.49001C47.8661 5.77823 47.8666 6.06646 47.8671 6.35468C47.8682 7.03485 47.8682 7.71501 47.8676 8.39518C47.867 9.09625 47.8682 9.7973 47.8704 10.4984C47.8722 11.1008 47.8728 11.7032 47.8725 12.3056C47.8723 12.6651 47.8726 13.0247 47.874 13.3842C47.8755 13.7854 47.8745 14.1866 47.8734 14.5877C47.8741 14.7064 47.8749 14.8252 47.8757 14.9475C47.8691 15.9673 47.8691 15.9673 47.5309 16.4532C46.9927 16.8582 46.3949 16.797 45.7511 16.7876C45.5834 16.787 45.5834 16.787 45.4122 16.7863C45.0562 16.7846 44.7003 16.7808 44.3443 16.7769C44.1025 16.7754 43.8606 16.774 43.6187 16.7727C43.0269 16.7694 42.4351 16.7643 41.8434 16.7579C41.855 16.8188 41.8667 16.8796 41.8786 16.9424C41.932 17.2215 41.9853 17.5007 42.0386 17.7798C42.0569 17.8756 42.0752 17.9714 42.0941 18.0701C42.4578 19.9768 42.4578 19.9768 42.4527 20.6172C42.5623 20.6166 42.6719 20.6159 42.7848 20.6152C43.8174 20.609 44.85 20.6045 45.8826 20.6015C46.4135 20.5999 46.9444 20.5977 47.4753 20.5943C47.9876 20.591 48.4999 20.5891 49.0122 20.5883C49.2077 20.5878 49.4032 20.5867 49.5986 20.585C49.8724 20.5828 50.1461 20.5825 50.4199 20.5827C50.5007 20.5816 50.5815 20.5805 50.6648 20.5793C51.1284 20.5819 51.4304 20.6302 51.7965 20.9219C52.0182 21.2544 52.0251 21.3487 52.0257 21.7338C52.0264 21.8391 52.0271 21.9445 52.0277 22.0531C52.0274 22.1692 52.0271 22.2853 52.0268 22.405C52.0272 22.5281 52.0277 22.6511 52.0282 22.778C52.0292 23.1202 52.0294 23.4624 52.0291 23.8047C52.0291 24.1736 52.0302 24.5424 52.0312 24.9113C52.0329 25.6342 52.0334 26.3572 52.0336 27.0801C52.0336 27.6676 52.0341 28.2551 52.0347 28.8426C52.0365 30.5074 52.0374 32.1723 52.0373 33.8371C52.0373 33.9718 52.0373 33.9718 52.0373 34.1092C52.0372 34.1991 52.0372 34.289 52.0372 34.3816C52.0372 35.8389 52.0391 37.2962 52.042 38.7536C52.0449 40.2491 52.0463 41.7446 52.0461 43.2402C52.046 44.0801 52.0466 44.9201 52.0488 45.76C52.0506 46.4752 52.0511 47.1903 52.0497 47.9054C52.049 48.2704 52.049 48.6353 52.0508 49.0003C52.0527 49.3957 52.0514 49.7911 52.0498 50.1865C52.0509 50.3022 52.0519 50.4179 52.053 50.5371C52.0462 51.3131 52.0462 51.3131 51.806 51.7135C51.4141 52.0544 51.071 52.0146 50.5736 52.0137C50.4878 52.0139 50.402 52.0142 50.3135 52.0144C50.0228 52.0151 49.7321 52.015 49.4414 52.015C49.2321 52.0153 49.0228 52.0157 48.8136 52.0161C48.236 52.0172 47.6585 52.0175 47.0809 52.0178C46.459 52.0182 45.8371 52.0192 45.2152 52.0201C43.7831 52.022 42.3511 52.023 40.9191 52.0239C40.2118 52.0243 39.5045 52.0248 38.7972 52.0254C36.377 52.0272 33.9569 52.0287 31.5367 52.0294C31.3847 52.0295 31.2327 52.0295 31.0808 52.0296C31.0054 52.0296 30.93 52.0296 30.8524 52.0297C30.4705 52.0298 30.0886 52.0299 29.7067 52.03C29.593 52.0301 29.593 52.0301 29.4771 52.0301C27.019 52.0309 24.5609 52.0333 22.1028 52.0366C19.5053 52.0401 16.9078 52.0421 14.3103 52.0424C14.0254 52.0425 13.7404 52.0425 13.4554 52.0426C13.3852 52.0426 13.315 52.0426 13.2427 52.0426C12.1121 52.0428 10.9814 52.0444 9.85073 52.0465C8.71485 52.0486 7.57898 52.0491 6.44311 52.0481C5.8274 52.0477 5.21171 52.0479 4.59601 52.0499C4.03287 52.0516 3.46976 52.0516 2.90662 52.05C2.7024 52.0497 2.49818 52.0502 2.29396 52.0514C2.01726 52.0529 1.74068 52.0519 1.46398 52.0503C1.3839 52.0514 1.30382 52.0524 1.22132 52.0535C0.843179 52.0487 0.629258 52.0131 0.307995 51.8065C0.00265747 51.4925 -0.0131921 51.3227 -0.0142984 50.896C-0.0148138 50.7909 -0.0153296 50.6857 -0.0158606 50.5773C-0.0159111 50.4609 -0.0159619 50.3445 -0.016014 50.2245C-0.0164591 50.1015 -0.0169037 49.9785 -0.0173622 49.8518C-0.0184878 49.5093 -0.0191521 49.1669 -0.0196155 48.8244C-0.0202198 48.4554 -0.021399 48.0865 -0.0224887 47.7176C-0.0249808 46.8261 -0.0264654 45.9345 -0.0277764 45.043C-0.0281532 44.7914 -0.0285564 44.5397 -0.0289696 44.288C-0.0315325 42.7258 -0.0337722 41.1637 -0.0350353 39.6016C-0.0353328 39.2397 -0.0356342 38.8777 -0.0359403 38.5158C-0.0360161 38.4258 -0.0360916 38.3359 -0.0361696 38.2432C-0.0374553 36.7852 -0.0408301 35.3272 -0.0450604 33.8693C-0.0493655 32.3733 -0.0517619 30.8773 -0.0522929 29.3813C-0.05264 28.541 -0.0538387 27.7007 -0.0571792 26.8604C-0.0600189 26.1449 -0.0611416 25.4294 -0.0600028 24.7139C-0.059475 24.3487 -0.0597755 23.9836 -0.062284 23.6184C-0.0649792 23.2227 -0.0637538 22.8271 -0.0621337 22.4315C-0.0635436 22.3157 -0.0649536 22.2 -0.0664062 22.0807C-0.0585277 21.3032 -0.0585282 21.3032 0.244686 20.9038C0.672212 20.6028 0.976433 20.6037 1.48576 20.6073C1.6003 20.6075 1.6003 20.6075 1.71715 20.6078C1.96137 20.6083 2.20559 20.6096 2.44981 20.6109C2.61525 20.6114 2.78068 20.6119 2.94612 20.6123C3.35198 20.6134 3.75783 20.6152 4.16368 20.6172C4.16235 20.5027 4.16103 20.3882 4.15966 20.2701C4.13745 17.5697 4.85905 15.1352 6.75218 13.1457C7.55869 12.3273 8.43916 11.7249 9.44493 11.1719C9.3779 11.1112 9.31087 11.0504 9.2418 10.9879C7.8575 9.58786 7.2655 7.93832 7.26805 6.00975C7.30667 4.17651 8.13276 2.68446 9.44493 1.42193C11.5734 -0.373959 14.7389 -0.550121 17.0812 0.916899ZM10.378 3.88483C9.66221 4.87533 9.51328 5.91778 9.64805 7.10943C9.93361 8.20114 10.564 9.13406 11.5337 9.7211C12.5323 10.2484 13.519 10.4541 14.6373 10.1801C15.1569 10.0022 15.6088 9.78126 16.0465 9.44537C16.147 9.37415 16.2476 9.30293 16.3512 9.22955C16.7689 8.87322 17.0129 8.40215 17.2652 7.92193C17.3177 7.82826 17.3177 7.82826 17.3712 7.7327C17.7615 6.90629 17.6882 5.72892 17.4112 4.88141C16.9464 3.79739 16.1085 2.9595 15.0245 2.49469C13.2556 1.92159 11.5568 2.48581 10.378 3.88483ZM29.2496 4.36725C29.2496 7.68529 29.2496 11.0033 29.2496 14.4219C34.6121 14.4219 39.9746 14.4219 45.4996 14.4219C45.4996 11.1039 45.4996 7.78584 45.4996 4.36725C40.1371 4.36725 34.7746 4.36725 29.2496 4.36725ZM8.83555 14.4219C8.76905 14.4769 8.70254 14.5319 8.63402 14.5886C7.37641 15.7308 6.6851 17.4413 6.49962 19.0938C6.49962 19.5965 6.49962 20.0993 6.49962 20.6172C11.1918 20.6172 15.884 20.6172 20.7184 20.6172C20.7184 18.3443 20.361 16.6717 18.8902 14.9297C18.8353 14.8632 18.7803 14.7967 18.7236 14.7282C17.5384 13.4233 15.7122 12.686 13.9843 12.5716C12.0243 12.5192 10.3266 13.163 8.83555 14.4219ZM35.2418 16.7579C35.1413 17.3193 35.0407 17.8806 34.9371 18.459C34.9053 18.6356 34.8735 18.8122 34.8407 18.9941C34.8157 19.1347 34.7907 19.2753 34.7657 19.416C34.7526 19.4884 34.7394 19.5609 34.7259 19.6356C34.6666 19.971 34.6324 20.2751 34.6324 20.6172C36.4423 20.6172 38.2521 20.6172 40.1168 20.6172C39.8152 18.7069 39.8152 18.7069 39.5074 16.7579C38.0998 16.7579 36.6921 16.7579 35.2418 16.7579ZM2.23399 22.9532C2.23399 31.8013 2.23399 40.6494 2.23399 49.7657C17.9193 49.7657 33.6046 49.7657 49.7652 49.7657C49.7652 40.9176 49.7652 32.0694 49.7652 22.9532C34.0799 22.9532 18.3946 22.9532 2.23399 22.9532Z" fill="black"></path><path d="M23.1351 26.8714C23.2377 26.8701 23.2377 26.8701 23.3424 26.8688C23.5681 26.8664 23.7937 26.8663 24.0194 26.8664C24.1768 26.8657 24.3342 26.8649 24.4915 26.8641C24.8212 26.8627 25.1509 26.8626 25.4806 26.8632C25.9023 26.8638 26.3239 26.8607 26.7456 26.8565C27.0706 26.8539 27.3955 26.8536 27.7205 26.854C27.876 26.8538 28.0314 26.8529 28.1868 26.851C28.4046 26.8488 28.6222 26.8498 28.84 26.8516C28.9638 26.8514 29.0875 26.8511 29.215 26.8509C29.6727 26.9358 29.8389 27.0927 30.1648 27.4219C30.2589 27.7043 30.2787 27.8708 30.2779 28.162C30.2779 28.2494 30.2778 28.3369 30.2778 28.4269C30.2773 28.5209 30.2768 28.6148 30.2763 28.7116C30.276 28.8564 30.276 28.8564 30.2758 29.0041C30.2752 29.3124 30.274 29.6208 30.2727 29.9292C30.2722 30.1382 30.2717 30.3472 30.2713 30.5562C30.2702 31.0687 30.2684 31.5812 30.2663 32.0937C30.4654 32.0905 30.4654 32.0905 30.6685 32.0873C31.1615 32.0799 31.6546 32.0753 32.1477 32.0714C32.361 32.0694 32.5743 32.0666 32.7875 32.0631C33.0943 32.0581 33.4011 32.0558 33.708 32.0541C33.8506 32.0509 33.8506 32.0509 33.9962 32.0477C34.4213 32.0476 34.6683 32.0543 35.0405 32.2739C35.4193 32.6969 35.4717 33.0028 35.4739 33.5689C35.4744 33.6346 35.475 33.7002 35.4755 33.7678C35.4769 33.984 35.4768 34.2003 35.4766 34.4166C35.477 34.5673 35.4774 34.7181 35.4779 34.8689C35.4786 35.1847 35.4786 35.5005 35.4781 35.8163C35.4775 36.2204 35.4792 36.6245 35.4816 37.0286C35.4831 37.3399 35.4832 37.6512 35.4828 37.9625C35.4829 38.1115 35.4834 38.2605 35.4844 38.4094C35.4857 38.618 35.485 38.8265 35.4838 39.0351C35.4839 39.1536 35.484 39.2721 35.484 39.3943C35.4277 39.8632 35.2057 40.2282 34.8366 40.5234C34.5531 40.6117 34.2981 40.6374 34.002 40.6365C33.9187 40.6365 33.8354 40.6365 33.7495 40.6365C33.6605 40.636 33.5715 40.6354 33.4798 40.6349C33.3421 40.6347 33.3421 40.6347 33.2015 40.6345C32.9087 40.6339 32.6158 40.6326 32.323 40.6313C32.1242 40.6308 31.9255 40.6304 31.7267 40.6299C31.2399 40.6288 30.7531 40.6271 30.2663 40.625C30.2687 40.8148 30.2687 40.8148 30.2712 41.0085C30.2767 41.4788 30.2802 41.9492 30.2831 42.4196C30.2846 42.623 30.2867 42.8264 30.2893 43.0298C30.293 43.3225 30.2947 43.6152 30.2961 43.9079C30.2977 43.9986 30.2992 44.0893 30.3009 44.1827C30.301 44.6713 30.2871 45.0069 29.9616 45.3984C29.611 45.7324 29.3424 45.7425 28.8663 45.7458C28.7979 45.7466 28.7295 45.7475 28.659 45.7484C28.4333 45.7507 28.2077 45.7508 27.982 45.7507C27.8246 45.7514 27.6673 45.7522 27.5099 45.7531C27.1802 45.7544 26.8505 45.7546 26.5208 45.754C26.0991 45.7534 25.6775 45.7565 25.2559 45.7606C24.9309 45.7632 24.6059 45.7635 24.2809 45.7631C24.1255 45.7633 23.9701 45.7643 23.8147 45.7661C23.5968 45.7684 23.3792 45.7674 23.1614 45.7656C23.0377 45.7658 22.9139 45.766 22.7865 45.7662C22.3287 45.6814 22.1625 45.5244 21.8366 45.1953C21.7433 44.9154 21.7227 44.7525 21.7236 44.4644C21.7236 44.3791 21.7236 44.2937 21.7236 44.2057C21.7241 44.114 21.7246 44.0223 21.7252 43.9277C21.7253 43.8335 21.7255 43.7392 21.7256 43.6421C21.7262 43.341 21.7274 43.0399 21.7287 42.7388C21.7292 42.5346 21.7297 42.3305 21.7301 42.1264C21.7312 41.6259 21.733 41.1255 21.7351 40.625C21.6116 40.626 21.4881 40.6271 21.3609 40.6282C20.9019 40.6319 20.4429 40.6342 19.9839 40.6361C19.7854 40.6372 19.5869 40.6385 19.3884 40.6403C19.1028 40.6428 18.8171 40.6439 18.5315 40.6448C18.443 40.6459 18.3546 40.6469 18.2634 40.648C17.6925 40.6481 17.2828 40.6109 16.8347 40.2251C16.523 39.8577 16.5413 39.5256 16.5374 39.0613C16.5368 38.9959 16.5361 38.9305 16.5354 38.8631C16.5334 38.6467 16.5322 38.4304 16.5312 38.2141C16.5308 38.14 16.5304 38.066 16.5299 37.9897C16.5278 37.5979 16.5264 37.206 16.5254 36.8141C16.5243 36.4101 16.5208 36.0062 16.5168 35.6022C16.5141 35.2908 16.5133 34.9795 16.5129 34.6682C16.5124 34.5193 16.5112 34.3704 16.5093 34.2215C16.5069 34.0127 16.507 33.8041 16.5077 33.5952C16.5071 33.4766 16.5065 33.358 16.5059 33.2358C16.5666 32.8317 16.7082 32.614 16.9616 32.2969C17.2801 32.0846 17.3494 32.0686 17.7111 32.0707C17.8006 32.0707 17.89 32.0707 17.9822 32.0707C18.0784 32.0718 18.1745 32.0728 18.2736 32.0739C18.3724 32.0742 18.4711 32.0745 18.5729 32.0748C18.8885 32.0759 19.2041 32.0785 19.5198 32.081C19.7337 32.0821 19.9476 32.083 20.1615 32.0838C20.686 32.0861 21.2105 32.0896 21.7351 32.0937C21.7335 31.9641 21.7319 31.8345 21.7302 31.7009C21.7247 31.2192 21.7212 30.7375 21.7183 30.2558C21.7168 30.0474 21.7147 29.8391 21.7121 29.6307C21.7084 29.331 21.7067 29.0312 21.7053 28.7315C21.7038 28.6386 21.7022 28.5456 21.7006 28.4499C21.7004 27.9568 21.7097 27.6131 22.0398 27.2187C22.3906 26.8848 22.659 26.8747 23.1351 26.8714ZM24.071 29.25C24.066 29.5593 24.0611 29.8687 24.0559 30.1875C24.0505 30.4876 24.0446 30.7878 24.0388 31.088C24.0349 31.2963 24.0314 31.5046 24.0282 31.713C24.0235 32.0128 24.0176 32.3125 24.0115 32.6123C24.0098 32.7516 24.0098 32.7516 24.008 32.8938C23.9868 33.8116 23.9868 33.8116 23.7663 34.125C23.2162 34.3592 22.6666 34.3622 22.0751 34.3702C21.9837 34.3721 21.8922 34.3741 21.7981 34.3761C21.5084 34.3822 21.2187 34.3869 20.9289 34.3916C20.7316 34.3955 20.5342 34.3994 20.3368 34.4035C19.855 34.4134 19.3732 34.4215 18.8913 34.4297C18.8913 35.7033 18.8913 36.9769 18.8913 38.289C19.208 38.2917 19.5247 38.2943 19.851 38.297C20.1583 38.3009 20.4655 38.3055 20.7727 38.3101C20.986 38.313 21.1992 38.3151 21.4125 38.3166C21.7194 38.3187 22.0261 38.3235 22.333 38.3287C22.4281 38.3288 22.5232 38.329 22.6212 38.3291C23.0505 38.3387 23.2979 38.3531 23.6718 38.5786C23.9481 38.8862 23.9821 39.1387 23.9903 39.537C23.9934 39.6681 23.9934 39.6681 23.9965 39.8019C23.9981 39.8959 23.9998 39.9898 24.0016 40.0866C24.0037 40.1831 24.0058 40.2796 24.008 40.3791C24.0146 40.6874 24.0206 40.9958 24.0266 41.3042C24.031 41.5132 24.0354 41.7222 24.0399 41.9312C24.0508 42.4437 24.0609 42.9562 24.071 43.4687C25.3446 43.4687 26.6182 43.4687 27.9304 43.4687C27.9342 43.1594 27.938 42.85 27.9419 42.5313C27.9466 42.2311 27.9518 41.9309 27.9571 41.6308C27.9604 41.4224 27.9633 41.2141 27.9656 41.0057C27.969 40.7059 27.9743 40.4062 27.98 40.1065C27.9806 40.0136 27.9813 39.9206 27.982 39.8249C27.9932 39.3351 28.012 38.9872 28.3366 38.5937C28.6518 38.3836 28.7276 38.3644 29.0861 38.3582C29.1756 38.3562 29.265 38.3542 29.3572 38.3521C29.4534 38.3509 29.5495 38.3498 29.6486 38.3486C29.7968 38.3456 29.7968 38.3456 29.9479 38.3426C30.2635 38.3365 30.5791 38.3318 30.8948 38.3271C31.1087 38.3233 31.3226 38.3193 31.5365 38.3152C32.061 38.3053 32.5855 38.2972 33.1101 38.289C33.1101 37.0154 33.1101 35.7419 33.1101 34.4297C32.8177 34.4259 32.5254 34.4221 32.2242 34.4182C31.9395 34.4135 31.6548 34.4083 31.3701 34.403C31.173 34.3996 30.9758 34.3968 30.7787 34.3945C30.4946 34.3911 30.2105 34.3857 29.9263 34.3801C29.7952 34.3791 29.7952 34.3791 29.6614 34.3781C29.1148 34.3649 28.7142 34.2958 28.2351 34.0234C28.0516 33.7358 28.0055 33.5081 27.9996 33.1702C27.9976 33.0828 27.9955 32.9953 27.9935 32.9053C27.9923 32.8119 27.9911 32.7184 27.9899 32.6222C27.9879 32.5258 27.986 32.4295 27.9839 32.3302C27.9779 32.0229 27.9732 31.7155 27.9685 31.4082C27.9646 31.1996 27.9606 30.9911 27.9566 30.7825C27.9467 30.2717 27.9386 29.7609 27.9304 29.25C26.6568 29.25 25.3832 29.25 24.071 29.25Z" fill="#1198DE"></path><path d="M17.0808 0.916899C18.5551 1.95095 19.5876 3.38539 19.9055 5.17975C20.0685 7.09672 19.7545 8.80607 18.5618 10.3475C18.3724 10.5621 18.1798 10.7682 17.9758 10.9688C17.9088 11.0358 17.8418 11.1029 17.7727 11.1719C17.8674 11.2238 17.962 11.2756 18.0596 11.329C20.4478 12.6756 22.0454 14.7186 22.7945 17.3589C23.0839 18.4453 23.0721 19.5018 23.054 20.6172C22.2831 20.6172 21.5123 20.6172 20.718 20.6172C20.7076 20.3784 20.6971 20.1396 20.6863 19.8936C20.562 17.7615 19.8684 15.9318 18.2996 14.441C16.7568 13.1227 14.9092 12.5581 12.8977 12.6954C10.9947 12.9473 9.37566 13.8078 8.12746 15.2686C6.87988 16.9048 6.61006 18.6233 6.49928 20.6172C5.72843 20.6172 4.95757 20.6172 4.16335 20.6172C4.09451 17.8868 4.70664 15.3706 6.5945 13.3111C7.44164 12.4208 8.36801 11.7639 9.4446 11.1719C9.37757 11.1112 9.31054 11.0504 9.24147 10.9879C7.85716 9.58786 7.26517 7.93832 7.26772 6.00975C7.30634 4.17651 8.13243 2.68446 9.4446 1.42193C11.5731 -0.373959 14.7386 -0.550121 17.0808 0.916899ZM10.3777 3.88483C9.66188 4.87533 9.51295 5.91778 9.64772 7.10943C9.93328 8.20114 10.5637 9.13406 11.5334 9.7211C12.532 10.2484 13.5187 10.4541 14.637 10.1801C15.1566 10.0022 15.6085 9.78126 16.0462 9.44537C16.1467 9.37415 16.2473 9.30293 16.3508 9.22955C16.7686 8.87322 17.0125 8.40215 17.2649 7.92193C17.3173 7.82826 17.3173 7.82826 17.3708 7.7327C17.7611 6.90629 17.6878 5.72892 17.4109 4.88141C16.9461 3.79739 16.1082 2.9595 15.0242 2.49469C13.2553 1.92159 11.5565 2.48581 10.3777 3.88483Z" fill="#1198DE"></path></g><defs><clipPath id="clip0_1559_896"><rect width="52" height="52" fill="white"></rect></clipPath></defs></svg>