<svg xmlns="http://www.w3.org/2000/svg" width="52" height="52" viewBox="0 0 52 52" fill="none"><g clip-path="url(#clip0_1559_884)"><path d="M50.4763 29.0469C51.2891 29.7874 51.8573 30.6287 51.9482 31.747C52.0021 32.9792 51.8189 33.9629 50.9968 34.9248C50.1591 35.7934 49.2599 36.6115 48.3455 37.3984C48.0698 37.64 47.8006 37.8884 47.531 38.1367C47.1339 38.5024 46.7328 38.8623 46.3249 39.2158C46.0463 39.4616 45.7731 39.7132 45.4997 39.9648C45.0977 40.335 44.6921 40.7001 44.2794 41.0582C43.8693 41.4167 43.4665 41.7835 43.0622 42.1484C42.893 42.3008 42.7237 42.4531 42.5544 42.6055C42.4706 42.6809 42.3868 42.7563 42.3005 42.834C41.5388 43.5195 41.5388 43.5195 41.2837 43.7488C41.118 43.8981 40.9527 44.0478 40.7878 44.1979C40.5317 44.4304 40.2738 44.6608 40.0154 44.8906C39.9663 44.9349 39.9172 44.9792 39.8667 45.0248C37.5616 47.0972 35.0553 47.8668 31.9702 47.8391C31.8286 47.8382 31.687 47.8374 31.5454 47.8367C31.3202 47.8355 31.0949 47.8342 30.8697 47.8328C30.3116 47.8293 29.7535 47.8277 29.1954 47.8272C29.1139 47.8271 29.0324 47.827 28.9484 47.8269C28.6128 47.8267 28.2773 47.8265 27.9417 47.8263C26.9939 47.8257 26.0462 47.8233 25.0985 47.8154C24.3426 47.8091 23.5868 47.8069 22.8309 47.8092C22.4321 47.8103 22.0336 47.8094 21.635 47.8037C19.8797 47.7797 18.4983 47.7789 17.1638 49.0547C17.011 49.1663 16.8566 49.2759 16.6988 49.3804C16.5745 49.4685 16.4502 49.5567 16.3259 49.645C16.1831 49.7461 16.0403 49.8471 15.8974 49.9481C15.8239 50.0002 15.7503 50.0522 15.6745 50.1058C15.232 50.4184 14.7889 50.7302 14.3454 51.0415C14.2595 51.102 14.1736 51.1626 14.0851 51.2249C14.004 51.2818 13.9228 51.3387 13.8392 51.3974C13.7678 51.4476 13.6963 51.4978 13.6227 51.5495C13.5512 51.5976 13.4797 51.6457 13.406 51.6953C13.3418 51.7477 13.2777 51.8002 13.2116 51.8542C12.7277 52.0793 12.2572 52.0432 11.7298 52.041C11.6117 52.0417 11.4936 52.0424 11.3718 52.0431C10.9814 52.045 10.5909 52.0446 10.2004 52.044C9.99769 52.0444 9.79495 52.0447 9.59221 52.0452C8.95504 52.0466 8.31788 52.0465 7.6807 52.0453C7.02387 52.0441 6.36708 52.0456 5.71025 52.0483C5.14571 52.0505 4.58119 52.0512 4.01664 52.0506C3.67972 52.0503 3.34284 52.0507 3.00592 52.0523C2.63026 52.0538 2.2547 52.0527 1.87904 52.051C1.71203 52.0524 1.71203 52.0524 1.54165 52.0539C0.787812 52.0466 0.787812 52.0466 0.390095 51.8064C0.134324 51.5159 0.0885116 51.3595 0.0843046 50.9822C0.0831375 50.8968 0.0819705 50.8114 0.0807681 50.7234C0.0800163 50.6295 0.0792646 50.5356 0.07849 50.4388C0.0773332 50.34 0.0761764 50.2413 0.0749846 50.1395C0.0637427 49.1055 0.0589285 48.0714 0.0545871 47.0373C0.0523252 46.5467 0.0480839 46.0561 0.0420902 45.5656C0.0348684 44.9733 0.0311444 44.3811 0.029897 43.7888C0.0288409 43.5633 0.0265609 43.3377 0.0230286 43.1122C0.0183306 42.7959 0.0181349 42.4798 0.0189807 42.1635C0.0153861 42.0244 0.0153861 42.0244 0.0117188 41.8826C0.0198192 41.2547 0.186213 40.9405 0.623353 40.4914C0.925805 40.2174 1.24141 39.9724 1.57396 39.7363C1.7176 39.6315 1.86108 39.5265 2.00441 39.4213C2.0765 39.3685 2.14858 39.3157 2.22286 39.2613C2.56133 39.0091 2.88979 38.7449 3.218 38.4795C3.72788 38.0683 4.24144 37.6634 4.76167 37.2653C5.23067 36.9064 5.69727 36.5444 6.16331 36.1816C6.24052 36.1216 6.31772 36.0615 6.39726 35.9996C6.79023 35.6938 7.18293 35.3877 7.57527 35.0811C7.9553 34.7842 8.33636 34.4887 8.7179 34.1938C8.93038 34.0288 9.14153 33.8621 9.35261 33.6953C12.4944 31.2394 15.7514 30.9268 19.6159 30.9356C20.0649 30.9364 20.5139 30.9357 20.9629 30.9352C21.7155 30.9347 22.4681 30.9354 23.2206 30.9368C24.0876 30.9385 24.9546 30.938 25.8216 30.9363C26.5706 30.9349 27.3196 30.9347 28.0686 30.9355C28.514 30.936 28.9593 30.936 29.4047 30.935C29.8229 30.9341 30.241 30.9348 30.6592 30.9365C30.8117 30.9369 30.9641 30.9368 31.1166 30.9361C32.6366 30.93 34.0127 31.1573 35.1713 32.2108C36.0669 33.1869 36.4011 34.2613 36.3797 35.5647C36.3579 35.8683 36.3124 36.1617 36.2576 36.4609C36.3434 36.3812 36.4293 36.3015 36.5178 36.2193C37.2372 35.5526 37.9616 34.8952 38.7093 34.2603C39.3721 33.6965 40.0217 33.1234 40.6572 32.529C40.9877 32.2219 41.3258 31.9312 41.6785 31.6494C42.1439 31.2762 42.5783 30.8783 43.0115 30.4687C45.1399 28.4654 47.7736 26.8598 50.4763 29.0469ZM45.0364 31.864C44.7479 32.1415 44.4488 32.3971 44.135 32.646C43.6003 33.0736 43.1069 33.5378 42.61 34.0079C42.1633 34.4283 41.701 34.8184 41.2214 35.2009C40.8569 35.506 40.5129 35.8297 40.1677 36.1562C39.6446 36.6509 39.1116 37.1205 38.5479 37.569C38.2774 37.7906 38.0236 38.0248 37.7683 38.2637C36.6509 39.2768 35.5996 39.4369 34.1292 39.4341C33.9868 39.4346 33.8445 39.4351 33.7021 39.4357C33.3175 39.4371 32.9329 39.4371 32.5482 39.4369C32.2267 39.4368 31.9051 39.4373 31.5835 39.4377C30.8251 39.4389 30.0666 39.4389 29.3081 39.4383C28.5262 39.4377 27.7442 39.4389 26.9623 39.4411C26.2899 39.4429 25.6176 39.4435 24.9452 39.4432C24.544 39.443 24.1429 39.4433 23.7417 39.4447C23.3648 39.4459 22.988 39.4457 22.6111 39.4444C22.407 39.4441 22.203 39.4452 21.999 39.4464C21.8164 39.4453 21.8164 39.4453 21.6301 39.4443C21.5246 39.4443 21.419 39.4443 21.3102 39.4443C20.9774 39.4002 20.7856 39.2975 20.5154 39.1016C20.283 38.6966 20.2977 38.3445 20.4138 37.9019C20.661 37.5078 20.7922 37.4352 21.2263 37.2734C21.594 37.2307 21.9586 37.2332 22.3284 37.236C22.4383 37.2356 22.5482 37.2352 22.6614 37.2348C22.8995 37.2342 23.1375 37.2342 23.3756 37.2348C23.7526 37.2358 24.1295 37.2347 24.5065 37.2331C25.4426 37.2296 26.3788 37.2288 27.315 37.2291C28.1063 37.2293 28.8977 37.2279 29.689 37.2242C30.0601 37.2231 30.431 37.2243 30.8021 37.2256C31.0301 37.2247 31.2581 37.2236 31.4861 37.2225C31.5889 37.2235 31.6918 37.2245 31.7977 37.2255C32.5061 37.2183 32.9466 37.0928 33.4856 36.6105C33.9225 36.0532 34.0847 35.6507 34.0232 34.9375C33.8136 34.3298 33.5714 33.8699 33.0076 33.541C32.5362 33.3446 32.1625 33.2996 31.6502 33.2982C31.4506 33.2974 31.4506 33.2974 31.2469 33.2965C31.0995 33.2963 30.9522 33.2962 30.8048 33.2961C30.6495 33.2957 30.4941 33.2952 30.3388 33.2946C29.9165 33.2933 29.4942 33.2926 29.072 33.2922C28.8075 33.2919 28.543 33.2914 28.2786 33.291C27.4494 33.2896 26.6202 33.2886 25.791 33.2882C24.8373 33.2878 23.8836 33.286 22.9299 33.2831C22.1909 33.2808 21.4519 33.2798 20.7128 33.2797C20.2724 33.2796 19.8321 33.279 19.3917 33.2772C18.9761 33.2755 18.5606 33.2753 18.145 33.2762C17.9939 33.2763 17.8428 33.2758 17.6917 33.2748C14.7441 33.2562 12.4661 34.2404 10.1896 36.0686C9.80911 36.3727 9.42381 36.6705 9.0388 36.9687C8.88643 37.0872 8.73409 37.2057 8.58177 37.3242C5.83958 39.457 5.83958 39.457 5.61067 39.6351C5.45964 39.7525 5.30861 39.87 5.15761 39.9876C4.75685 40.2994 4.3558 40.6108 3.95433 40.9217C3.87041 40.9868 3.78649 41.0519 3.70003 41.1189C3.53851 41.2441 3.37692 41.3692 3.21522 41.4942C3.10663 41.5785 3.10663 41.5785 2.99583 41.6644C2.93194 41.7139 2.86805 41.7633 2.80223 41.8143C2.62769 41.9509 2.62769 41.9509 2.43724 42.1484C2.41818 42.3931 2.41164 42.626 2.41418 42.8707C2.41415 42.9451 2.41412 43.0194 2.41409 43.096C2.41423 43.3422 2.41581 43.5883 2.4174 43.8345C2.41778 44.005 2.41807 44.1755 2.41827 44.346C2.41905 44.7951 2.42105 45.2443 2.42329 45.6934C2.42537 46.1516 2.4263 46.6097 2.42732 47.0679C2.4295 47.9671 2.43297 48.8664 2.43724 49.7656C3.66888 49.7916 4.90045 49.8114 6.13231 49.8235C6.70447 49.8293 7.27644 49.8372 7.84849 49.8499C8.40167 49.8621 8.95467 49.8687 9.50797 49.8716C9.71793 49.8737 9.92788 49.8777 10.1378 49.8837C11.5467 49.9229 12.4022 49.7517 13.4543 48.7855C13.6901 48.5767 13.9478 48.4031 14.2082 48.2267C14.3458 48.1314 14.3458 48.1314 14.4862 48.0341C14.578 47.9708 14.6698 47.9075 14.7644 47.8423C14.9646 47.7036 15.1649 47.5649 15.365 47.4261C15.511 47.325 15.511 47.325 15.6599 47.2217C16.1584 46.875 16.6542 46.5244 17.1497 46.1733C17.9926 45.5762 17.9926 45.5762 18.5874 45.5753C18.7152 45.5746 18.843 45.5739 18.9747 45.5732C19.1167 45.5735 19.2586 45.5737 19.4006 45.574C19.5499 45.5736 19.6993 45.573 19.8486 45.5724C20.1706 45.5712 20.4927 45.5707 20.8147 45.5706C21.3255 45.5704 21.8362 45.5686 22.3469 45.5664C23.6169 45.5615 24.8868 45.5583 26.1568 45.5562C27.1414 45.5545 28.126 45.5521 29.1105 45.5477C29.6165 45.5455 30.1225 45.5447 30.6285 45.5449C30.9462 45.5448 31.2638 45.5433 31.5815 45.5415C31.7269 45.541 31.8722 45.5409 32.0176 45.5414C32.8022 45.5439 33.559 45.4957 34.3312 45.3618C34.4011 45.3497 34.471 45.3375 34.5431 45.3251C36.3681 44.9801 37.6508 43.8209 38.9578 42.5872C39.2022 42.3589 39.4554 42.1411 39.7083 41.9223C39.9661 41.6963 40.2191 41.4654 40.4724 41.2344C40.7892 40.9454 41.1069 40.6583 41.4309 40.3774C41.832 40.0291 42.2223 39.6693 42.6131 39.3095C42.9571 38.9933 43.3059 38.6839 43.6589 38.3779C43.9375 38.1321 44.2108 37.8806 44.4841 37.6289C44.8862 37.2588 45.2917 36.8937 45.7045 36.5355C46.1146 36.1771 46.5173 35.8103 46.9216 35.4453C47.0909 35.2929 47.2601 35.1406 47.4294 34.9883C47.5541 34.8758 47.5541 34.8758 47.6813 34.761C47.8565 34.6038 48.0324 34.4475 48.209 34.292C49.1127 33.5681 49.1127 33.5681 49.59 32.569C49.6113 31.9805 49.5847 31.5354 49.2314 31.0503C48.7835 30.6065 48.2112 30.3461 47.5818 30.3037C46.4904 30.3856 45.7809 31.1461 45.0364 31.864Z" fill="black"></path><path d="M25.9812 -0.0444398C26.1413 -0.0431756 26.1413 -0.0431756 26.3046 -0.0418859C28.1436 -0.00204753 29.7589 0.741983 31.0783 2.03124C32.3465 3.47776 33.0566 5.18311 33.0298 7.11334C32.8823 9.14667 32.0825 10.9058 30.5705 12.2891C30.86 12.5256 31.1639 12.6956 31.4974 12.8629C32.2907 13.2623 32.9507 13.7295 33.6174 14.3203C33.6929 14.3801 33.7685 14.44 33.8463 14.5016C34.6218 15.1329 35.1806 15.9447 35.7502 16.7578C35.8123 16.8458 35.8743 16.9338 35.9382 17.0244C37.1554 18.899 37.5074 21.1068 37.5339 23.2959C37.5354 23.3652 37.5369 23.4344 37.5385 23.5058C37.5613 24.7648 37.5613 24.7648 37.232 25.1724C36.7991 25.5315 36.4709 25.5075 35.9281 25.5078C35.8404 25.5083 35.7528 25.5087 35.6624 25.5092C35.3669 25.5105 35.0714 25.5111 34.7759 25.5118C34.5648 25.5126 34.3536 25.5134 34.1424 25.5143C33.4474 25.517 32.7524 25.5185 32.0575 25.52C31.8185 25.5205 31.5795 25.521 31.3405 25.5216C30.3466 25.5238 29.3527 25.5257 28.3587 25.5268C26.933 25.5285 25.5072 25.5319 24.0815 25.5376C23.0798 25.5416 22.078 25.5436 21.0763 25.5441C20.4776 25.5445 19.879 25.5457 19.2803 25.549C18.7171 25.552 18.1539 25.5527 17.5907 25.5515C17.384 25.5515 17.1772 25.5523 16.9705 25.5541C16.6882 25.5564 16.4061 25.5555 16.1239 25.5539C16.042 25.5553 15.9602 25.5568 15.8758 25.5582C15.2905 25.5499 15.034 25.4049 14.6252 24.9844C13.9092 23.5524 14.5934 20.6617 15.0485 19.2278C15.1659 18.905 15.2957 18.5939 15.4377 18.2812C15.4813 18.1819 15.5249 18.0825 15.5698 17.9801C16.7881 15.3686 18.8891 13.6358 21.4299 12.3906C21.3913 12.3461 21.3527 12.3015 21.3129 12.2556C19.8323 10.5394 18.8231 8.73123 18.9924 6.39843C19.194 4.86461 19.6438 3.66228 20.6174 2.43749C20.6873 2.34068 20.6873 2.34068 20.7586 2.24191C21.941 0.692703 24.0999 -0.0637371 25.9812 -0.0444398ZM23.1564 3.24999C23.0538 3.32331 22.9512 3.39662 22.8454 3.47216C21.9233 4.27869 21.4606 5.39332 21.3347 6.58886C21.2779 7.92302 21.6857 9.02135 22.5126 10.0642C23.3361 10.952 24.5121 11.5058 25.713 11.5944C27.0466 11.6432 28.1494 11.1958 29.1613 10.353C30.0425 9.5239 30.5393 8.51426 30.6721 7.31249C30.7086 5.87085 30.3009 4.7405 29.3518 3.65624C28.3386 2.67273 27.1754 2.30725 25.7969 2.30352C24.7808 2.31933 23.9765 2.66218 23.1564 3.24999ZM20.1096 15.9453C20.037 16.0025 19.9645 16.0597 19.8898 16.1187C18.27 17.4539 17.1084 19.6587 16.8596 21.7344C16.8596 22.2036 16.8596 22.6728 16.8596 23.1562C22.8924 23.1562 28.9252 23.1562 35.1408 23.1562C35.1529 22.0287 35.1529 22.0287 34.9885 20.9473C34.9709 20.871 34.9533 20.7947 34.9352 20.7161C34.6048 19.3957 33.968 18.2156 33.1096 17.1641C33.0571 17.0951 33.0046 17.0261 32.9505 16.955C31.6408 15.3236 29.5397 14.2239 27.4799 13.941C24.742 13.6585 22.2655 14.1797 20.1096 15.9453Z" fill="#1198DE"></path></g><defs><clipPath id="clip0_1559_884"><rect width="52" height="52" fill="white"></rect></clipPath></defs></svg>